<svg width="602" height="521" viewBox="0 0 602 521" fill="none" xmlns="http://www.w3.org/2000/svg">
<g opacity="0.4">
<path d="M487.795 110.643L526.489 135.346L487.715 160.102L448.938 135.344L487.713 110.59L487.795 110.643ZM487.444 111.371L450.552 134.923L449.892 135.345L450.552 135.766L487.446 159.322L487.715 159.492L487.984 159.322L524.877 135.768L525.537 135.346L524.877 134.925L487.982 111.371L487.714 111.199L487.444 111.371Z" fill="white" stroke="#3179B4"/>
<path d="M449.892 135.344L411.115 160.1L372.341 135.344L411.115 110.588L449.892 135.344ZM410.847 111.37L373.954 134.923L373.294 135.344L373.954 135.766L410.847 159.319L411.116 159.491L411.385 159.319L448.278 135.766L448.938 135.344L448.278 134.923L411.385 111.37L411.116 111.198L410.847 111.37Z" fill="white" stroke="#3179B4"/>
<path d="M488.191 159.796L449.417 184.551L449.335 184.499L410.64 159.795L449.415 135.04L488.191 159.796ZM449.146 135.821L412.254 159.375L411.594 159.795L412.254 160.217L449.148 183.771L449.417 183.943L449.686 183.771L486.579 160.218L487.239 159.797L486.579 159.375L449.684 135.821L449.416 135.649L449.146 135.821Z" fill="white" stroke="#3179B4"/>
<path d="M487.795 159.545L487.796 159.546L526.49 184.248L487.716 209.002L487.635 208.95L487.634 208.949L448.94 184.246L487.714 159.493L487.795 159.545ZM487.446 160.273L450.552 183.825L449.892 184.247L450.552 184.668L487.448 208.223L487.716 208.393L487.986 208.223L524.878 184.67L525.538 184.248L524.878 183.827L487.984 160.273L487.715 160.101L487.446 160.273Z" fill="white" stroke="#3179B4"/>
<path d="M334.599 110.641L373.294 135.344L334.519 160.098L334.438 160.046L334.437 160.045L295.743 135.342L334.517 110.588L334.599 110.641ZM334.249 111.37L297.356 134.921L296.696 135.343L297.356 135.764L334.251 159.318L334.519 159.49L334.789 159.318L371.681 135.766L372.342 135.344L371.681 134.923L334.787 111.37L334.518 111.198L334.249 111.37Z" fill="white" stroke="#3179B4"/>
<path d="M411.593 159.795L372.818 184.551L334.042 159.793L372.818 135.04L411.593 159.795ZM372.549 135.821L335.656 159.373L334.996 159.794L335.656 160.215L372.549 183.771L372.818 183.943L373.087 183.771L409.98 160.217L410.64 159.795L409.98 159.375L373.087 135.821L372.818 135.649L372.549 135.821Z" fill="white" stroke="#3179B4"/>
<path d="M411.197 159.544L411.198 159.545L449.892 184.247L411.118 209.002L411.037 208.95H411.036L372.341 184.247L411.115 159.491L411.197 159.544ZM410.847 160.272L373.954 183.826L373.294 184.247L373.954 184.669L410.849 208.222L411.117 208.394L411.387 208.222L448.279 184.669L448.939 184.247L448.279 183.826L411.385 160.272L411.116 160.1L410.847 160.272Z" fill="white" stroke="#3179B4"/>
<path d="M449.497 183.995L449.498 183.996L488.192 208.698L449.417 233.453L449.336 233.401H449.335L410.641 208.698L449.415 183.942L449.497 183.995ZM449.147 184.724L412.254 208.277L411.594 208.698L412.254 209.12L449.149 232.674L449.417 232.845L449.687 232.674L486.579 209.12L487.24 208.698L486.579 208.277L449.685 184.724L449.416 184.552L449.147 184.724Z" fill="white" stroke="#3179B4"/>
<path d="M526.492 233.15L487.717 257.904L487.636 257.853H487.635L448.941 233.149L487.715 208.394L526.492 233.15ZM487.447 209.175L450.553 232.729L449.894 233.149L450.553 233.571L487.449 257.125L487.717 257.296L487.987 257.125L524.879 233.572L525.54 233.15L524.879 232.729L487.985 209.175L487.716 209.003L487.447 209.175Z" fill="white" stroke="#3179B4"/>
<path d="M258.001 110.64H258.002L296.696 135.343L257.922 160.098L257.84 160.046L219.145 135.343L257.919 110.587L258.001 110.64ZM257.65 111.368L220.758 134.922L220.098 135.343L220.758 135.765L257.652 159.318L257.922 159.489L258.19 159.318L295.083 135.765L295.743 135.343L295.083 134.922L258.188 111.368L257.92 111.196L257.65 111.368Z" fill="white" stroke="#3179B4"/>
<path d="M296.301 135.091L296.302 135.092L334.995 159.794L296.221 184.55L296.14 184.498V184.497L257.445 159.794L296.219 135.038L296.301 135.091ZM295.95 135.819L259.058 159.373L258.398 159.794L259.058 160.216L295.952 183.769L296.221 183.941L296.49 183.769L333.383 160.216L334.043 159.794L333.383 159.373L296.489 135.819L296.22 135.647L295.95 135.819Z" fill="white" stroke="#3179B4"/>
<path d="M373.294 184.246L334.521 209L334.439 208.948H334.438L295.744 184.245L334.519 159.489L373.294 184.246ZM334.25 160.271L297.357 183.824L296.697 184.245L297.357 184.667L334.252 208.221L334.521 208.393L334.79 208.221L371.682 184.668L372.342 184.247L371.682 183.825L334.788 160.271L334.52 160.099L334.25 160.271Z" fill="white" stroke="#3179B4"/>
<path d="M372.899 183.995V183.996L411.594 208.698L372.819 233.454L334.044 208.696L372.817 183.942L372.899 183.995ZM372.549 184.724L335.657 208.275L334.997 208.697L335.657 209.118L372.551 232.673L372.819 232.845L373.089 232.674L409.981 209.12L410.641 208.698L409.981 208.277L373.087 184.724L372.818 184.552L372.549 184.724Z" fill="white" stroke="#3179B4"/>
<path d="M411.199 208.446H411.2L449.894 233.149L411.12 257.904L411.039 257.853H411.038L372.343 233.149L411.117 208.394L411.199 208.446ZM410.849 209.175L373.956 232.729L373.296 233.149L373.956 233.571L410.851 257.125L411.119 257.296L411.389 257.124L448.281 233.571L448.941 233.149L448.281 232.729L411.387 209.175L411.118 209.003L410.849 209.175Z" fill="white" stroke="#3179B4"/>
<path d="M449.498 232.897L449.499 232.898L488.193 257.6L449.419 282.355L449.338 282.303H449.337L410.642 257.6L449.417 232.845L449.498 232.897ZM449.148 233.626L412.256 257.179L411.595 257.6L412.256 258.022L449.15 281.576L449.419 281.748L449.688 281.576L486.581 258.022L487.241 257.6L486.581 257.179L449.686 233.626L449.418 233.454L449.148 233.626Z" fill="white" stroke="#3179B4"/>
<path d="M487.799 257.349L487.8 257.35L526.494 282.052L487.72 306.807L487.638 306.755L448.943 282.052L487.718 257.297L487.799 257.349ZM487.449 258.077L450.556 281.631L449.896 282.052L450.556 282.474L487.45 306.027L487.72 306.199L487.989 306.027L524.881 282.474L525.541 282.052L524.881 281.631L487.988 258.077L487.718 257.905L487.449 258.077Z" fill="white" stroke="#3179B4"/>
<path d="M181.403 110.64H181.404L220.097 135.343L181.324 160.097L181.243 160.045L181.242 160.044L142.546 135.341L181.321 110.587L181.403 110.64ZM181.052 111.368L144.16 134.92L143.5 135.342L144.16 135.763L181.054 159.317L181.323 159.488L181.592 159.317L218.485 135.765L219.145 135.343L218.485 134.922L181.59 111.368L181.322 111.196L181.052 111.368Z" fill="white" stroke="#3179B4"/>
<path d="M219.702 135.091L219.703 135.092L258.397 159.794L219.623 184.55L180.846 159.792L219.621 135.039L219.702 135.091ZM219.352 135.819L182.458 159.371L181.798 159.793L182.458 160.214L219.354 183.769L219.623 183.941L219.892 183.769L256.785 160.216L257.445 159.794L256.785 159.373L219.89 135.819L219.622 135.647L219.352 135.819Z" fill="white" stroke="#3179B4"/>
<path d="M258.002 159.542L258.003 159.543L296.698 184.245L257.923 209L257.841 208.948L219.146 184.245L257.921 159.49L258.002 159.542ZM257.653 160.271L220.759 183.824L220.099 184.245L220.759 184.667L257.654 208.221L257.923 208.393L258.192 208.221L295.084 184.667L295.745 184.245L295.084 183.824L258.191 160.271L257.921 160.099L257.653 160.271Z" fill="white" stroke="#3179B4"/>
<path d="M296.303 183.993L296.304 183.994L334.997 208.697L296.224 233.451L296.143 233.4H296.142L257.446 208.697L296.221 183.941L296.303 183.993ZM295.952 184.722L259.06 208.276L258.399 208.697L259.06 209.118L295.954 232.671L296.223 232.843L296.492 232.671L333.385 209.118L334.045 208.697L333.385 208.276L296.49 184.722L296.222 184.55L295.952 184.722Z" fill="white" stroke="#3179B4"/>
<path d="M373.295 233.149L334.52 257.904L295.746 233.148L334.52 208.392L373.295 233.149ZM334.251 209.173L297.359 232.727L296.699 233.148L297.359 233.57L334.251 257.123L334.521 257.295L334.79 257.124L371.683 233.571L372.343 233.15L371.683 232.728L334.79 209.173L334.521 209.002L334.251 209.173Z" fill="white" stroke="#3179B4"/>
<path d="M372.9 232.897L372.901 232.898L411.595 257.6L372.82 282.354L372.739 282.302L334.044 257.598L372.819 232.845L372.9 232.897ZM372.551 233.626L335.657 257.177L334.997 257.599L335.657 258.02L372.552 281.575L372.821 281.746L373.09 281.575L409.982 258.022L410.642 257.6L409.982 257.179L373.089 233.626L372.819 233.454L372.551 233.626Z" fill="white" stroke="#3179B4"/>
<path d="M411.2 257.349L411.201 257.35L449.895 282.052L411.12 306.808L372.344 282.05L411.118 257.296L411.2 257.349ZM410.85 258.077L373.957 281.629L373.297 282.051L373.957 282.472L410.852 306.027L411.12 306.199L411.39 306.027L448.282 282.474L448.942 282.052L448.282 281.631L411.388 258.077L411.119 257.905L410.85 258.077Z" fill="white" stroke="#3179B4"/>
<path d="M449.499 281.8L449.5 281.801L488.195 306.503L449.421 331.258L449.34 331.206H449.339L410.644 306.503L449.418 281.748L449.499 281.8ZM449.15 282.529L412.257 306.082L411.597 306.503L412.257 306.925L449.152 330.479L449.42 330.65L449.69 330.478L486.582 306.925L487.242 306.503L486.582 306.082L449.688 282.529L449.419 282.357L449.15 282.529Z" fill="white" stroke="#3179B4"/>
<path d="M487.8 306.251H487.801L526.495 330.954L487.721 355.709L487.639 355.658L448.943 330.954L487.719 306.2L487.8 306.251ZM487.45 306.98L450.557 330.534L449.896 330.954L450.557 331.376L487.451 354.93L487.721 355.101L487.989 354.929L524.882 331.376L525.542 330.954L524.882 330.534L487.988 306.98L487.719 306.808L487.45 306.98Z" fill="white" stroke="#3179B4"/>
<path d="M104.804 110.638L104.805 110.639L143.5 135.342L104.724 160.096L104.643 160.045L65.9478 135.342L104.723 110.587L104.804 110.638ZM104.455 111.367L67.561 134.921L66.9009 135.342L67.561 135.763L104.456 159.317L104.725 159.488L104.994 159.317L141.886 135.763L142.546 135.342L141.886 134.921L104.993 111.367L104.723 111.195L104.455 111.367Z" fill="white" stroke="#3179B4"/>
<path d="M143.104 135.09L143.105 135.091L181.798 159.793L143.024 184.549L142.943 184.497V184.496L104.247 159.793L143.022 135.037L143.104 135.09ZM142.753 135.818L105.861 159.372L105.2 159.793L105.861 160.215L142.755 183.768L143.024 183.94L143.293 183.768L180.186 160.215L180.846 159.793L180.186 159.372L143.291 135.818L143.023 135.646L142.753 135.818Z" fill="white" stroke="#3179B4"/>
<path d="M220.098 184.245L181.325 208.999L181.244 208.947H181.243L142.548 184.244L181.322 159.488L220.098 184.245ZM181.053 160.269L144.161 183.823L143.501 184.244L144.161 184.666L181.055 208.22L181.324 208.391L181.594 208.22L218.486 184.667L219.146 184.246L218.486 183.824L181.592 160.269L181.323 160.098L181.053 160.269Z" fill="white" stroke="#3179B4"/>
<path d="M219.703 183.993L219.704 183.994L258.398 208.697L219.623 233.452L180.847 208.695L219.622 183.942L219.703 183.993ZM219.354 184.722L182.46 208.274L181.8 208.696L182.46 209.116L219.354 232.671L219.624 232.843L219.893 232.671L256.785 209.118L257.445 208.697L256.785 208.276L219.892 184.722L219.622 184.55L219.354 184.722Z" fill="white" stroke="#3179B4"/>
<path d="M258.003 208.445H258.004L296.699 233.148L257.924 257.903L257.843 257.851H257.842L219.147 233.148L257.922 208.393L258.003 208.445ZM257.654 209.173L220.76 232.727L220.1 233.148L220.76 233.57L257.655 257.124L257.923 257.295L258.193 257.123L295.085 233.57L295.746 233.148L295.085 232.727L258.192 209.173L257.922 209.002L257.654 209.173Z" fill="white" stroke="#3179B4"/>
<path d="M334.997 257.599L296.221 282.355L257.447 257.599L296.221 232.843L334.997 257.599ZM295.953 233.624L259.06 257.178L258.4 257.599L259.06 258.021L295.953 281.575L296.222 281.746L296.491 281.575L333.384 258.021L334.044 257.599L333.384 257.178L296.491 233.624L296.222 233.453L295.953 233.624Z" fill="white" stroke="#3179B4"/>
<path d="M334.601 257.347L334.602 257.348L373.296 282.05L334.522 306.805L334.441 306.753H334.44L295.746 282.05L334.52 257.295L334.601 257.347ZM334.251 258.076L297.359 281.629L296.699 282.05L297.359 282.472L334.253 306.026L334.522 306.198L334.792 306.026L371.684 282.472L372.344 282.05L371.684 281.629L334.79 258.076L334.521 257.904L334.251 258.076Z" fill="white" stroke="#3179B4"/>
<path d="M411.597 306.503L372.822 331.257L372.74 331.205L334.045 306.502L372.82 281.746L411.597 306.503ZM372.552 282.527L335.658 306.081L334.998 306.502L335.658 306.924L372.553 330.476L372.822 330.648L373.091 330.477L409.983 306.925L410.644 306.504L409.983 306.082L373.09 282.527L372.82 282.355L372.552 282.527Z" fill="white" stroke="#3179B4"/>
<path d="M411.201 306.251H411.202L449.896 330.954L411.121 355.71L372.345 330.953L411.119 306.199L411.201 306.251ZM410.851 306.98L373.958 330.532L373.298 330.953L373.958 331.374L410.853 354.929L411.121 355.101L411.391 354.929L448.283 331.376L448.944 330.954L448.283 330.534L411.389 306.98L411.12 306.808L410.851 306.98Z" fill="white" stroke="#3179B4"/>
<path d="M449.501 330.702L449.502 330.703L488.196 355.406L449.422 380.161L449.341 380.11V380.109L410.645 355.406L449.42 330.651L449.501 330.702ZM449.151 331.431L412.259 354.985L411.598 355.406L412.259 355.827L449.153 379.381L449.422 379.553L449.691 379.381L486.584 355.827L487.244 355.406L486.584 354.985L449.689 331.431L449.421 331.259L449.151 331.431Z" fill="white" stroke="#3179B4"/>
<path d="M487.801 355.154L487.802 355.155L526.496 379.857L487.721 404.612L487.639 404.56L448.944 379.857L487.719 355.102L487.801 355.154ZM487.451 355.882L450.557 379.436L449.897 379.857L450.557 380.279L487.452 403.833L487.721 404.004L487.99 403.833L524.883 380.279L525.543 379.857L524.883 379.436L487.989 355.882L487.719 355.71L487.451 355.882Z" fill="white" stroke="#3179B4"/>
<path d="M104.805 159.541L104.806 159.542L143.501 184.244L104.726 208.999L104.644 208.947L65.949 184.244L104.724 159.489L104.805 159.541ZM104.456 160.269L67.5623 183.823L66.9021 184.244L67.5623 184.666L104.457 208.22L104.726 208.391L104.995 208.22L141.887 184.666L142.548 184.244L141.887 183.823L104.994 160.269L104.724 160.098L104.456 160.269Z" fill="white" stroke="#3179B4"/>
<path d="M143.105 183.992L143.106 183.993L181.8 208.695L143.026 233.45L142.945 233.399H142.944L104.249 208.695L143.023 183.94L143.105 183.992ZM142.755 184.721L105.862 208.275L105.202 208.695L105.862 209.117L142.757 232.671L143.025 232.843L143.295 232.671L180.187 209.117L180.847 208.695L180.187 208.275L143.293 184.721L143.024 184.549L142.755 184.721Z" fill="white" stroke="#3179B4"/>
<path d="M220.1 233.148L181.326 257.902L181.245 257.85H181.244L142.549 233.147L181.323 208.391L220.1 233.148ZM181.055 209.172L144.162 232.726L143.502 233.147L144.162 233.569L181.057 257.121L181.325 257.293L181.595 257.122L218.487 233.57L219.147 233.149L218.487 232.727L181.593 209.172L181.324 209L181.055 209.172Z" fill="white" stroke="#3179B4"/>
<path d="M219.705 232.896L219.706 232.897L258.4 257.599L219.625 282.353L219.544 282.301L180.848 257.598L219.624 232.844L219.705 232.896ZM219.355 233.624L182.462 257.177L181.802 257.598L182.462 258.02L219.356 281.574L219.626 281.745L219.894 281.574L256.787 258.021L257.447 257.599L256.787 257.178L219.893 233.624L219.624 233.453L219.355 233.624Z" fill="white" stroke="#3179B4"/>
<path d="M296.699 282.05L257.925 306.806L219.148 282.048L257.923 257.294L296.699 282.05ZM257.654 258.076L220.761 281.627L220.101 282.049L220.761 282.47L257.656 306.026L257.925 306.198L258.194 306.026L295.086 282.472L295.746 282.05L295.086 281.629L258.192 258.076L257.924 257.904L257.654 258.076Z" fill="white" stroke="#3179B4"/>
<path d="M296.304 281.799V281.8L334.998 306.502L296.223 331.258L257.448 306.502L296.222 281.746L296.304 281.799ZM295.953 282.527L259.062 306.081L258.401 306.502L259.062 306.924L295.954 330.476L296.224 330.648L296.492 330.476L333.386 306.924L334.046 306.502L333.386 306.081L296.491 282.527L296.223 282.355L295.953 282.527Z" fill="white" stroke="#3179B4"/>
<path d="M334.603 306.25H334.604L373.298 330.953L334.524 355.708L334.442 355.656L295.746 330.953L334.522 306.198L334.603 306.25ZM334.253 306.979L297.36 330.532L296.699 330.953L297.36 331.375L334.254 354.929L334.524 355.1L334.792 354.928L371.685 331.375L372.345 330.953L371.685 330.532L334.791 306.979L334.522 306.807L334.253 306.979Z" fill="white" stroke="#3179B4"/>
<path d="M411.599 355.405L372.823 380.16L372.742 380.108V380.107L334.047 355.404L372.822 330.648L411.599 355.405ZM372.554 331.429L335.66 354.983L335 355.404L335.66 355.826L372.555 379.38L372.823 379.552L373.093 379.38L409.985 355.827L410.646 355.406L409.985 354.984L373.092 331.429L372.822 331.258L372.554 331.429Z" fill="white" stroke="#3179B4"/>
<path d="M411.203 355.154L411.204 355.155L449.897 379.857L411.124 404.611L411.042 404.559L411.042 404.558L372.346 379.855L411.121 355.101L411.203 355.154ZM410.852 355.882L373.959 379.434L373.299 379.856L373.959 380.277L410.854 403.832L411.123 404.002L411.392 403.832L448.285 380.279L448.945 379.857L448.285 379.436L411.39 355.882L411.122 355.71L410.852 355.882Z" fill="white" stroke="#3179B4"/>
<path d="M449.502 379.605L449.503 379.606L488.197 404.308L449.422 429.064L410.645 404.306L449.421 379.553L449.502 379.605ZM449.152 380.333L412.259 403.885L411.598 404.307L412.259 404.728L449.153 428.283L449.423 428.455L449.691 428.283L486.584 404.73L487.244 404.308L486.584 403.887L449.69 380.333L449.421 380.162L449.152 380.333Z" fill="white" stroke="#3179B4"/>
<path d="M487.802 404.057H487.803L526.497 428.76L487.723 453.515L487.642 453.463H487.641L448.945 428.76L487.721 404.005L487.802 404.057ZM487.452 404.785L450.559 428.339L449.898 428.76L450.559 429.182L487.453 452.734L487.722 452.906L487.991 452.734L524.884 429.182L525.544 428.76L524.884 428.339L487.99 404.785L487.721 404.613L487.452 404.785Z" fill="white" stroke="#3179B4"/>
<path d="M104.807 208.444L104.808 208.445L143.502 233.147L104.727 257.903L65.9504 233.145L104.726 208.392L104.807 208.444ZM104.457 209.172L67.5637 232.724L66.9036 233.146L67.5637 233.567L104.458 257.121L104.727 257.293L104.996 257.121L141.889 233.569L142.549 233.147L141.889 232.726L104.995 209.172L104.726 209L104.457 209.172Z" fill="white" stroke="#3179B4"/>
<path d="M143.107 232.895H143.108L181.801 257.598L143.028 282.353L142.947 282.301H142.946L104.25 257.598L143.025 232.842L143.107 232.895ZM142.756 233.624L105.864 257.177L105.203 257.598L105.864 258.02L142.758 281.573L143.027 281.745L143.296 281.573L180.189 258.02L180.849 257.598L180.189 257.177L143.294 233.624L143.026 233.452L142.756 233.624Z" fill="white" stroke="#3179B4"/>
<path d="M181.405 257.346L181.406 257.347L220.101 282.049L181.326 306.804L181.245 306.752H181.244L142.55 282.049L181.324 257.294L181.405 257.346ZM181.056 258.074L144.163 281.628L143.503 282.049L144.163 282.471L181.058 306.024L181.326 306.196L181.596 306.024L218.488 282.471L219.148 282.049L218.488 281.628L181.594 258.074L181.325 257.902L181.056 258.074Z" fill="white" stroke="#3179B4"/>
<path d="M258.401 306.501L219.627 331.255L219.546 331.203H219.545L180.85 306.5L219.625 281.745L258.401 306.501ZM219.356 282.526L182.463 306.079L181.803 306.5L182.463 306.922L219.357 330.476L219.626 330.648L219.896 330.476L256.788 306.923L257.448 306.502L256.788 306.08L219.895 282.526L219.625 282.354L219.356 282.526Z" fill="white" stroke="#3179B4"/>
<path d="M296.7 330.953L257.924 355.708L219.149 330.951L257.924 306.197L296.7 330.953ZM257.655 306.979L220.763 330.53L220.103 330.952L220.763 331.373L257.655 354.927L257.925 355.099L258.193 354.927L295.087 331.375L295.747 330.953L295.087 330.532L258.193 306.979L257.925 306.807L257.655 306.979Z" fill="white" stroke="#3179B4"/>
<path d="M296.304 330.701L296.305 330.702L334.999 355.404L296.225 380.16L257.448 355.403L296.223 330.649L296.304 330.701ZM295.954 331.429L259.062 354.982L258.401 355.403L259.062 355.825L295.956 379.38L296.225 379.552L296.494 379.38L333.387 355.826L334.047 355.404L333.387 354.983L296.492 331.429L296.224 331.258L295.954 331.429Z" fill="white" stroke="#3179B4"/>
<path d="M334.604 355.152L334.605 355.153L373.3 379.855L334.525 404.61L334.443 404.558L295.748 379.855L334.523 355.1L334.604 355.152ZM334.255 355.881L297.361 379.434L296.701 379.855L297.361 380.277L334.256 403.831L334.525 404.003L334.794 403.831L371.687 380.277L372.347 379.855L371.687 379.434L334.793 355.881L334.523 355.709L334.255 355.881Z" fill="white" stroke="#3179B4"/>
<path d="M372.904 379.604L372.905 379.605L411.599 404.307L372.825 429.062L372.744 429.01H372.743L334.048 404.307L372.822 379.551L372.904 379.604ZM372.553 380.332L335.661 403.886L335.001 404.307L335.661 404.729L372.555 428.281L372.824 428.453L373.094 428.281L409.986 404.729L410.646 404.307L409.986 403.886L373.092 380.332L372.823 380.16L372.553 380.332Z" fill="white" stroke="#3179B4"/>
<path d="M449.898 428.759L411.125 453.513L411.044 453.462H411.043L372.347 428.758L411.122 404.003L449.898 428.759ZM410.853 404.784L373.961 428.338L373.301 428.758L373.961 429.18L410.855 452.733L411.124 452.905L411.393 452.734L448.286 429.181L448.946 428.76L448.286 428.339L411.391 404.784L411.123 404.612L410.853 404.784Z" fill="white" stroke="#3179B4"/>
<path d="M104.808 257.346L104.809 257.347L143.503 282.049L104.728 306.805L65.9517 282.047L104.726 257.293L104.808 257.346ZM104.458 258.074L67.5649 281.626L66.9048 282.048L67.5649 282.469L104.459 306.024L104.728 306.196L104.998 306.024L141.89 282.471L142.55 282.049L141.89 281.628L104.996 258.074L104.727 257.902L104.458 258.074Z" fill="white" stroke="#3179B4"/>
<path d="M143.107 281.797L143.108 281.798L181.802 306.5L143.029 331.255L142.948 331.203H142.947L104.251 306.5L143.026 281.745L143.107 281.797ZM142.757 282.526L105.865 306.079L105.205 306.5L105.865 306.922L142.759 330.476L143.028 330.648L143.297 330.476L180.19 306.922L180.85 306.5L180.19 306.079L143.295 282.526L143.027 282.354L142.757 282.526Z" fill="white" stroke="#3179B4"/>
<path d="M181.407 306.249L181.408 306.25L220.102 330.952L181.328 355.707L181.246 355.655L142.551 330.952L181.326 306.197L181.407 306.249ZM181.057 306.977L144.164 330.531L143.504 330.952L144.164 331.374L181.058 354.927L181.328 355.098L181.596 354.927L218.489 331.374L219.149 330.952L218.489 330.531L181.595 306.977L181.326 306.805L181.057 306.977Z" fill="white" stroke="#3179B4"/>
<path d="M258.402 355.403L219.625 380.159L180.851 355.403L219.625 330.647L258.402 355.403ZM219.357 331.429L182.464 354.982L181.804 355.403L182.464 355.825L219.357 379.379L219.626 379.55L219.895 379.379L256.789 355.825L257.449 355.403L256.789 354.982L219.895 331.429L219.626 331.257L219.357 331.429Z" fill="white" stroke="#3179B4"/>
<path d="M296.701 379.855L257.926 404.61L257.845 404.558V404.557L219.149 379.854L257.924 355.098L296.701 379.855ZM257.655 355.879L220.763 379.433L220.103 379.854L220.763 380.276L257.657 403.83L257.926 404.001L258.195 403.83L295.088 380.277L295.748 379.856L295.088 379.434L258.193 355.879L257.925 355.708L257.655 355.879Z" fill="white" stroke="#3179B4"/>
<path d="M296.305 379.604L296.306 379.605L335 404.307L296.226 429.063L257.449 404.305L296.224 379.552L296.305 379.604ZM295.955 380.332L259.063 403.884L258.403 404.306L259.063 404.727L295.957 428.281L296.226 428.453L296.495 428.281L333.388 404.729L334.048 404.307L333.388 403.886L296.493 380.332L296.225 380.16L295.955 380.332Z" fill="white" stroke="#3179B4"/>
<path d="M334.606 404.055H334.607L373.301 428.758L334.527 453.513L334.446 453.461H334.445L295.749 428.758L334.525 404.003L334.606 404.055ZM334.256 404.784L297.363 428.337L296.702 428.758L297.363 429.18L334.257 452.733L334.526 452.905L334.795 452.733L371.688 429.18L372.348 428.758L371.688 428.337L334.794 404.784L334.525 404.612L334.256 404.784Z" fill="white" stroke="#3179B4"/>
<path d="M104.809 306.249L104.81 306.25L143.504 330.952L104.73 355.706L104.649 355.654L104.648 355.653L65.9526 330.95L104.727 306.196L104.809 306.249ZM104.458 306.977L67.5659 330.529L66.9058 330.951L67.5659 331.372L104.46 354.926L104.729 355.097L104.999 354.926L141.891 331.374L142.551 330.952L141.891 330.531L104.997 306.977L104.728 306.805L104.458 306.977Z" fill="white" stroke="#3179B4"/>
<path d="M143.109 330.7L181.803 355.403L143.029 380.159L104.253 355.401L143.027 330.647L143.109 330.7ZM142.759 331.429L105.866 354.98L105.206 355.402L105.866 355.823L142.76 379.378L143.029 379.55L143.299 379.379L180.191 355.825L180.851 355.403L180.191 354.982L143.297 331.429L143.028 331.257L142.759 331.429Z" fill="white" stroke="#3179B4"/>
<path d="M220.103 379.854L181.329 404.609L181.248 404.557L142.552 379.854L181.328 355.098L220.103 379.854ZM181.059 355.879L144.166 379.433L143.505 379.854L144.166 380.276L181.06 403.83L181.33 404.001L181.598 403.83L218.49 380.276L219.15 379.854L218.49 379.433L181.597 355.879L181.328 355.708L181.059 355.879Z" fill="white" stroke="#3179B4"/>
<path d="M219.708 379.602V379.603L258.403 404.306L219.627 429.061L180.852 404.306L219.626 379.55L219.708 379.602ZM219.357 380.331L182.466 403.885L181.805 404.306L182.466 404.727L219.358 428.281L219.628 428.453L219.896 428.281L256.79 404.727L257.45 404.306L256.79 403.885L219.895 380.331L219.627 380.159L219.357 380.331Z" fill="white" stroke="#3179B4"/>
<path d="M296.702 428.758L257.928 453.512L257.847 453.46H257.846L219.151 428.757L257.926 404.001L296.702 428.758ZM257.657 404.782L220.764 428.336L220.104 428.757L220.764 429.179L257.659 452.731L257.927 452.903L258.197 452.732L295.09 429.18L295.75 428.759L295.09 428.337L258.195 404.782L257.927 404.61L257.657 404.782Z" fill="white" stroke="#3179B4"/>
<path d="M143.506 379.854L104.73 404.609L104.649 404.557V404.556L65.9539 379.853L104.728 355.097L143.506 379.854ZM104.46 355.878L67.5671 379.432L66.907 379.853L67.5671 380.275L104.462 403.828L104.73 404L105 403.828L141.892 380.276L142.552 379.855L141.892 379.433L104.998 355.878L104.729 355.706L104.46 355.878Z" fill="white" stroke="#3179B4"/>
<path d="M143.11 379.602L143.111 379.603L181.805 404.306L143.031 429.059L142.949 429.008L142.948 429.007L104.254 404.304L143.029 379.551L143.11 379.602ZM142.76 380.331L105.867 403.883L105.207 404.305L105.867 404.725L142.762 428.28L143.031 428.451L143.3 428.28L180.193 404.727L180.853 404.306L180.193 403.885L143.298 380.331L143.03 380.159L142.76 380.331Z" fill="white" stroke="#3179B4"/>
<path d="M220.104 428.757L181.329 453.513L142.553 428.755L181.329 404.001L220.104 428.757ZM181.06 404.782L144.167 428.334L143.507 428.756L144.167 429.177L181.06 452.731L181.329 452.903L181.598 452.731L218.491 429.179L219.151 428.757L218.491 428.336L181.598 404.782L181.329 404.61L181.06 404.782Z" fill="white" stroke="#3179B4"/>
<path d="M104.812 404.052L104.813 404.053L143.506 428.755L104.733 453.51L104.652 453.458H104.651L65.9553 428.755L104.73 404L104.812 404.052ZM104.461 404.781L67.5686 428.334L66.9084 428.755L67.5686 429.177L104.463 452.73L104.732 452.902L105.001 452.73L141.894 429.177L142.554 428.755L141.894 428.334L104.999 404.781L104.731 404.609L104.461 404.781Z" fill="white" stroke="#3179B4"/>
</g>
<path d="M300.051 295.434C301.885 295.35 303.624 295.717 304.86 296.506L378.388 343.448C379.608 344.227 380.071 345.238 379.96 346.226C379.853 347.179 379.199 348.233 377.902 349.137L377.633 349.317L299.7 399.201C298.229 400.14 296.362 400.67 294.534 400.754C292.815 400.832 291.179 400.515 289.963 399.825L289.726 399.682L216.197 352.739C214.977 351.96 214.514 350.949 214.625 349.961C214.74 348.944 215.476 347.813 216.952 346.871H216.953L294.884 296.986C296.355 296.047 298.223 295.518 300.051 295.434Z" fill="#7BB8E9" stroke="#3179B4"/>
<path d="M300.049 274.048C302.259 273.964 304.382 274.432 305.949 275.433L379.479 322.375V322.376C381.2 323.475 382.156 325.147 382.156 326.957C382.156 328.999 380.946 331.001 378.724 332.418L378.723 332.419L300.792 382.301C298.852 383.54 296.397 384.18 294.033 384.18C292.004 384.18 290.083 383.708 288.637 382.785L215.107 335.842C213.386 334.742 212.43 333.07 212.43 331.262C212.43 329.347 213.494 327.467 215.457 326.071L215.861 325.798L293.792 275.917L293.793 275.917C295.594 274.767 297.842 274.132 300.049 274.048ZM304.309 278.765C303.178 278.043 301.581 277.773 299.993 277.865C298.397 277.957 296.732 278.42 295.437 279.248H295.436L217.505 329.128C216.919 329.502 216.503 329.89 216.228 330.245C215.969 330.577 215.788 330.942 215.788 331.262C215.788 331.529 215.936 331.768 216.079 331.941C216.238 332.133 216.463 332.328 216.749 332.51L290.278 379.454C291.409 380.175 293.005 380.445 294.593 380.353C296.188 380.26 297.854 379.799 299.149 378.971L299.15 378.97L377.08 329.087C377.666 328.714 378.082 328.326 378.357 327.972C378.616 327.64 378.798 327.277 378.798 326.957C378.798 326.689 378.65 326.449 378.507 326.277C378.348 326.085 378.123 325.891 377.838 325.708V325.708L304.308 278.765H304.309Z" fill="white" stroke="#3179B4"/>
<path d="M380.098 99.1255C380.849 100.92 381.303 102.894 381.303 104.725V303.229C381.303 305.45 380.646 306.868 379.776 307.475L379.637 307.571C379.634 307.573 379.632 307.575 379.629 307.577C379.624 307.58 379.618 307.584 379.615 307.585C379.608 307.59 379.611 307.588 379.616 307.585L379.601 307.595L294.85 361.648L230.747 159.772C242.834 158.739 258.682 157.192 271.591 155.893C278.157 155.232 283.963 154.637 288.128 154.206C290.211 153.99 291.883 153.816 293.034 153.696C293.61 153.636 294.055 153.589 294.357 153.557C294.507 153.541 294.622 153.529 294.699 153.521C294.738 153.517 294.768 153.513 294.787 153.511C294.797 153.51 294.804 153.51 294.809 153.509C294.811 153.509 294.813 153.508 294.815 153.508H294.816H294.817L294.934 153.497L295.033 153.433L380.098 99.1255Z" fill="#4C7698" stroke="#3179B4"/>
<path d="M298.349 45.7722C299.06 45.3353 300.041 45.3302 301.236 46.0935L376.251 93.9861H376.252C377.547 94.8134 378.763 96.3431 379.682 98.2029L241.995 186.106L238.374 183.795L216.961 116.353L213.014 100.208L298.326 45.7859L298.349 45.7722Z" fill="#D9DFE6" stroke="#3179B4"/>
<path d="M212.51 100.543C213.252 99.9233 214.323 99.8326 215.656 100.684L290.672 148.576C292.023 149.439 293.291 151.064 294.223 153.034C295.153 154.998 295.722 157.25 295.722 159.315V357.819C295.722 359.902 295.147 361.293 294.355 361.955C293.614 362.575 292.542 362.664 291.21 361.813L216.194 313.922C214.843 313.059 213.574 311.434 212.641 309.464C211.712 307.5 211.142 305.248 211.142 303.183V104.678C211.142 102.595 211.718 101.205 212.51 100.543Z" fill="#25669C" stroke="#3179B4"/>
<path d="M215.233 99.0765C215.8 99.0212 216.486 99.1899 217.264 99.6859L292.279 147.578C293.631 148.442 294.899 150.066 295.832 152.036C296.761 154 297.331 156.252 297.331 158.318V356.822C297.331 358.235 297.065 359.342 296.638 360.113C296.546 360.278 296.444 360.425 296.339 360.559C296.59 359.772 296.724 358.85 296.724 357.82V159.315C296.724 157.079 296.11 154.682 295.128 152.607C294.149 150.538 292.776 148.732 291.21 147.733L216.194 99.8412C215.709 99.5316 215.225 99.313 214.75 99.1879C214.906 99.1315 215.066 99.0928 215.233 99.0765Z" fill="white" stroke="#3179B4"/>
<path d="M217.698 110.741C218.32 110.222 219.225 110.135 220.374 110.869L285.951 152.735C287.119 153.481 288.221 154.89 289.033 156.606C289.843 158.316 290.338 160.275 290.338 162.07V346.425C290.338 348.238 289.837 349.43 289.165 349.992C288.544 350.511 287.639 350.598 286.49 349.864L220.912 307.998C219.744 307.252 218.643 305.843 217.83 304.127C217.021 302.417 216.526 300.458 216.526 298.663V114.307C216.526 112.495 217.027 111.303 217.698 110.741Z" fill="url(#paint0_linear_234_4676)" stroke="#3179B4"/>
<path d="M217.698 110.741C218.32 110.222 219.225 110.135 220.374 110.869L285.951 152.735C287.119 153.481 288.221 154.89 289.033 156.606C289.843 158.316 290.338 160.275 290.338 162.07V346.425C290.338 348.238 289.837 349.43 289.165 349.992C288.544 350.511 287.639 350.598 286.49 349.864L220.912 307.998C219.744 307.252 218.643 305.843 217.83 304.127C217.021 302.417 216.526 300.458 216.526 298.663V114.307C216.526 112.495 217.027 111.303 217.698 110.741Z" fill="url(#paint1_linear_234_4676)" stroke="#3179B4"/>
<path d="M217.698 110.741C218.32 110.222 219.225 110.135 220.374 110.869L285.951 152.735C287.119 153.481 288.221 154.89 289.033 156.606C289.843 158.316 290.338 160.275 290.338 162.07V346.425C290.338 348.238 289.837 349.43 289.165 349.992C288.544 350.511 287.639 350.598 286.49 349.864L220.912 307.998C219.744 307.252 218.643 305.843 217.83 304.127C217.021 302.417 216.526 300.458 216.526 298.663V114.307C216.526 112.495 217.027 111.303 217.698 110.741Z" fill="#212121" stroke="#3179B4"/>
<path d="M217.998 110.538C217.784 111.223 217.668 112.021 217.668 112.914V297.268C217.668 299.233 218.207 301.338 219.069 303.16C219.927 304.975 221.135 306.564 222.517 307.446L288.094 349.313C288.494 349.569 288.896 349.752 289.29 349.866C289.028 350.128 288.733 350.288 288.42 350.356C287.907 350.468 287.254 350.352 286.49 349.864L220.912 307.998C219.744 307.252 218.643 305.843 217.83 304.127C217.021 302.417 216.526 300.458 216.526 298.663V114.307C216.526 112.962 216.803 111.945 217.23 111.283C217.451 110.94 217.71 110.694 217.998 110.538Z" fill="#4C7698" stroke="#3179B4"/>
<path d="M285.953 266.066C287.121 266.812 288.223 268.221 289.035 269.938C289.844 271.647 290.339 273.606 290.339 275.401V317.317L223.901 274.902L261.846 250.677L285.953 266.066Z" fill="#212121" stroke="#3179B4"/>
<path d="M285.953 228.289C287.121 229.035 288.223 230.444 289.035 232.16C289.844 233.87 290.339 235.829 290.339 237.624V279.54L223.901 237.125L261.846 212.9L285.953 228.289Z" fill="#212121" stroke="#3179B4"/>
<path d="M285.953 190.512C287.121 191.258 288.223 192.667 289.035 194.383C289.844 196.093 290.339 198.052 290.339 199.847V241.763L223.901 199.348L261.846 175.123L285.953 190.512Z" fill="#212121" stroke="#3179B4"/>
<path d="M285.953 152.735C287.121 153.481 288.223 154.89 289.035 156.606C289.844 158.316 290.339 160.275 290.339 162.07V203.986L223.901 161.571L261.846 137.345L285.953 152.735Z" fill="#212121" stroke="#3179B4"/>
<path d="M285.953 152.735C287.121 153.481 288.223 154.89 289.035 156.606C289.844 158.315 290.339 160.275 290.339 162.07V166.208L223.901 123.794L232.261 118.457L285.953 152.735Z" fill="#212121" stroke="#3179B4"/>
<path d="M290.339 167.395V190.086L223.472 147.396V124.707L290.339 167.395Z" fill="#25669C" stroke="#3179B4"/>
<path d="M290.339 205.172V227.863L223.472 185.173V162.484L290.339 205.172Z" fill="#25669C" stroke="#3179B4"/>
<path d="M290.339 242.949V265.639L223.472 222.95V200.261L290.339 242.949Z" fill="#25669C" stroke="#3179B4"/>
<path d="M290.339 280.727V303.417L223.472 260.728V238.038L290.339 280.727Z" fill="#25669C" stroke="#3179B4"/>
<path d="M290.339 318.504V341.194L223.472 298.505V275.815L290.339 318.504Z" fill="#25669C" stroke="#3179B4"/>
<path d="M232.208 136.087C232.467 135.871 232.871 135.796 233.467 136.176L284.584 168.811C285.199 169.203 285.8 169.962 286.249 170.912C286.696 171.855 286.967 172.932 286.967 173.911V180.305C286.967 181.302 286.69 181.899 286.381 182.158C286.123 182.374 285.718 182.449 285.122 182.069L234.005 149.433C233.391 149.041 232.79 148.282 232.34 147.333C231.894 146.39 231.622 145.313 231.622 144.334V137.939L231.635 137.584C231.692 136.798 231.938 136.313 232.208 136.087Z" fill="#212121" stroke="#3179B4"/>
<g opacity="0.3">
<path d="M232.208 136.086C232.434 135.897 232.772 135.817 233.252 136.054C233.224 136.259 233.206 136.478 233.206 136.715V143.109C233.206 144.258 233.52 145.481 234.02 146.537C234.516 147.585 235.221 148.523 236.05 149.052L286.794 181.448C286.65 181.891 286.435 182.141 286.225 182.251C285.99 182.374 285.628 182.391 285.122 182.068L234.005 149.434C233.39 149.041 232.79 148.282 232.34 147.333C231.894 146.39 231.622 145.312 231.622 144.333V137.939L231.635 137.584C231.692 136.799 231.938 136.313 232.208 136.086Z" fill="black" stroke="#3179B4"/>
</g>
<path d="M237.783 143.037V143.036L268.544 162.674C268.691 162.768 268.868 162.977 269.011 163.279C269.151 163.574 269.232 163.907 269.232 164.196C269.232 164.339 269.212 164.443 269.188 164.511C269.176 164.545 269.164 164.566 269.155 164.58C269.139 164.574 269.115 164.564 269.082 164.543L238.321 144.904C238.174 144.81 237.997 144.602 237.854 144.299C237.714 144.004 237.633 143.672 237.633 143.383C237.633 143.24 237.653 143.137 237.677 143.068C237.689 143.034 237.7 143.012 237.709 142.999C237.725 143.004 237.75 143.015 237.783 143.037Z" fill="white" stroke="#3179B4"/>
<path d="M232.208 173.632C232.467 173.416 232.871 173.34 233.467 173.721L284.584 206.355C285.199 206.748 285.8 207.506 286.249 208.456C286.696 209.399 286.967 210.476 286.967 211.455V217.849C286.967 218.846 286.69 219.444 286.381 219.702C286.123 219.918 285.718 219.992 285.122 219.612L234.005 186.977C233.391 186.585 232.79 185.827 232.34 184.877C231.894 183.934 231.622 182.857 231.622 181.878V175.483C231.622 174.487 231.899 173.89 232.208 173.632Z" fill="#212121" stroke="#3179B4"/>
<g opacity="0.3">
<path d="M232.208 173.63C232.434 173.441 232.772 173.361 233.252 173.598C233.224 173.803 233.206 174.022 233.206 174.259V180.653C233.206 181.802 233.52 183.025 234.02 184.081C234.516 185.129 235.221 186.067 236.05 186.596L286.794 218.992C286.65 219.435 286.434 219.686 286.224 219.796C285.989 219.919 285.628 219.936 285.122 219.613L234.005 186.977C233.39 186.584 232.79 185.826 232.34 184.876C231.894 183.934 231.622 182.856 231.622 181.877V175.483C231.622 174.486 231.899 173.889 232.208 173.63Z" fill="black" stroke="#3179B4"/>
</g>
<path d="M237.783 180.581V180.58L268.544 200.219C268.691 200.313 268.868 200.522 269.011 200.824C269.15 201.119 269.232 201.451 269.232 201.74C269.232 201.883 269.212 201.987 269.188 202.055C269.176 202.089 269.164 202.11 269.155 202.124C269.139 202.118 269.115 202.107 269.082 202.086L238.321 182.448C238.174 182.354 237.996 182.145 237.854 181.843C237.714 181.548 237.633 181.216 237.633 180.927C237.633 180.784 237.653 180.68 237.677 180.612C237.689 180.578 237.7 180.556 237.709 180.542C237.725 180.548 237.75 180.559 237.783 180.581Z" fill="white" stroke="#3179B4"/>
<path d="M232.208 211.525C232.467 211.309 232.871 211.234 233.467 211.614L284.584 244.249C285.199 244.641 285.8 245.399 286.249 246.349C286.696 247.292 286.967 248.369 286.967 249.348V255.743C286.967 256.739 286.69 257.337 286.381 257.595C286.123 257.811 285.718 257.886 285.122 257.506L234.005 224.871C233.391 224.478 232.79 223.72 232.34 222.77C231.894 221.827 231.622 220.75 231.622 219.771V213.377C231.622 212.381 231.899 211.784 232.208 211.525Z" fill="#212121" stroke="#3179B4"/>
<g opacity="0.3">
<path d="M232.208 211.524C232.434 211.335 232.772 211.254 233.252 211.492C233.224 211.697 233.206 211.916 233.206 212.153V218.547C233.206 219.696 233.52 220.919 234.02 221.974C234.516 223.023 235.221 223.961 236.05 224.49L286.794 256.885C286.65 257.329 286.435 257.579 286.225 257.689C285.99 257.812 285.628 257.829 285.122 257.506L234.005 224.871C233.39 224.478 232.79 223.72 232.34 222.77C231.894 221.827 231.622 220.75 231.622 219.771V213.377C231.622 212.38 231.899 211.783 232.208 211.524Z" fill="black" stroke="#3179B4"/>
</g>
<path d="M237.783 218.474L268.544 238.112C268.691 238.206 268.868 238.414 269.011 238.716C269.151 239.012 269.232 239.344 269.232 239.633C269.232 239.776 269.212 239.88 269.188 239.949C269.176 239.982 269.164 240.004 269.155 240.017C269.139 240.011 269.115 240.001 269.082 239.98L238.321 220.341C238.174 220.248 237.997 220.039 237.854 219.737C237.714 219.442 237.633 219.11 237.633 218.821C237.633 218.677 237.653 218.573 237.677 218.504C237.689 218.471 237.699 218.448 237.708 218.435C237.724 218.44 237.749 218.452 237.783 218.474Z" fill="#D6EBFF" stroke="#3179B4"/>
<path d="M232.208 249.768C232.467 249.552 232.871 249.478 233.467 249.858L284.584 282.493C285.199 282.885 285.8 283.643 286.249 284.593C286.696 285.536 286.967 286.613 286.967 287.592V293.987C286.967 294.983 286.69 295.58 286.381 295.838C286.123 296.054 285.718 296.13 285.122 295.749L234.005 263.115C233.391 262.722 232.79 261.964 232.34 261.014C231.894 260.071 231.622 258.994 231.622 258.015V251.62C231.622 250.624 231.899 250.026 232.208 249.768Z" fill="#212121" stroke="#3179B4"/>
<g opacity="0.3">
<path d="M232.208 249.768C232.434 249.579 232.772 249.498 233.252 249.735C233.224 249.94 233.206 250.159 233.206 250.397V256.79C233.206 257.939 233.52 259.163 234.02 260.218C234.516 261.266 235.221 262.204 236.05 262.734L286.794 295.129C286.65 295.572 286.435 295.823 286.225 295.933C285.99 296.056 285.628 296.072 285.122 295.749L234.005 263.114C233.39 262.722 232.79 261.964 232.34 261.014C231.894 260.071 231.622 258.994 231.622 258.015V251.62C231.622 250.624 231.899 250.026 232.208 249.768Z" fill="black" stroke="#3179B4"/>
</g>
<path d="M237.783 256.718L268.544 276.355C268.691 276.449 268.868 276.658 269.011 276.96C269.151 277.255 269.232 277.587 269.232 277.877C269.232 278.02 269.212 278.124 269.188 278.192C269.176 278.226 269.164 278.247 269.155 278.26C269.139 278.255 269.115 278.244 269.082 278.223L238.321 258.585C238.174 258.491 237.997 258.283 237.854 257.98C237.714 257.685 237.633 257.353 237.633 257.064C237.633 256.921 237.653 256.816 237.677 256.748C237.689 256.714 237.699 256.692 237.708 256.678C237.724 256.684 237.749 256.696 237.783 256.718Z" fill="white" stroke="#3179B4"/>
<mask id="path-105-inside-1_234_4676" fill="white">
<path d="M237.99 259.023L238.053 259.007C237.851 258.197 237.133 257.813 237.133 257.064C237.133 256.316 237.798 256.652 237.921 256.238L237.858 256.254C238.366 256.578 237.142 256.252 237.142 257.001C237.142 257.75 238.498 259.347 237.99 259.023Z"/>
</mask>
<path d="M237.99 259.023L238.053 259.007C237.851 258.197 237.133 257.813 237.133 257.064C237.133 256.316 237.798 256.652 237.921 256.238L237.858 256.254C238.366 256.578 237.142 256.252 237.142 257.001C237.142 257.75 238.498 259.347 237.99 259.023Z" fill="#6D6D6D"/>
<path d="M237.99 259.023L237.744 258.054L235.504 258.622L237.452 259.866L237.99 259.023ZM238.053 259.007L238.299 259.976L239.263 259.731L239.023 258.766L238.053 259.007ZM237.921 256.238L238.879 256.522L239.382 254.822L237.668 255.27L237.921 256.238ZM237.858 256.254L237.605 255.287L235.391 255.865L237.32 257.097L237.858 256.254ZM237.99 259.023L238.236 259.992L238.299 259.976L238.053 259.007L237.807 258.038L237.744 258.054L237.99 259.023ZM238.053 259.007L239.023 258.766C238.868 258.141 238.505 257.678 238.335 257.437C238.131 257.147 238.133 257.094 238.133 257.064H237.133H236.133C236.133 257.783 236.494 258.296 236.7 258.588C236.939 258.929 237.036 259.063 237.082 259.248L238.053 259.007ZM237.133 257.064H238.133C238.133 257.022 238.141 257.15 238.019 257.303C237.904 257.446 237.772 257.483 237.801 257.473C237.829 257.463 237.827 257.465 237.909 257.44C237.965 257.423 238.069 257.391 238.18 257.337C238.297 257.281 238.445 257.191 238.581 257.046C238.722 256.895 238.822 256.717 238.879 256.522L237.921 256.238L236.962 255.954C236.989 255.863 237.041 255.764 237.122 255.677C237.199 255.596 237.274 255.554 237.311 255.536C237.343 255.52 237.36 255.517 237.326 255.527C237.319 255.529 237.224 255.557 237.161 255.578C237.008 255.63 236.702 255.748 236.458 256.052C236.208 256.365 236.133 256.732 236.133 257.064H237.133ZM237.921 256.238L237.668 255.27L237.605 255.287L237.858 256.254L238.111 257.222L238.173 257.205L237.921 256.238ZM237.858 256.254L237.32 257.097C237.333 257.105 237.321 257.099 237.298 257.079C237.283 257.067 237.206 257.004 237.132 256.889C237.055 256.769 236.917 256.485 237.014 256.121C237.106 255.778 237.345 255.607 237.435 255.551C237.533 255.491 237.615 255.467 237.628 255.463C237.651 255.456 237.662 255.454 237.649 255.457C237.636 255.46 237.621 255.463 237.588 255.469C237.559 255.474 237.521 255.482 237.479 255.491C237.333 255.523 237.016 255.597 236.727 255.813C236.57 255.93 236.416 256.092 236.304 256.311C236.191 256.531 236.142 256.767 236.142 257.001H237.142H238.142C238.142 257.142 238.059 257.314 237.924 257.415C237.849 257.471 237.805 257.467 237.903 257.446C237.921 257.442 237.941 257.438 237.968 257.433C237.99 257.428 238.027 257.421 238.061 257.414C238.094 257.407 238.148 257.395 238.206 257.378C238.255 257.363 238.366 257.327 238.485 257.253C238.598 257.184 238.85 256.999 238.947 256.637C239.049 256.256 238.907 255.952 238.815 255.808C238.726 255.67 238.622 255.579 238.57 255.536C238.508 255.485 238.447 255.444 238.396 255.411L237.858 256.254ZM237.142 257.001H236.142C236.142 257.429 236.317 257.844 236.443 258.109C236.586 258.409 236.763 258.706 236.903 258.934C236.978 259.059 237.034 259.149 237.088 259.238C237.113 259.28 237.133 259.313 237.148 259.34C237.155 259.354 237.161 259.364 237.165 259.372C237.169 259.379 237.171 259.383 237.171 259.382C237.171 259.382 237.17 259.38 237.168 259.377C237.167 259.373 237.164 259.368 237.161 259.36C237.156 259.347 237.144 259.317 237.133 259.273C237.123 259.236 237.102 259.146 237.104 259.025C237.106 258.911 237.132 258.663 237.325 258.427C237.54 258.164 237.825 258.08 238.024 258.068C238.197 258.057 238.328 258.096 238.378 258.112C238.438 258.132 238.48 258.153 238.497 258.162C238.516 258.172 238.528 258.179 238.528 258.18L237.99 259.023L237.452 259.866C237.502 259.898 237.612 259.965 237.751 260.011C237.819 260.034 237.964 260.075 238.149 260.064C238.359 260.05 238.653 259.963 238.874 259.692C239.073 259.449 239.101 259.191 239.104 259.064C239.106 258.931 239.083 258.824 239.068 258.769C239.039 258.656 238.996 258.563 238.973 258.516C238.889 258.341 238.722 258.077 238.611 257.894C238.474 257.67 238.344 257.448 238.249 257.248C238.136 257.012 238.142 256.947 238.142 257.001H237.142Z" fill="#3179B4" mask="url(#path-105-inside-1_234_4676)"/>
<path d="M232.208 287.253C232.467 287.037 232.871 286.963 233.467 287.343L284.584 319.978C285.199 320.37 285.8 321.129 286.249 322.078C286.696 323.022 286.967 324.099 286.967 325.078V331.472C286.967 332.468 286.69 333.065 286.381 333.324C286.123 333.539 285.718 333.615 285.122 333.235L234.005 300.6C233.391 300.208 232.79 299.449 232.34 298.499C231.894 297.556 231.622 296.479 231.622 295.5V289.106C231.622 288.109 231.899 287.512 232.208 287.253Z" fill="#212121" stroke="#3179B4"/>
<g opacity="0.3">
<path d="M232.208 287.253C232.434 287.064 232.772 286.983 233.252 287.221C233.224 287.426 233.206 287.645 233.206 287.882V294.276C233.206 295.425 233.52 296.648 234.02 297.703C234.516 298.752 235.221 299.69 236.05 300.219L286.794 332.615C286.65 333.058 286.435 333.308 286.225 333.418C285.99 333.541 285.628 333.558 285.122 333.235L234.005 300.6C233.39 300.207 232.79 299.449 232.34 298.499C231.894 297.556 231.622 296.479 231.622 295.5V289.106C231.622 288.109 231.899 287.512 232.208 287.253Z" fill="black" stroke="#3179B4"/>
</g>
<path d="M237.783 294.203L268.544 313.841C268.691 313.935 268.868 314.143 269.011 314.445C269.151 314.741 269.232 315.073 269.232 315.362C269.232 315.506 269.212 315.609 269.188 315.678C269.176 315.711 269.164 315.733 269.155 315.746C269.139 315.741 269.115 315.73 269.082 315.709L238.321 296.07C238.174 295.977 237.997 295.768 237.854 295.466C237.714 295.171 237.633 294.839 237.633 294.55C237.633 294.406 237.653 294.302 237.677 294.234C237.689 294.2 237.699 294.178 237.708 294.164C237.724 294.17 237.749 294.181 237.783 294.203Z" fill="#D6EBFF" stroke="#3179B4"/>
<g opacity="0.5">
<path d="M227.817 127.479V150.17L223.472 147.397V124.706L227.817 127.479Z" fill="#212121" stroke="#3179B4"/>
</g>
<g opacity="0.5">
<path d="M227.817 165.256V187.948L223.472 185.174V162.483L227.817 165.256Z" fill="#212121" stroke="#3179B4"/>
</g>
<g opacity="0.5">
<path d="M227.817 203.034V225.724L223.472 222.95V200.26L227.817 203.034Z" fill="#212121" stroke="#3179B4"/>
</g>
<g opacity="0.5">
<path d="M227.817 240.81V263.502L223.472 260.727V238.037L227.817 240.81Z" fill="#212121" stroke="#3179B4"/>
</g>
<g opacity="0.5">
<path d="M227.817 278.587V301.279L223.472 298.504V275.814L227.817 278.587Z" fill="#212121" stroke="#3179B4"/>
</g>
<path d="M273.321 165.587C273.355 165.59 273.423 165.608 273.522 165.671C273.727 165.802 273.945 166.052 274.113 166.374C274.28 166.694 274.373 167.038 274.373 167.321C274.373 167.461 274.351 167.556 274.327 167.611C274.316 167.639 274.305 167.655 274.298 167.664C274.294 167.669 274.292 167.671 274.29 167.673C274.288 167.674 274.287 167.675 274.287 167.675H274.262C274.228 167.672 274.16 167.655 274.061 167.591C273.856 167.46 273.637 167.21 273.469 166.888C273.302 166.568 273.209 166.224 273.209 165.941C273.209 165.8 273.231 165.706 273.255 165.651C273.266 165.623 273.277 165.607 273.284 165.598C273.288 165.593 273.29 165.591 273.292 165.589C273.294 165.587 273.295 165.587 273.295 165.587C273.297 165.587 273.305 165.585 273.321 165.587Z" fill="#A1ACB6" stroke="#3179B4"/>
<path d="M277.908 168.516C277.942 168.519 278.009 168.537 278.109 168.6C278.313 168.731 278.532 168.98 278.7 169.303C278.868 169.623 278.96 169.967 278.96 170.25C278.96 170.39 278.938 170.484 278.914 170.54C278.903 170.567 278.892 170.584 278.885 170.593C278.882 170.597 278.879 170.6 278.877 170.602C278.876 170.603 278.874 170.604 278.874 170.604H278.848C278.831 170.602 278.806 170.598 278.773 170.585L278.648 170.52L278.57 170.465C278.389 170.325 278.203 170.099 278.056 169.817C277.889 169.496 277.796 169.153 277.796 168.869C277.796 168.729 277.819 168.635 277.842 168.579C277.853 168.552 277.864 168.536 277.871 168.527C277.875 168.522 277.877 168.519 277.879 168.518C277.881 168.516 277.882 168.516 277.882 168.516C277.884 168.515 277.892 168.514 277.908 168.516Z" fill="#2DA0FF" stroke="#3179B4"/>
<path d="M282.496 171.444C282.53 171.448 282.597 171.465 282.696 171.528H282.697C282.902 171.659 283.12 171.909 283.288 172.232C283.455 172.552 283.548 172.895 283.548 173.179C283.548 173.319 283.525 173.413 283.502 173.469C283.49 173.496 283.48 173.513 283.473 173.522C283.469 173.526 283.467 173.529 283.465 173.53C283.463 173.532 283.462 173.532 283.462 173.532H283.436C283.402 173.529 283.335 173.512 283.235 173.448C283.031 173.318 282.812 173.068 282.644 172.745C282.476 172.425 282.384 172.082 282.384 171.798C282.384 171.658 282.406 171.564 282.43 171.508C282.441 171.481 282.452 171.464 282.459 171.455C282.462 171.451 282.465 171.448 282.467 171.446C282.468 171.445 282.469 171.445 282.47 171.444C282.471 171.444 282.48 171.443 282.496 171.444Z" fill="#A1ACB6" stroke="#3179B4"/>
<path d="M273.321 203.345C273.355 203.348 273.423 203.366 273.522 203.429C273.727 203.56 273.945 203.81 274.113 204.132C274.28 204.452 274.373 204.796 274.373 205.079C274.373 205.22 274.351 205.314 274.327 205.37C274.316 205.397 274.305 205.413 274.298 205.422C274.294 205.427 274.292 205.43 274.29 205.431C274.288 205.433 274.287 205.433 274.287 205.433H274.261C274.227 205.43 274.16 205.412 274.061 205.349C273.856 205.218 273.637 204.968 273.469 204.646C273.302 204.326 273.209 203.982 273.209 203.699C273.209 203.558 273.231 203.464 273.255 203.409C273.266 203.381 273.277 203.365 273.284 203.356C273.288 203.351 273.29 203.349 273.292 203.347C273.294 203.346 273.295 203.345 273.295 203.345C273.297 203.345 273.305 203.344 273.321 203.345Z" fill="#2DA0FF" stroke="#3179B4"/>
<path d="M277.908 206.274C277.942 206.277 278.009 206.294 278.109 206.358C278.313 206.488 278.532 206.738 278.7 207.061C278.868 207.381 278.96 207.724 278.96 208.008C278.96 208.148 278.938 208.242 278.914 208.298C278.903 208.325 278.892 208.342 278.885 208.351C278.882 208.355 278.879 208.358 278.877 208.359C278.876 208.361 278.874 208.361 278.874 208.361H278.848C278.831 208.36 278.806 208.355 278.773 208.343L278.648 208.277L278.57 208.223C278.389 208.083 278.203 207.856 278.056 207.574C277.889 207.254 277.796 206.911 277.796 206.627C277.796 206.487 277.819 206.393 277.842 206.337C277.853 206.31 277.864 206.293 277.871 206.284C277.875 206.28 277.877 206.277 277.879 206.276C277.881 206.274 277.882 206.274 277.882 206.274C277.884 206.273 277.892 206.272 277.908 206.274Z" fill="#A1ACB6" stroke="#3179B4"/>
<path d="M282.496 209.202C282.53 209.206 282.597 209.223 282.696 209.286H282.697C282.902 209.417 283.12 209.667 283.288 209.99C283.455 210.31 283.548 210.653 283.548 210.937C283.548 211.077 283.525 211.171 283.502 211.227C283.491 211.254 283.48 211.271 283.473 211.28C283.469 211.284 283.467 211.287 283.465 211.288C283.463 211.29 283.462 211.29 283.462 211.29H283.437C283.403 211.287 283.335 211.27 283.235 211.206C283.031 211.076 282.812 210.826 282.644 210.503C282.476 210.183 282.384 209.839 282.384 209.555C282.384 209.415 282.406 209.322 282.43 209.266C282.441 209.239 282.452 209.222 282.459 209.213C282.462 209.209 282.465 209.206 282.467 209.204C282.468 209.203 282.47 209.202 282.47 209.202C282.471 209.202 282.48 209.201 282.496 209.202Z" fill="white" stroke="#3179B4"/>
<path d="M273.321 241.388C273.355 241.391 273.423 241.409 273.522 241.472C273.727 241.603 273.945 241.853 274.113 242.175C274.281 242.496 274.373 242.839 274.373 243.123C274.373 243.264 274.351 243.358 274.327 243.413C274.316 243.44 274.305 243.456 274.298 243.465C274.294 243.47 274.292 243.472 274.29 243.474C274.288 243.475 274.287 243.476 274.287 243.476L274.262 243.477C274.228 243.474 274.16 243.456 274.061 243.392C273.856 243.261 273.637 243.011 273.469 242.689C273.302 242.369 273.209 242.025 273.209 241.742C273.209 241.601 273.231 241.507 273.255 241.452C273.266 241.424 273.277 241.408 273.284 241.399C273.288 241.394 273.29 241.392 273.292 241.39C273.294 241.389 273.295 241.388 273.295 241.388C273.297 241.388 273.305 241.386 273.321 241.388Z" fill="white" stroke="#3179B4"/>
<path d="M277.908 244.317C277.942 244.32 278.009 244.337 278.109 244.401C278.313 244.531 278.532 244.781 278.7 245.104C278.868 245.424 278.96 245.768 278.96 246.052C278.96 246.192 278.938 246.286 278.914 246.342C278.903 246.369 278.892 246.385 278.885 246.394C278.882 246.398 278.879 246.401 278.877 246.403C278.876 246.404 278.874 246.404 278.874 246.405L278.849 246.406C278.832 246.404 278.806 246.399 278.773 246.386L278.648 246.321L278.57 246.266C278.389 246.126 278.203 245.899 278.056 245.617C277.889 245.297 277.796 244.954 277.796 244.67C277.796 244.53 277.819 244.436 277.842 244.38C277.853 244.353 277.864 244.336 277.871 244.327C277.875 244.323 277.877 244.32 277.879 244.319C277.881 244.317 277.882 244.317 277.882 244.317C277.884 244.316 277.892 244.315 277.908 244.317Z" fill="#2DA0FF" stroke="#3179B4"/>
<path d="M282.496 247.245C282.53 247.249 282.597 247.266 282.696 247.329H282.697C282.902 247.46 283.12 247.71 283.288 248.033C283.455 248.353 283.548 248.696 283.548 248.98C283.548 249.12 283.525 249.214 283.502 249.27C283.491 249.297 283.48 249.314 283.473 249.323C283.469 249.327 283.467 249.33 283.465 249.331C283.463 249.333 283.462 249.333 283.462 249.333H283.437C283.403 249.33 283.335 249.313 283.235 249.249C283.031 249.119 282.812 248.869 282.644 248.546C282.476 248.226 282.384 247.883 282.384 247.599C282.384 247.459 282.406 247.365 282.43 247.309C282.441 247.282 282.452 247.265 282.459 247.256C282.462 247.252 282.465 247.249 282.467 247.247C282.468 247.246 282.469 247.246 282.47 247.245C282.471 247.245 282.48 247.244 282.496 247.245Z" fill="white" stroke="#3179B4"/>
<path d="M273.32 278.877C273.354 278.88 273.422 278.897 273.522 278.961C273.727 279.092 273.945 279.342 274.113 279.664C274.28 279.984 274.373 280.328 274.373 280.611C274.373 280.751 274.351 280.846 274.327 280.901C274.316 280.929 274.305 280.945 274.298 280.954C274.294 280.959 274.292 280.961 274.29 280.963C274.288 280.964 274.287 280.965 274.287 280.965H274.261C274.227 280.962 274.16 280.944 274.061 280.881C273.856 280.75 273.637 280.5 273.469 280.178C273.302 279.857 273.209 279.513 273.209 279.23C273.209 279.09 273.232 278.996 273.255 278.941C273.266 278.913 273.277 278.897 273.284 278.888C273.288 278.883 273.29 278.881 273.292 278.879C273.294 278.878 273.295 278.877 273.295 278.877H273.32Z" fill="white" stroke="#3179B4"/>
<path d="M277.908 281.806C277.942 281.809 278.009 281.827 278.109 281.89C278.313 282.021 278.532 282.27 278.7 282.593C278.868 282.913 278.96 283.257 278.96 283.54C278.96 283.68 278.938 283.774 278.914 283.83C278.903 283.858 278.892 283.874 278.885 283.883C278.882 283.887 278.879 283.89 278.877 283.892C278.876 283.893 278.874 283.894 278.874 283.894H278.848C278.831 283.892 278.806 283.888 278.773 283.875L278.648 283.81L278.57 283.755C278.389 283.615 278.203 283.389 278.056 283.107C277.889 282.787 277.796 282.443 277.796 282.159C277.796 282.019 277.819 281.925 277.842 281.869C277.853 281.842 277.864 281.826 277.871 281.817C277.875 281.812 277.877 281.809 277.879 281.808C277.881 281.806 277.882 281.806 277.882 281.806C277.884 281.806 277.892 281.804 277.908 281.806Z" fill="#A1ACB6" stroke="#3179B4"/>
<path d="M282.496 284.735C282.53 284.738 282.597 284.755 282.696 284.819H282.697C282.902 284.949 283.12 285.2 283.288 285.522C283.455 285.842 283.548 286.185 283.548 286.469C283.548 286.609 283.525 286.703 283.502 286.759C283.491 286.786 283.48 286.803 283.473 286.812C283.469 286.816 283.467 286.819 283.465 286.821C283.463 286.822 283.462 286.823 283.462 286.823H283.437C283.403 286.819 283.335 286.802 283.235 286.739C283.031 286.608 282.812 286.358 282.644 286.036C282.476 285.715 282.384 285.371 282.384 285.087C282.384 284.948 282.406 284.854 282.43 284.798C282.441 284.771 282.452 284.754 282.459 284.745C282.462 284.741 282.465 284.738 282.467 284.737C282.468 284.735 282.47 284.735 282.47 284.735C282.471 284.734 282.48 284.733 282.496 284.735Z" fill="#A1ACB6" stroke="#3179B4"/>
<path d="M273.321 316.878C273.355 316.881 273.423 316.898 273.522 316.962C273.727 317.092 273.945 317.342 274.113 317.665C274.281 317.985 274.373 318.329 274.373 318.613C274.373 318.753 274.351 318.847 274.327 318.903C274.316 318.93 274.305 318.946 274.298 318.955C274.294 318.959 274.292 318.962 274.29 318.964C274.288 318.965 274.287 318.965 274.287 318.965H274.262C274.228 318.962 274.16 318.945 274.061 318.881C273.856 318.751 273.637 318.501 273.469 318.178C273.302 317.858 273.209 317.515 273.209 317.231C273.209 317.091 273.231 316.997 273.255 316.941C273.266 316.914 273.277 316.897 273.284 316.888C273.288 316.884 273.29 316.881 273.292 316.88C273.294 316.878 273.295 316.878 273.295 316.878C273.297 316.877 273.305 316.876 273.321 316.878Z" fill="white" stroke="#3179B4"/>
<path d="M277.908 319.806C277.942 319.809 278.009 319.827 278.109 319.89C278.313 320.021 278.532 320.27 278.7 320.593C278.868 320.914 278.96 321.258 278.96 321.541C278.96 321.681 278.938 321.776 278.914 321.831C278.903 321.858 278.892 321.874 278.885 321.883C278.882 321.888 278.879 321.89 278.877 321.892C278.876 321.893 278.874 321.894 278.874 321.894L278.849 321.895C278.832 321.893 278.806 321.888 278.773 321.875L278.648 321.81L278.57 321.755C278.389 321.615 278.203 321.389 278.056 321.107C277.889 320.787 277.796 320.443 277.796 320.16C277.796 320.019 277.819 319.925 277.842 319.87C277.853 319.842 277.864 319.826 277.871 319.817C277.875 319.812 277.877 319.81 277.879 319.808C277.881 319.806 277.882 319.806 277.882 319.806C277.884 319.806 277.892 319.804 277.908 319.806Z" fill="#2DA0FF" stroke="#3179B4"/>
<path d="M282.496 322.735C282.53 322.738 282.597 322.755 282.696 322.819H282.697C282.902 322.949 283.12 323.2 283.288 323.522C283.455 323.842 283.548 324.186 283.548 324.47C283.548 324.61 283.525 324.704 283.502 324.76C283.491 324.787 283.48 324.803 283.473 324.812C283.469 324.816 283.467 324.819 283.465 324.821C283.464 324.822 283.462 324.823 283.462 324.823V324.824C283.46 324.824 283.451 324.825 283.436 324.824C283.402 324.82 283.335 324.803 283.235 324.74C283.031 324.609 282.812 324.359 282.644 324.037C282.476 323.716 282.384 323.372 282.384 323.088C282.384 322.948 282.406 322.854 282.43 322.798C282.441 322.771 282.452 322.755 282.459 322.746C282.462 322.741 282.465 322.738 282.467 322.737C282.468 322.735 282.469 322.735 282.47 322.735C282.471 322.734 282.48 322.733 282.496 322.735Z" fill="#A1ACB6" stroke="#3179B4"/>
<path d="M371.222 294.141L371.138 294.195L371.136 294.196L308.021 334.49V166.647L308.105 166.594H308.106L371.222 126.299V294.141ZM370.188 127.39L308.518 166.761L308.287 166.909V333.892L309.056 333.401L370.726 294.03L370.956 293.882V126.899L370.188 127.39Z" fill="#212121" stroke="#3179B4"/>
<path d="M355.395 174.025C356.231 173.491 356.853 173.571 357.269 173.918C357.736 174.308 358.11 175.165 358.11 176.516V194.078C358.11 195.411 357.742 196.872 357.138 198.148C356.531 199.431 355.712 200.472 354.857 201.018L326.212 219.305C325.376 219.839 324.754 219.759 324.338 219.411C323.872 219.021 323.498 218.165 323.498 216.814V199.252C323.498 197.919 323.866 196.458 324.47 195.182C325.077 193.899 325.896 192.858 326.75 192.312L355.395 174.025Z" fill="#212121" stroke="#3179B4"/>
<path d="M356.441 173.644C356.842 173.624 357.173 173.782 357.436 174.083C357.825 174.528 358.11 175.338 358.11 176.516V194.078C358.11 195.412 357.742 196.872 357.138 198.148C356.531 199.431 355.712 200.472 354.857 201.018L326.214 219.305H326.213C325.57 219.715 325.059 219.753 324.691 219.615C324.402 219.506 324.123 219.258 323.906 218.836C323.943 218.817 323.982 218.799 324.019 218.778L324.22 218.657L352.865 200.369C353.934 199.686 354.858 198.465 355.511 197.084C356.168 195.696 356.58 194.091 356.58 192.587V175.025C356.58 174.523 356.531 174.062 356.441 173.644Z" fill="#25669C" stroke="#3179B4"/>
<path d="M350.317 191.24C350.334 191.281 350.353 191.357 350.353 191.475V195.475C350.353 195.715 350.274 196.011 350.129 196.289C349.983 196.569 349.795 196.781 349.625 196.89C349.551 196.937 349.502 196.949 349.479 196.953C349.476 196.948 349.474 196.942 349.471 196.935C349.454 196.894 349.435 196.818 349.435 196.699V192.699C349.435 192.459 349.514 192.163 349.659 191.886C349.805 191.606 349.992 191.393 350.163 191.284C350.235 191.238 350.283 191.224 350.307 191.22C350.31 191.225 350.313 191.232 350.317 191.24Z" fill="white" stroke="#3179B4"/>
<path d="M346.207 194.363C346.224 194.404 346.243 194.48 346.243 194.598V198.099C346.243 198.339 346.164 198.635 346.019 198.912C345.873 199.192 345.686 199.404 345.515 199.513C345.442 199.559 345.393 199.572 345.37 199.576C345.367 199.572 345.365 199.565 345.362 199.558C345.345 199.517 345.326 199.441 345.326 199.322V195.822C345.326 195.582 345.405 195.287 345.55 195.009C345.659 194.799 345.792 194.627 345.924 194.508L346.053 194.407C346.125 194.362 346.173 194.347 346.197 194.343C346.2 194.348 346.203 194.355 346.207 194.363Z" fill="#D6EBFF" stroke="#3179B4"/>
<path d="M342.098 193.081C342.115 193.122 342.134 193.198 342.134 193.316V200.722C342.134 200.963 342.055 201.258 341.91 201.536C341.801 201.745 341.668 201.918 341.536 202.036L341.406 202.137C341.334 202.184 341.284 202.196 341.261 202.2C341.258 202.195 341.256 202.188 341.253 202.181C341.236 202.14 341.217 202.065 341.217 201.947V194.54C341.217 194.3 341.296 194.004 341.441 193.727C341.55 193.517 341.683 193.345 341.815 193.226L341.945 193.125C342.016 193.08 342.064 193.065 342.088 193.061C342.091 193.066 342.094 193.073 342.098 193.081Z" fill="#2DA0FF" stroke="#3179B4"/>
<path d="M337.989 191.437C338.006 191.478 338.025 191.553 338.025 191.671V203.345C338.025 203.586 337.947 203.881 337.802 204.159C337.692 204.368 337.559 204.541 337.428 204.66L337.297 204.76C337.224 204.807 337.175 204.819 337.151 204.823C337.149 204.818 337.147 204.812 337.144 204.804C337.126 204.763 337.107 204.688 337.107 204.57V192.896C337.107 192.656 337.186 192.36 337.331 192.083C337.477 191.803 337.665 191.59 337.836 191.481L337.835 191.48C337.907 191.434 337.956 191.421 337.979 191.417C337.982 191.422 337.986 191.429 337.989 191.437Z" fill="#D6EBFF" stroke="#3179B4"/>
<path d="M333.879 195.285C333.897 195.326 333.916 195.401 333.916 195.519V205.969C333.915 206.21 333.837 206.505 333.692 206.783C333.546 207.062 333.358 207.275 333.188 207.383C333.116 207.43 333.067 207.443 333.043 207.447C333.041 207.442 333.038 207.436 333.035 207.428C333.017 207.387 332.999 207.312 332.999 207.193V196.744C332.999 196.504 333.077 196.208 333.222 195.93C333.368 195.651 333.556 195.438 333.726 195.329H333.727C333.798 195.283 333.846 195.269 333.87 195.264C333.872 195.269 333.876 195.276 333.879 195.285Z" fill="#D6EBFF" stroke="#3179B4"/>
<path d="M329.77 202.682C329.787 202.723 329.806 202.799 329.806 202.917V208.592C329.806 208.832 329.727 209.128 329.583 209.406C329.436 209.686 329.249 209.899 329.079 210.008C329.006 210.054 328.956 210.066 328.933 210.07C328.931 210.065 328.928 210.059 328.925 210.052C328.908 210.01 328.889 209.935 328.889 209.816V204.141L328.904 203.951C328.933 203.754 329.004 203.536 329.113 203.328C329.259 203.048 329.446 202.835 329.617 202.726C329.688 202.681 329.736 202.666 329.76 202.662C329.763 202.667 329.766 202.674 329.77 202.682Z" fill="white" stroke="#3179B4"/>
<path d="M350.302 187.41C350.318 187.449 350.337 187.523 350.337 187.638C350.337 187.873 350.26 188.162 350.117 188.434C349.974 188.708 349.791 188.916 349.625 189.022C349.561 189.063 349.516 189.076 349.492 189.082C349.491 189.078 349.489 189.074 349.487 189.069C349.47 189.03 349.451 188.957 349.451 188.841C349.452 188.607 349.529 188.318 349.671 188.046C349.814 187.771 349.997 187.563 350.163 187.457C350.226 187.417 350.27 187.403 350.294 187.397C350.296 187.401 350.3 187.405 350.302 187.41Z" fill="#2DA0FF" stroke="#3179B4"/>
<path d="M350.302 183.649C350.318 183.688 350.337 183.761 350.337 183.877C350.337 184.112 350.26 184.401 350.117 184.674C349.974 184.948 349.791 185.156 349.625 185.262C349.561 185.303 349.516 185.316 349.492 185.321C349.491 185.318 349.489 185.313 349.487 185.309C349.47 185.269 349.451 185.196 349.451 185.081C349.451 184.846 349.529 184.557 349.671 184.285C349.814 184.011 349.997 183.802 350.163 183.696C350.226 183.656 350.27 183.642 350.294 183.637C350.296 183.641 350.3 183.644 350.302 183.649Z" fill="white" stroke="#3179B4"/>
<path d="M130.194 297.196C132.022 297.112 133.757 297.477 134.99 298.264L178.79 326.228C180.007 327.005 180.469 328.013 180.359 328.998C180.245 330.012 179.51 331.141 178.037 332.08L135.744 359.081C134.277 360.018 132.415 360.547 130.591 360.63C128.762 360.714 127.028 360.349 125.795 359.562L81.9944 331.599C80.7776 330.822 80.3152 329.813 80.426 328.828C80.533 327.877 81.1856 326.826 82.4797 325.924L82.7473 325.745L125.04 298.745C126.508 297.808 128.37 297.279 130.194 297.196Z" fill="#7BB8E9" stroke="#3179B4"/>
<path d="M127.412 283.313C131.186 280.902 136.551 280.725 139.848 282.832L183.651 310.796C185.465 311.954 186.478 313.73 186.478 315.663C186.478 317.829 185.21 319.935 182.896 321.412L140.604 348.413C138.592 349.697 136.11 350.356 133.719 350.356C131.651 350.356 129.686 349.864 128.168 348.894L128.045 348.816H128.044L84.366 320.93C82.5517 319.772 81.5393 317.996 81.5378 316.062C81.5378 313.896 82.805 311.79 85.1179 310.313L127.412 283.313ZM137.899 286.753C136.813 286.059 135.278 285.803 133.752 285.895C132.217 285.987 130.613 286.435 129.361 287.234L87.0691 314.234C86.4949 314.6 86.1215 314.961 85.8855 315.263C85.7679 315.414 85.6827 315.552 85.6248 315.671C85.5762 315.77 85.5226 315.904 85.5154 316.036L85.5085 316.154L85.5554 316.262C85.5965 316.357 85.6808 316.472 85.7869 316.584C85.9047 316.708 86.0755 316.855 86.3142 317.008L86.3152 317.009L128.673 344.051H128.67L130.116 344.973C131.204 345.666 132.739 345.922 134.265 345.831C135.8 345.738 137.403 345.291 138.654 344.492L180.947 317.491C181.521 317.125 181.894 316.764 182.131 316.462C182.248 316.311 182.333 316.173 182.391 316.054C182.44 315.955 182.495 315.821 182.502 315.687L182.509 315.567L182.46 315.458C182.419 315.367 182.336 315.254 182.229 315.142C182.112 315.019 181.941 314.87 181.703 314.717L181.702 314.716L137.899 286.753Z" fill="white" stroke="#3179B4"/>
<path d="M130.194 271.417C132.023 271.333 133.757 271.699 134.99 272.486L146.704 279.964L146.827 280.042H146.972L180.361 280.063V296.293L180.362 296.312C180.444 297.441 179.738 298.77 178.038 299.856L135.745 326.857C134.277 327.794 132.414 328.322 130.59 328.406C128.762 328.489 127.027 328.125 125.794 327.338L81.9937 299.374L81.7827 299.232C80.7691 298.508 80.3651 297.608 80.4233 296.721L80.4243 296.705V280.001L113.842 280.022H113.989L114.112 279.944L125.041 272.966C126.508 272.029 128.37 271.501 130.194 271.417Z" fill="#4C7698" stroke="#3179B4"/>
<path d="M129.893 328.41C128.324 328.383 126.868 328.023 125.794 327.337L81.9937 299.374C80.8253 298.628 80.3612 297.667 80.4233 296.721L80.4243 296.705V280.001L113.842 280.022H113.989L114.112 279.944L125.041 272.966C126.428 272.081 128.167 271.565 129.893 271.441V328.41Z" fill="#5B96C7" stroke="#3179B4"/>
<path d="M134.084 309.004V327.677C131.651 328.611 128.77 328.656 126.7 327.798V309.004H134.084Z" fill="#25669C" stroke="#3179B4"/>
<path d="M130.194 247.846C132.022 247.762 133.757 248.128 134.99 248.915L178.79 276.878C180.007 277.655 180.469 278.663 180.359 279.649C180.245 280.662 179.51 281.791 178.037 282.731L135.744 309.732C134.277 310.669 132.415 311.197 130.591 311.281C128.762 311.365 127.028 310.999 125.795 310.212L81.9944 282.25C80.7776 281.473 80.3152 280.464 80.426 279.478C80.533 278.528 81.1856 277.477 82.4797 276.575L82.7473 276.396L125.04 249.395C126.508 248.458 128.37 247.93 130.194 247.846Z" fill="#D9DFE6" stroke="#3179B4"/>
<path d="M180.296 278.793C180.418 279.291 180.382 279.815 180.184 280.343C179.878 281.157 179.178 282.002 178.038 282.73L135.745 309.732C134.277 310.669 132.414 311.197 130.59 311.281C128.762 311.365 127.027 310.999 125.794 310.213L81.9937 282.249C81.1532 281.712 80.6783 281.066 80.4976 280.41C80.378 279.976 80.3818 279.513 80.5151 279.039C80.7812 279.315 81.0934 279.572 81.4556 279.803L125.256 307.766C126.712 308.696 128.669 309.081 130.636 308.991C132.608 308.901 134.646 308.331 136.283 307.286L178.576 280.285C179.275 279.838 179.85 279.332 180.296 278.793Z" fill="white" stroke="#3179B4"/>
<path d="M163.25 299.977C163.644 299.725 163.867 299.78 163.963 299.841C164.079 299.915 164.25 300.146 164.25 300.685C164.25 301.211 164.08 301.823 163.789 302.382C163.496 302.942 163.106 303.401 162.712 303.652C162.317 303.904 162.095 303.85 161.999 303.789C161.882 303.714 161.712 303.483 161.712 302.944C161.712 302.418 161.882 301.807 162.174 301.248C162.466 300.687 162.856 300.229 163.25 299.977Z" fill="#A1ACB6" stroke="#3179B4"/>
<path d="M168.942 296.343C169.336 296.091 169.559 296.145 169.655 296.207C169.771 296.281 169.942 296.512 169.942 297.051C169.942 297.577 169.772 298.189 169.481 298.748C169.188 299.308 168.798 299.766 168.404 300.018C168.009 300.27 167.787 300.216 167.691 300.155C167.574 300.08 167.404 299.849 167.404 299.31C167.404 298.784 167.574 298.172 167.865 297.614C168.158 297.053 168.547 296.595 168.942 296.343Z" fill="#A1ACB6" stroke="#3179B4"/>
<path d="M174.634 292.709C175.028 292.457 175.251 292.511 175.347 292.573C175.463 292.647 175.634 292.878 175.634 293.417C175.634 293.943 175.464 294.555 175.173 295.114C174.88 295.674 174.49 296.133 174.096 296.384C173.701 296.636 173.479 296.582 173.383 296.521C173.267 296.447 173.096 296.215 173.096 295.677C173.096 295.151 173.266 294.539 173.558 293.98C173.85 293.419 174.24 292.961 174.634 292.709Z" fill="#A1ACB6" stroke="#3179B4"/>
<path d="M130.312 264.181C131.131 264.143 131.884 264.309 132.401 264.64L152.898 277.724C153.399 278.045 153.549 278.426 153.51 278.767C153.469 279.136 153.192 279.603 152.545 280.016L132.754 292.65C132.113 293.06 131.288 293.296 130.474 293.334C129.656 293.371 128.903 293.206 128.385 292.876H128.384L107.888 279.79C107.387 279.47 107.238 279.088 107.276 278.747C107.317 278.378 107.594 277.912 108.241 277.499L128.032 264.864C128.673 264.455 129.498 264.218 130.312 264.181Z" fill="#25669C" stroke="#3179B4"/>
<path d="M130.448 278.744L132.929 280.328L130.488 281.888C130.482 281.892 130.469 281.898 130.449 281.904C130.429 281.91 130.406 281.914 130.384 281.915L130.336 281.912L127.856 280.328L130.297 278.769C130.304 278.765 130.318 278.759 130.337 278.753C130.357 278.747 130.379 278.743 130.401 278.742C130.422 278.741 130.438 278.742 130.448 278.744Z" fill="#A1ACB6" stroke="#3179B4"/>
<path d="M130.312 264.181C131.131 264.143 131.884 264.309 132.401 264.64L152.898 277.724C153.363 278.021 153.517 278.368 153.508 278.678C153.501 278.942 153.369 279.262 153.055 279.586L132.939 266.743C132.198 266.27 131.223 266.085 130.266 266.129C129.304 266.173 128.304 266.45 127.494 266.968L107.703 279.602C107.692 279.609 107.681 279.618 107.67 279.625C107.345 279.343 107.244 279.032 107.276 278.747C107.317 278.378 107.594 277.912 108.241 277.499L128.032 264.864C128.673 264.455 129.498 264.218 130.312 264.181Z" fill="#4C7698" stroke="#3179B4"/>
<path d="M170.626 427.761L142.885 445.472L115.144 427.76L142.884 410.05L170.626 427.761Z" fill="#7BB8E9" stroke="#3179B4"/>
<path d="M142.064 394.046C142.574 393.72 143.195 393.72 143.705 394.046L172.375 412.349C172.893 412.68 173.235 413.311 173.235 414.016C173.235 414.721 172.894 415.35 172.375 415.681L143.706 433.986C143.447 434.15 143.165 434.231 142.885 434.231C142.606 434.231 142.323 434.15 142.065 433.986L113.394 415.681C112.876 415.35 112.535 414.721 112.535 414.016C112.535 413.311 112.876 412.68 113.394 412.349L142.064 394.046ZM142.615 398.074L118.304 413.594L117.645 414.016L118.304 414.437L142.617 429.958L142.885 430.13L143.155 429.958L167.465 414.437L168.125 414.015L167.465 413.594L143.153 398.074L142.884 397.903L142.615 398.074Z" fill="white" stroke="#3179B4"/>
<path d="M142.386 381.685V417.104L114.716 399.438V364.02L142.386 381.685Z" fill="#4C7698" stroke="#3179B4"/>
<path d="M171.055 399.438L143.385 417.103V381.685L171.055 364.019V399.438Z" fill="#3F3F3F" stroke="#3179B4"/>
<path d="M170.625 363.107L142.885 380.818L115.144 363.107L142.885 345.398L170.625 363.107Z" fill="#D9DFE6" stroke="#3179B4"/>
<path d="M132.06 388.276V397.328L125.041 392.848V383.796L132.06 388.276Z" fill="white" stroke="#3179B4"/>
<path d="M490.829 231.363L463.088 249.073L435.347 231.362L463.087 213.652L490.829 231.363Z" fill="#7BB8E9" stroke="#3179B4"/>
<path d="M462.268 197.648C462.778 197.322 463.398 197.322 463.908 197.648L492.579 215.951C493.097 216.281 493.439 216.912 493.439 217.618C493.439 218.323 493.098 218.952 492.579 219.283L463.909 237.587C463.651 237.752 463.369 237.832 463.089 237.832C462.81 237.832 462.527 237.752 462.269 237.587L433.598 219.283C433.08 218.952 432.739 218.322 432.739 217.618C432.739 216.912 433.08 216.281 433.598 215.951L462.268 197.648ZM462.819 201.676L438.508 217.196L437.849 217.618L438.508 218.038L462.821 233.56L463.089 233.732L463.359 233.56L487.669 218.038L488.329 217.617L487.669 217.196L463.357 201.676L463.088 201.504L462.819 201.676Z" fill="white" stroke="#3179B4"/>
<path d="M462.589 185.287V220.706L434.919 203.04V167.622L462.589 185.287Z" fill="#4C7698" stroke="#3179B4"/>
<path d="M491.258 203.04L463.588 220.705V185.287L491.258 167.621V203.04Z" fill="#3F3F3F" stroke="#3179B4"/>
<path d="M490.828 166.709L463.088 184.42L435.348 166.709L463.088 149L490.828 166.709Z" fill="#D9DFE6" stroke="#3179B4"/>
<path d="M452.262 191.877V200.929L445.244 196.45V187.398L452.262 191.877Z" fill="white" stroke="#3179B4"/>
<path d="M460.021 298.041C461.85 297.957 463.585 298.322 464.817 299.109L508.618 327.073C509.835 327.85 510.297 328.858 510.186 329.843C510.072 330.857 509.337 331.985 507.865 332.925L465.572 359.926C464.105 360.863 462.243 361.392 460.419 361.475C458.59 361.559 456.855 361.194 455.623 360.407L411.822 332.444C410.605 331.667 410.143 330.658 410.254 329.672C410.361 328.722 411.013 327.671 412.307 326.769L412.575 326.59L454.868 299.589C456.335 298.653 458.197 298.124 460.021 298.041Z" fill="#7BB8E9" stroke="#3179B4"/>
<path d="M450.568 283.313C454.343 280.902 459.708 280.725 463.005 282.832L506.808 310.796C508.622 311.954 509.635 313.73 509.635 315.663C509.635 317.829 508.367 319.935 506.053 321.412L463.761 348.413C461.749 349.697 459.266 350.356 456.876 350.356C454.808 350.356 452.842 349.864 451.324 348.894L451.201 348.816H451.2L407.522 320.93C405.708 319.772 404.696 317.996 404.694 316.062C404.694 313.896 405.961 311.79 408.274 310.313L450.568 283.313ZM461.056 286.753C459.969 286.059 458.434 285.803 456.908 285.895C455.374 285.987 453.77 286.435 452.518 287.234L410.226 314.234C409.651 314.6 409.278 314.961 409.042 315.263C408.924 315.414 408.839 315.552 408.781 315.671C408.733 315.77 408.679 315.904 408.672 316.036L408.665 316.154L408.712 316.262C408.753 316.357 408.837 316.472 408.943 316.584C409.061 316.708 409.232 316.855 409.471 317.008L409.472 317.009L451.829 344.051H451.826L453.272 344.973C454.36 345.666 455.896 345.922 457.422 345.831C458.956 345.738 460.56 345.291 461.811 344.492L504.104 317.491C504.678 317.125 505.051 316.764 505.287 316.462C505.405 316.311 505.49 316.173 505.548 316.054C505.596 315.955 505.651 315.821 505.658 315.687L505.665 315.567L505.616 315.458C505.576 315.367 505.492 315.254 505.386 315.142C505.268 315.019 505.098 314.87 504.859 314.717L504.858 314.716L461.056 286.753Z" fill="white" stroke="#3179B4"/>
<path d="M460.021 272.262C461.85 272.178 463.585 272.543 464.817 273.33L476.531 280.809L476.654 280.887H476.8L510.188 280.907V297.138L510.189 297.156C510.272 298.285 509.566 299.615 507.865 300.7L465.572 327.701C464.105 328.638 462.242 329.167 460.418 329.25C458.589 329.334 456.854 328.97 455.622 328.183L411.821 300.219L411.61 300.076C410.597 299.353 410.193 298.452 410.251 297.566L410.252 297.55V280.846L443.67 280.866H443.816L443.939 280.788L454.868 273.811C456.336 272.874 458.198 272.346 460.021 272.262Z" fill="#4C7698" stroke="#3179B4"/>
<path d="M459.721 329.254C458.151 329.228 456.695 328.867 455.622 328.182L411.821 300.218C410.653 299.473 410.189 298.512 410.251 297.566L410.252 297.549V280.846L443.67 280.867H443.816L443.939 280.789L454.868 273.811C456.255 272.926 457.994 272.41 459.721 272.286V329.254Z" fill="#5B96C7" stroke="#3179B4"/>
<path d="M463.912 309.848V328.521C461.479 329.455 458.598 329.501 456.528 328.642V309.848H463.912Z" fill="#25669C" stroke="#3179B4"/>
<path d="M460.021 248.691C461.849 248.607 463.584 248.972 464.817 249.759L508.618 277.723C509.834 278.5 510.297 279.508 510.186 280.493C510.072 281.507 509.337 282.635 507.865 283.575L465.572 310.576C464.104 311.513 462.242 312.042 460.418 312.125C458.59 312.209 456.855 311.844 455.623 311.057L411.822 283.094C410.605 282.317 410.143 281.308 410.253 280.323C410.36 279.372 411.013 278.321 412.307 277.419L412.575 277.24L454.868 250.24C456.335 249.303 458.197 248.774 460.021 248.691Z" fill="#D9DFE6" stroke="#3179B4"/>
<path d="M510.124 279.638C510.245 280.136 510.209 280.66 510.011 281.187C509.705 282.002 509.005 282.847 507.865 283.575L465.572 310.577C464.104 311.514 462.242 312.042 460.417 312.126C458.589 312.21 456.854 311.844 455.622 311.057L411.821 283.094C410.98 282.557 410.505 281.911 410.325 281.255C410.205 280.821 410.209 280.358 410.342 279.884C410.608 280.16 410.921 280.417 411.283 280.648L455.083 308.611C456.539 309.541 458.496 309.926 460.463 309.836C462.435 309.745 464.473 309.176 466.11 308.131L508.403 281.13C509.103 280.683 509.678 280.177 510.124 279.638Z" fill="white" stroke="#3179B4"/>
<path d="M493.077 300.822C493.472 300.57 493.695 300.624 493.79 300.685C493.907 300.76 494.077 300.991 494.077 301.53C494.077 302.056 493.908 302.668 493.616 303.226C493.324 303.787 492.933 304.245 492.539 304.497C492.145 304.749 491.922 304.695 491.826 304.634C491.71 304.559 491.539 304.328 491.539 303.789C491.539 303.263 491.71 302.651 492.001 302.093C492.294 301.532 492.683 301.074 493.077 300.822Z" fill="#A1ACB6" stroke="#3179B4"/>
<path d="M498.769 297.188C499.164 296.936 499.386 296.99 499.482 297.051C499.598 297.125 499.769 297.357 499.769 297.896C499.769 298.422 499.6 299.034 499.308 299.592C499.016 300.153 498.625 300.611 498.231 300.863C497.837 301.115 497.614 301.061 497.518 301C497.402 300.925 497.231 300.693 497.231 300.155C497.231 299.629 497.401 299.017 497.693 298.458C497.986 297.898 498.375 297.44 498.769 297.188Z" fill="#A1ACB6" stroke="#3179B4"/>
<path d="M504.461 293.554C504.856 293.302 505.079 293.356 505.174 293.417C505.291 293.491 505.461 293.723 505.461 294.262C505.461 294.788 505.292 295.4 505 295.958C504.708 296.519 504.318 296.977 503.923 297.229C503.529 297.481 503.306 297.427 503.21 297.365C503.094 297.291 502.923 297.06 502.923 296.522C502.923 295.996 503.094 295.383 503.385 294.824C503.678 294.264 504.067 293.806 504.461 293.554Z" fill="#A1ACB6" stroke="#3179B4"/>
<path d="M460.139 265.025C460.958 264.988 461.711 265.154 462.228 265.484L482.725 278.569C483.227 278.89 483.376 279.271 483.337 279.612C483.296 279.981 483.019 280.448 482.373 280.86L462.582 293.495C461.94 293.905 461.115 294.141 460.301 294.179C459.483 294.216 458.73 294.051 458.212 293.721H458.211L437.715 280.635C437.214 280.315 437.065 279.933 437.103 279.592C437.145 279.223 437.422 278.756 438.068 278.344L457.859 265.709C458.501 265.299 459.325 265.063 460.139 265.025Z" fill="#25669C" stroke="#3179B4"/>
<path d="M460.275 279.589L462.756 281.173L460.315 282.733C460.309 282.737 460.296 282.743 460.276 282.749C460.256 282.755 460.233 282.759 460.211 282.76L460.163 282.757L457.683 281.173L460.124 279.614C460.131 279.61 460.144 279.604 460.164 279.598C460.184 279.592 460.206 279.588 460.228 279.587C460.249 279.586 460.265 279.587 460.275 279.589Z" fill="#A1ACB6" stroke="#3179B4"/>
<path d="M460.139 265.025C460.958 264.988 461.711 265.154 462.228 265.484L482.725 278.569C483.19 278.866 483.344 279.213 483.335 279.522C483.328 279.787 483.196 280.107 482.882 280.431L462.766 267.588C462.025 267.115 461.051 266.93 460.093 266.974C459.132 267.018 458.131 267.295 457.321 267.812L437.53 280.447C437.519 280.454 437.508 280.462 437.498 280.47C437.172 280.188 437.071 279.877 437.103 279.592C437.145 279.223 437.421 278.756 438.068 278.344L457.859 265.709C458.501 265.299 459.325 265.063 460.139 265.025Z" fill="#4C7698" stroke="#3179B4"/>
<path d="M479.017 427.761L451.276 445.472L423.534 427.76L451.275 410.05L479.017 427.761Z" fill="#7BB8E9" stroke="#3179B4"/>
<path d="M450.455 394.046C450.965 393.72 451.586 393.72 452.096 394.046L480.767 412.349C481.285 412.68 481.626 413.311 481.626 414.016C481.626 414.721 481.285 415.35 480.767 415.681L452.097 433.986C451.838 434.15 451.556 434.231 451.276 434.231C450.997 434.231 450.714 434.15 450.456 433.986L421.785 415.681C421.267 415.35 420.926 414.721 420.926 414.016C420.926 413.311 421.267 412.68 421.785 412.349L450.455 394.046ZM451.006 398.074L426.695 413.594L426.036 414.016L426.695 414.437L451.008 429.958L451.276 430.13L451.546 429.958L475.856 414.437L476.517 414.015L475.856 413.594L451.544 398.074L451.275 397.903L451.006 398.074Z" fill="white" stroke="#3179B4"/>
<path d="M450.776 381.685V417.104L423.106 399.438V364.02L450.776 381.685Z" fill="#4C7698" stroke="#3179B4"/>
<path d="M479.446 399.438L451.776 417.103V381.685L479.446 364.019V399.438Z" fill="#3F3F3F" stroke="#3179B4"/>
<path d="M479.015 363.107L451.275 380.818L423.535 363.107L451.275 345.398L479.015 363.107Z" fill="#D9DFE6" stroke="#3179B4"/>
<path d="M440.451 388.276V397.328L433.432 392.848V383.796L440.451 388.276Z" fill="white" stroke="#3179B4"/>
<path d="M305.495 418.021C307.323 417.937 309.058 418.303 310.291 419.089L354.092 447.053C355.308 447.83 355.771 448.838 355.66 449.824C355.546 450.837 354.811 451.966 353.339 452.906L311.046 479.907C309.578 480.844 307.716 481.372 305.892 481.456C304.064 481.539 302.329 481.174 301.096 480.387L257.296 452.424C256.079 451.648 255.616 450.639 255.727 449.653C255.834 448.703 256.487 447.652 257.781 446.75L258.049 446.571L300.342 419.57C301.809 418.633 303.671 418.105 305.495 418.021Z" fill="#7BB8E9" stroke="#3179B4"/>
<path d="M289.623 406.937C293.397 404.525 298.762 404.348 302.059 406.455L345.862 434.419C347.676 435.577 348.689 437.354 348.689 439.286C348.689 441.453 347.421 443.559 345.107 445.035L302.815 472.036C300.803 473.32 298.321 473.98 295.93 473.98C293.862 473.98 291.896 473.488 290.379 472.518L290.256 472.44H290.255L246.577 444.554C244.763 443.396 243.75 441.62 243.749 439.686C243.749 437.519 245.016 435.413 247.329 433.937L289.623 406.937ZM300.11 410.376C299.024 409.683 297.489 409.427 295.963 409.519C294.428 409.611 292.824 410.058 291.572 410.858L249.28 437.858C248.706 438.224 248.332 438.584 248.096 438.887C247.979 439.038 247.894 439.176 247.836 439.294C247.787 439.393 247.734 439.527 247.726 439.659L247.719 439.777L247.766 439.886C247.807 439.98 247.892 440.095 247.998 440.207C248.116 440.331 248.286 440.479 248.525 440.632L248.526 440.633L290.884 467.675H290.881L292.327 468.597C293.415 469.29 294.95 469.546 296.476 469.454C298.011 469.362 299.614 468.914 300.865 468.115L343.158 441.114C343.732 440.748 344.105 440.387 344.342 440.085C344.459 439.934 344.544 439.796 344.602 439.678C344.651 439.579 344.706 439.444 344.713 439.311L344.719 439.191L344.671 439.081C344.63 438.99 344.547 438.878 344.44 438.766C344.323 438.642 344.152 438.494 343.914 438.341L343.913 438.34L300.11 410.376Z" fill="white" stroke="#3179B4"/>
<path d="M305.495 392.242C307.324 392.158 309.059 392.524 310.291 393.311L322.005 400.789L322.128 400.867H322.273L355.662 400.888V417.118L355.663 417.137C355.745 418.266 355.039 419.595 353.339 420.681L311.046 447.682C309.578 448.619 307.716 449.147 305.892 449.231C304.063 449.314 302.328 448.95 301.096 448.163L257.295 420.199L257.084 420.057C256.07 419.333 255.666 418.433 255.725 417.546L255.726 417.53V400.826L289.144 400.847H289.29L289.413 400.769L300.342 393.791C301.809 392.854 303.671 392.326 305.495 392.242Z" fill="#4C7698" stroke="#3179B4"/>
<path d="M305.194 449.235C303.625 449.209 302.169 448.848 301.096 448.163L257.295 420.199C256.127 419.453 255.662 418.492 255.725 417.546L255.726 417.53V400.827L289.144 400.847H289.29L289.413 400.769L300.342 393.792C301.729 392.906 303.468 392.39 305.194 392.266V449.235Z" fill="#5B96C7" stroke="#3179B4"/>
<path d="M309.385 429.829V448.502C306.952 449.436 304.071 449.481 302.001 448.623V429.829H309.385Z" fill="#25669C" stroke="#3179B4"/>
<path d="M305.495 368.671C307.323 368.587 309.058 368.953 310.291 369.74L354.092 397.703C355.308 398.48 355.771 399.488 355.66 400.474C355.546 401.487 354.811 402.616 353.339 403.556L311.046 430.557C309.578 431.494 307.716 432.022 305.892 432.106C304.064 432.189 302.329 431.824 301.096 431.037L257.296 403.074C256.079 402.298 255.616 401.289 255.727 400.303C255.834 399.353 256.487 398.302 257.781 397.4L258.049 397.221L300.342 370.22C301.809 369.283 303.671 368.755 305.495 368.671Z" fill="#D9DFE6" stroke="#3179B4"/>
<path d="M355.598 399.618C355.719 400.116 355.683 400.641 355.485 401.168C355.179 401.982 354.479 402.827 353.339 403.556L311.046 430.557C309.578 431.494 307.716 432.023 305.892 432.106C304.063 432.19 302.328 431.825 301.096 431.038L257.295 403.074C256.454 402.538 255.98 401.891 255.799 401.235C255.679 400.801 255.683 400.338 255.816 399.864C256.082 400.14 256.395 400.398 256.757 400.629L300.558 428.592C302.013 429.521 303.97 429.906 305.938 429.816C307.909 429.726 309.947 429.156 311.584 428.111L353.877 401.11C354.577 400.663 355.152 400.158 355.598 399.618Z" fill="white" stroke="#3179B4"/>
<path d="M338.551 420.803C338.946 420.551 339.168 420.605 339.264 420.666C339.38 420.74 339.551 420.972 339.551 421.511C339.551 422.037 339.382 422.649 339.09 423.207C338.798 423.768 338.407 424.226 338.013 424.478C337.619 424.729 337.396 424.675 337.3 424.614C337.184 424.54 337.013 424.308 337.013 423.77C337.013 423.244 337.183 422.632 337.475 422.073C337.768 421.513 338.157 421.054 338.551 420.803Z" fill="#A1ACB6" stroke="#3179B4"/>
<path d="M344.244 417.168C344.638 416.916 344.861 416.971 344.957 417.032C345.073 417.106 345.244 417.337 345.244 417.876C345.244 418.402 345.074 419.014 344.783 419.573C344.49 420.134 344.1 420.592 343.706 420.843C343.311 421.095 343.089 421.041 342.993 420.98C342.876 420.906 342.706 420.674 342.706 420.135C342.706 419.609 342.876 418.998 343.167 418.439C343.46 417.878 343.849 417.42 344.244 417.168Z" fill="#A1ACB6" stroke="#3179B4"/>
<path d="M349.936 413.535C350.33 413.283 350.553 413.337 350.648 413.398C350.765 413.472 350.936 413.704 350.936 414.243C350.936 414.768 350.766 415.38 350.475 415.939C350.182 416.5 349.792 416.958 349.397 417.209C349.003 417.461 348.78 417.407 348.685 417.346C348.568 417.272 348.398 417.041 348.397 416.502C348.397 415.976 348.568 415.364 348.859 414.805C349.152 414.244 349.541 413.786 349.936 413.535Z" fill="#A1ACB6" stroke="#3179B4"/>
<path d="M305.614 385.006C306.432 384.968 307.185 385.135 307.702 385.465L328.199 398.55C328.701 398.87 328.85 399.252 328.812 399.593C328.77 399.962 328.493 400.428 327.847 400.841L308.056 413.476C307.414 413.885 306.59 414.122 305.776 414.159C304.957 414.197 304.204 414.031 303.687 413.701H303.686L283.19 400.615C282.688 400.295 282.539 399.913 282.577 399.572C282.619 399.203 282.896 398.737 283.542 398.324L303.333 385.689C303.975 385.28 304.799 385.043 305.614 385.006Z" fill="#25669C" stroke="#3179B4"/>
<path d="M305.75 399.57L308.231 401.154L305.79 402.713C305.783 402.717 305.77 402.724 305.75 402.73C305.731 402.736 305.708 402.739 305.686 402.74L305.638 402.738L303.158 401.154L305.599 399.594C305.605 399.59 305.619 399.584 305.639 399.578C305.659 399.573 305.681 399.569 305.703 399.568C305.723 399.567 305.74 399.568 305.75 399.57Z" fill="#A1ACB6" stroke="#3179B4"/>
<path d="M305.614 385.006C306.432 384.968 307.185 385.135 307.702 385.465L328.199 398.55C328.664 398.847 328.818 399.194 328.81 399.503C328.802 399.768 328.67 400.088 328.357 400.411L308.24 387.568C307.5 387.095 306.525 386.91 305.568 386.954C304.606 386.998 303.606 387.275 302.795 387.793L283.004 400.428C282.993 400.435 282.983 400.443 282.972 400.45C282.646 400.168 282.545 399.857 282.577 399.572C282.619 399.203 282.896 398.737 283.542 398.324L303.333 385.689C303.975 385.28 304.799 385.043 305.614 385.006Z" fill="#4C7698" stroke="#3179B4"/>
<path d="M167.462 231.363L139.721 249.073L111.98 231.362L139.72 213.652L167.462 231.363Z" fill="#7BB8E9" stroke="#3179B4"/>
<path d="M138.9 197.648C139.41 197.322 140.031 197.322 140.541 197.648L169.212 215.951C169.73 216.281 170.071 216.912 170.071 217.618C170.071 218.323 169.73 218.952 169.212 219.283L140.542 237.587C140.284 237.752 140.001 237.832 139.722 237.832C139.442 237.832 139.16 237.752 138.901 237.587L110.23 219.283C109.713 218.952 109.371 218.322 109.371 217.618C109.371 216.912 109.713 216.281 110.23 215.951L138.9 197.648ZM139.451 201.676L115.141 217.196L114.481 217.618L115.141 218.038L139.453 233.56L139.722 233.732L139.991 233.56L164.302 218.038L164.962 217.617L164.302 217.196L139.989 201.676L139.721 201.504L139.451 201.676Z" fill="white" stroke="#3179B4"/>
<path d="M139.221 185.287V220.706L111.552 203.04V167.622L139.221 185.287Z" fill="#4C7698" stroke="#3179B4"/>
<path d="M167.891 203.04L140.221 220.705V185.287L167.891 167.621V203.04Z" fill="#3F3F3F" stroke="#3179B4"/>
<path d="M167.461 166.709L139.721 184.42L111.98 166.709L139.721 149L167.461 166.709Z" fill="#D9DFE6" stroke="#3179B4"/>
<path d="M128.896 191.877V200.929L121.877 196.45V187.398L128.896 191.877Z" fill="white" stroke="#3179B4"/>
<defs>
<linearGradient id="paint0_linear_234_4676" x1="-167.787" y1="902.989" x2="-83.936" y2="926.513" gradientUnits="userSpaceOnUse">
<stop stop-color="#416F95"/>
<stop offset="0.5" stop-color="#2B7DBF"/>
<stop offset="1" stop-color="#058CFA"/>
</linearGradient>
<linearGradient id="paint1_linear_234_4676" x1="-167.787" y1="902.989" x2="-83.936" y2="926.513" gradientUnits="userSpaceOnUse">
<stop stop-color="#416F95"/>
<stop offset="0.5" stop-color="#2B7DBF"/>
<stop offset="1" stop-color="#058CFA"/>
</linearGradient>
</defs>
</svg>
