<svg width="58" height="56" viewBox="0 0 58 56" fill="none" xmlns="http://www.w3.org/2000/svg">
<path d="M12.861 2.09333C12.847 1.56505 13.0311 0.284108 12.3602 0.0830834C11.9339 -0.0454786 9.18755 0.00127126 8.59355 0.0503586C6.96298 0.188271 8.08575 1.90866 7.70605 2.35045C7.66645 2.3972 6.83952 2.59121 6.54602 2.74549C3.48053 4.36537 0.806389 9.33254 0.207737 12.6751C-0.76828 18.1262 1.77076 23.3996 6.23155 26.4593C3.07056 27.7379 1.67293 30.1643 1.49123 33.5115C1.10455 40.5708 1.78241 47.9923 1.50987 55.0889C1.58674 55.519 1.71253 56.0005 2.23431 55.9889H20.3756C20.6412 56.0847 21.114 55.5354 21.114 55.3718V52.3167H29.232V55.3718C29.232 55.5354 29.7025 56.0847 29.9704 55.9889H51.6244L52.3605 55.7761L58 33.2264C57.9814 32.7308 57.7927 32.455 57.2895 32.3755C56.6466 32.275 53.453 32.2657 52.8637 32.3966C52.7286 32.4269 52.6028 32.483 52.498 32.5719C50.7439 38.5465 49.3789 44.6684 47.7623 50.6921H36.3995C36.8584 46.7651 33.4226 47.429 30.7181 47.4336C30.7438 46.8025 30.8998 45.5333 29.9751 45.5333H21.114C21.4867 40.1033 20.5177 34.8813 17.0562 30.6014H27.2706C27.3172 30.6014 28.0533 30.3045 28.1395 30.2531C29.8656 29.2059 29.4044 26.5926 27.4803 26.1835C26.7745 26.0339 24.6384 26.0386 23.886 26.1227C22.3719 26.2934 21.3889 27.6328 21.9247 29.11H15.633C15.5142 29.11 14.049 27.8174 13.8067 27.6164H19.2855C21.2957 27.6164 24.0887 25.1106 24.0887 23.0676V20.4216H26.5905C26.7465 20.4216 27.0587 19.6806 26.87 19.4702C26.665 18.6895 24.3589 15.5269 24.3589 15.0594V11.0553H27.5385C28.1721 11.0553 28.7358 10.0642 28.808 9.47746C29.0643 7.37839 28.7708 4.44017 26.9212 3.12182C26.4134 2.75951 24.7456 2.09566 24.1562 2.09566H12.861V2.09333ZM9.20852 1.55103H11.3725V8.61025C10.6248 8.42793 9.95625 8.42793 9.20852 8.61025V1.55103ZM12.861 3.58698H24.0211C24.5685 3.58698 25.9685 4.20408 26.3738 4.62015C26.7558 5.01285 27.3359 6.26341 27.3359 6.77766V9.56161H13.7392C13.6903 9.56161 12.861 9.20397 12.861 9.15489V3.58698ZM2.84927 9.56161C3.9371 7.29191 5.36268 4.97078 7.72003 3.86047V8.95152C7.72003 9.00529 6.8931 9.56161 6.84185 9.56161H2.84927ZM10.725 10.0057C16.3108 10.5457 16.3574 18.7363 11.2421 19.545C3.68319 20.7418 3.73444 9.33254 10.725 10.0057ZM22.8704 11.0529V15.4638C22.8704 15.7934 24.9669 18.7433 24.7642 18.9256C21.6242 18.4511 22.8192 20.7629 22.5862 22.7801C22.4022 24.3743 20.7972 26.1204 19.1504 26.1204H12.8587V20.6226C16.4436 18.9443 17.7271 14.253 15.2929 11.0529H22.8704ZM2.17374 11.0529H5.15071C2.82132 14.2717 4.0326 19.0518 7.72003 20.5548V25.4425C7.24717 25.3397 6.76498 24.9657 6.3783 24.6852C2.24363 21.6745 0.382439 15.9032 2.17374 11.0529ZM9.20852 21.0995H11.3725V26.1227H9.20852V21.0995ZM27.2404 27.6421C27.7086 27.7847 27.9019 28.5631 27.4616 28.8973C27.0913 29.1778 24.5709 29.1895 24.0281 29.1007C23.0009 28.9324 23.0684 27.773 23.8884 27.6187C24.2448 27.5509 26.9538 27.5556 27.2404 27.6421ZM2.98438 54.4929V33.1118C2.98438 30.5429 5.2136 27.8805 7.78759 27.6164C14.0513 26.9736 18.7427 34.3039 19.4695 39.7807C19.7234 41.6857 19.5906 43.6142 19.6232 45.5333H12.9938V41.5291C12.9938 40.9658 11.673 40.69 11.51 41.5315C11.4075 42.0574 11.4075 46.0218 11.51 46.5477C11.5659 46.8376 12.0108 47.1625 12.2507 47.1625H29.2273V50.6921H9.00353C8.47476 50.6921 7.57328 49.5234 7.4801 48.9624C7.12371 46.8399 7.70606 43.9788 7.44983 41.7979C7.31705 40.6783 6.07548 40.7601 5.95435 41.6577C6.15002 43.9975 5.71209 46.702 5.95901 48.9951C6.15235 50.7763 7.89706 52.319 9.67905 52.319H19.6232V54.4905H2.98438V54.4929ZM53.5788 33.8598H56.2856L52.2278 50.6921H49.3859L53.5788 33.8598ZM30.7181 48.9273H34.3031C34.9949 48.9273 34.9693 50.2129 34.911 50.6921H30.7181V48.9273ZM30.7181 52.3213H51.685L51.2797 54.4929H30.7181V52.3213Z" fill="white"/>
<path d="M47.937 32.3966L35.5167 32.3638C34.4731 32.3755 34.3473 33.7266 35.3769 33.8668H47.8369C48.7593 33.757 48.8758 32.6046 47.937 32.3966Z" fill="white"/>
<path d="M47.0192 38.3408C47.6062 38.1772 47.6109 36.9547 46.3484 36.8401C42.5305 36.4942 38.1838 37.1066 34.3101 36.8542C33.1663 37.0435 33.553 38.3385 33.8954 38.3385H47.0169L47.0192 38.3408Z" fill="white"/>
<path d="M45.801 42.8194C46.6815 42.5646 46.0921 41.1248 45.1301 41.3188C41.4566 41.6998 36.7839 40.8232 33.2316 41.3375C31.8805 41.5338 32.4233 42.8171 32.6772 42.8171H45.7986L45.801 42.8194Z" fill="white"/>
<path d="M11.0021 11.4924C9.5323 11.2399 7.90871 11.7986 7.2029 13.1824C6.94667 13.6849 6.62289 14.4236 7.1074 14.856C8.16961 15.8027 8.37925 13.5704 9.30635 13.1193C11.5076 12.0487 13.3968 15.1412 11.1978 16.511C10.7017 16.8195 9.67207 16.913 10.089 17.8363C10.5386 18.8321 12.2926 17.7171 12.7958 17.1631C14.4893 15.2978 13.5482 11.9272 11.0021 11.49V11.4924Z" fill="white"/>
</svg>
