<svg width="180" height="31" viewBox="0 0 180 31" fill="none" xmlns="http://www.w3.org/2000/svg">
<path d="M20.6881 17.8559L8.95167 17.8419C4.36944 17.3972 4.34435 7.50035 7.28828 5.25281C7.54225 5.06026 8.3078 4.65066 8.60112 4.65066H18.2019V0.540666C15.2508 0.670197 12.146 0.365624 9.21278 0.540666C3.57532 0.876747 0.463231 4.49662 0.0482904 9.87392C-0.0160968 10.6861 -0.0160968 11.9744 0.0482904 12.7866C0.405997 17.3937 3.36429 21.7383 8.50811 21.6963H25.3919L23.6677 20.8526C22.3835 20.1209 21.4714 19.0636 20.6881 17.8559Z" fill="#251535"/>
<path d="M62.1821 17.0715L55.9115 0.540527H48.7645C48.7645 0.540527 48.6321 0.659556 48.6321 0.670059V21.6121H53.1928V5.34019L59.5457 21.6191L65.0759 21.5281L71.0818 5.85481V21.6156H75.8178V0.540527H68.2773L62.1821 17.0715Z" fill="#251535"/>
<path d="M43.0662 16.1261H37.4968V18.0095H30.3497C28.74 18.0095 26.8728 16.3501 26.2934 14.9498C26.0322 14.3162 25.9607 13.6335 25.9213 12.9578H40.04V9.19091H25.9213C25.8534 6.81033 27.8171 4.58029 30.2603 4.39125H41.3099C41.5388 4.35274 42.4081 3.07143 42.4081 2.98041V0.666347C42.4081 0.59633 42.197 0.51581 42.104 0.533314C33.7337 1.06544 21.9722 -2.30587 20.0692 8.91434C18.9603 15.4539 22.1868 21.3003 29.3803 21.6959C33.798 21.941 38.4518 21.5034 42.8945 21.6959C42.9839 21.7134 43.1986 21.6329 43.1986 21.5629V16.2521C43.1986 16.2521 43.0769 16.1226 43.0662 16.1226V16.1261Z" fill="#251535"/>
<path d="M83.4477 7.34968C83.4477 7.25865 83.2867 6.82455 83.233 6.70202L79.5415 0.79959C79.4771 0.687563 79.1051 0.540527 79.0157 0.540527H76.8658V21.6086H80.375V15.5697C80.375 15.5312 80.7971 15.1846 80.8579 15.1846H83.4441V7.34617L83.4477 7.34968Z" fill="#251535"/>
<path d="M41.0916 6.91907V15.1846H43.5919C43.6635 15.1846 44.0749 15.4156 44.0749 15.4856V21.6086H47.584V0.540527H45.173L41.0951 6.92257L41.0916 6.91907Z" fill="#251535"/>
<path d="M67.1362 0.540527H57.0525L62.1391 14.0713L67.1362 0.540527Z" fill="#251535"/>
<path d="M160.709 24.6507C160.609 25.6239 160.598 27.959 160.73 28.9112C160.841 29.7059 161.271 30.1715 162.022 30.4306H163.073C163.749 30.1575 164.168 29.8249 164.279 29.0792C164.422 28.099 164.404 25.4874 164.3 24.4791C164.089 22.4066 160.938 22.3821 160.705 24.6507H160.709ZM163.08 28.7642C162.998 29.6639 162.05 29.5168 161.943 28.8412C161.814 28.0325 161.854 25.5959 161.932 24.7312C161.968 24.3566 162.1 24.0625 162.53 24.024C162.83 23.996 163.038 24.206 163.073 24.4826C162.987 25.8619 163.209 27.4058 163.084 28.7642H163.08Z" fill="#251535"/>
<path d="M115.67 22.9879C114.393 22.8164 113.635 23.4116 113.527 24.6474C113.438 25.6556 113.406 28.0397 113.538 29.0094C113.635 29.7236 114.082 30.1892 114.758 30.4307H115.809C116.271 30.3012 117.036 29.6781 117.036 29.1879V27.6021H115.895V29.0164C115.895 29.4085 114.801 29.496 114.776 28.9989L114.794 24.3463C114.915 23.9682 115.584 23.9262 115.802 24.2307C116.006 24.5178 115.849 25.1935 115.895 25.5506H117.036V24.3078C117.036 23.6846 116.278 23.0685 115.67 22.9879Z" fill="#251535"/>
<path d="M144.838 24.7383C144.795 23.4885 143.961 22.8128 142.695 22.9843C141.286 23.1734 141.042 24.8083 141.547 25.8901C142.015 26.8913 143.793 27.6405 143.603 28.8413C143.568 29.0583 143.442 29.2719 143.214 29.3174C142.291 29.4959 142.477 28.7502 142.47 28.1201H141.243C141.232 29.1528 141.425 30.1191 142.559 30.4342H143.611C144.945 29.9685 145.106 28.4212 144.473 27.3219C144.022 26.5377 142.702 25.9111 142.566 25.0744C142.312 23.534 143.922 23.786 143.7 25.1234C144.169 25.0463 144.866 25.3824 144.845 24.7418L144.838 24.7383Z" fill="#251535"/>
<path d="M131.195 22.9741C129.488 23.0511 129.234 24.8611 129.943 26.0864C130.368 26.8215 131.695 27.6057 131.835 28.3479C131.889 28.635 131.924 29.2441 131.549 29.3141C130.551 29.4997 130.708 28.8415 130.715 28.1133H129.574C129.47 29.1776 129.685 30.0563 130.801 30.4274H131.853C133.348 29.9478 133.352 28.1519 132.54 27.0596C132.067 26.4224 130.908 25.7538 130.808 24.9836C130.615 23.4992 132.178 23.8598 131.939 25.1201H133.08C133.119 23.8248 132.65 22.9076 131.191 22.9741H131.195Z" fill="#251535"/>
<path d="M166.146 24.3955C166.207 24.0944 166.64 23.9509 166.908 24.0699C167.359 24.2729 167.09 24.8401 167.233 25.0431C167.351 25.2112 168.106 25.0851 168.335 25.1236C168.514 23.6918 167.727 22.7676 166.207 23.0021C164.851 23.2122 164.636 24.8611 165.13 25.8973C165.595 26.8741 167.444 27.7038 167.176 28.9151C167.09 29.3072 166.736 29.3912 166.364 29.3177C165.921 29.2301 165.967 28.4845 165.967 28.1204H164.826C164.787 29.1111 164.998 30.0808 166.053 30.4344H167.105C168.575 29.9898 168.675 28.3934 167.967 27.2382C167.359 26.2474 165.853 25.8308 166.142 24.399L166.146 24.3955Z" fill="#251535"/>
<path d="M174.409 24.9693C174.191 23.6565 175.879 23.737 175.529 25.1198H176.67C176.748 24.2376 176.509 23.2714 175.514 23.0368C173.407 22.5362 172.674 24.5702 173.586 26.1211C174.087 26.9753 175.207 27.3639 175.439 28.3441C175.8 29.867 173.905 29.5834 174.305 28.1166H173.164C173.089 29.1318 173.304 30.0875 174.391 30.4306H175.443C176.527 30.056 176.791 29.2333 176.662 28.1691C176.484 26.7337 174.602 26.1141 174.413 24.9693H174.409Z" fill="#251535"/>
<path d="M102.764 24.672C102.8 24.0244 103.58 23.7793 103.819 24.2834C104.152 24.9941 103.458 25.2427 105.025 25.1201C105.136 23.9053 104.671 22.9741 103.315 22.9741C101.845 22.9741 101.405 24.1259 101.626 25.4002C101.855 26.727 104.059 27.4972 103.869 28.824C103.805 29.2791 103.501 29.4052 103.054 29.3177C102.585 29.2266 102.65 28.4845 102.657 28.1204H101.516C101.451 29.1111 101.698 30.0808 102.743 30.4344H103.794C105.264 30.0458 105.336 28.2779 104.62 27.1856C104.091 26.3769 102.696 25.8028 102.764 24.6755V24.672Z" fill="#251535"/>
<path d="M153.691 27.1749L152.553 23.0649H150.976V30.3432H152.113V25.463L153.515 30.3432H154.746V23.0649H153.691V27.1749Z" fill="#251535"/>
<path d="M122.33 23.0581L120.638 23.0721C120.263 25.4947 119.784 27.9138 119.49 30.3434C119.68 30.3084 120.456 30.3994 120.535 30.3329C120.592 30.2839 120.731 29.2371 120.721 29.0586H122.212C122.252 29.2791 122.259 30.1473 122.338 30.2628C122.456 30.4344 123.282 30.3014 123.529 30.3434L122.391 23.1176L122.334 23.0581H122.33ZM120.896 28.0328L121.422 24.609L121.948 28.0363H120.896V28.0328Z" fill="#251535"/>
<path d="M169.927 23.0754L168.686 30.3431H169.823L169.999 29.0583L171.39 29.0688C171.526 29.4749 171.608 29.909 171.576 30.3431H172.803L171.658 23.0684L169.92 23.0754H169.927ZM170.177 28.0326L170.75 24.6928L171.233 28.0326H170.181H170.177Z" fill="#251535"/>
<path d="M137.994 23.065L136.853 30.3013C136.861 30.3678 137.808 30.3818 137.912 30.3083C138.066 30.2033 137.962 29.3105 138.163 29.097L139.522 29.0585L139.747 30.3468H140.974L139.694 23.0615H137.994V23.065ZM138.259 28.0327L138.785 24.6089L139.021 25.5331L139.397 28.0327H138.256H138.259Z" fill="#251535"/>
<path d="M107.958 23.0649H105.722V30.3467H106.949V27.6055C107.929 27.6721 108.816 27.5495 109.117 26.5098C109.339 25.7396 109.346 24.0347 108.709 23.4465C108.609 23.3555 108.051 23.0649 107.958 23.0649ZM107.908 26.3522C107.7 26.6708 106.863 26.6288 106.863 26.4468C106.863 26.0057 106.77 24.5073 106.863 24.2202C106.935 23.9927 107.775 24.0207 107.94 24.3708C108.058 24.6228 108.054 26.1247 107.908 26.3557V26.3522Z" fill="#251535"/>
<path d="M109.671 30.3432H112.916V29.3175H110.898V27.1749H112.565V26.1492H110.898V24.0942H112.916V23.0649H109.671V30.3432Z" fill="#251535"/>
<path d="M147.116 30.3432H150.36V29.3175H148.343V27.1749H149.92V26.1492H148.343V24.0942H150.36V23.0649H147.116V30.3432Z" fill="#251535"/>
<path d="M97.8312 30.3432H101.076V29.3175H98.9722V27.1749H100.636V26.1492H98.9722V24.0942H101.076V23.0649H97.8312V30.3432Z" fill="#251535"/>
<path d="M137.029 23.0649H133.348V24.0942H134.575V30.3432H135.802V24.0942H137.029V23.0649Z" fill="#251535"/>
<path d="M125.278 23.0649H124.051V30.3432H127.21V29.3175H125.278V23.0649Z" fill="#251535"/>
<path d="M158.427 23.0649H157.2V30.3432H160.358V29.3175H158.427V23.0649Z" fill="#251535"/>
<path d="M118.965 23.0649H117.738V30.3467H118.965V23.0649Z" fill="#251535"/>
<path d="M128.962 23.0649H127.735V30.3467H128.962V23.0649Z" fill="#251535"/>
<path d="M136.242 12.5732C139.132 13.2734 142.917 12.3982 145.907 12.8953C149.391 13.4764 149.302 17.3834 145.932 17.8385L130.254 17.856C129.431 18.9307 128.633 19.9495 127.503 20.7372C126.991 21.0943 126.419 21.3218 125.897 21.6509L148.218 21.6964C156.309 21.3638 157.357 9.6745 148.568 9.10036C145.957 8.92882 143.088 9.30691 140.495 9.10737C137.966 8.91132 136.678 6.01262 139.078 4.63328C139.247 4.53526 139.915 4.22018 140.059 4.22018H153.344V0.666824C153.344 0.596807 153.133 0.516287 153.04 0.533791C148.196 0.750844 143.117 0.260725 138.302 0.537292C129.928 1.02391 128.823 10.7703 136.238 12.5697L136.242 12.5732Z" fill="#251535"/>
<path d="M99.1083 0.537109H82.0456V3.06822C82.0456 3.32378 84.3242 6.2855 84.3242 6.49555V16.1299H81.2981C81.0083 16.1299 81.2515 17.1696 81.2587 17.3692C81.3016 18.808 81.2193 20.2574 81.2551 21.6962H89.6755V14.3304H99.3658C108.655 13.5638 108.813 0.985218 99.1083 0.537109ZM97.1731 10.6476H89.6755V4.13948H96.9119C97.9886 4.13948 99.5697 5.10221 100.042 6.05094C101.001 7.97641 99.3372 10.6476 97.1766 10.6476H97.1731Z" fill="#251535"/>
<path d="M130.683 11.0465C130.683 2.18585 125.668 -0.324255 117.194 0.221877C109.442 0.722498 106.123 5.79523 106.963 13.077C107.657 19.1089 111.413 21.7381 117.43 22.0427C125.664 22.4558 130.686 19.6096 130.686 11.0465H130.683ZM117.441 18.1742C114.611 17.7961 112.962 16.2453 112.501 13.4936C111.789 9.26107 112.815 4.40539 117.984 3.99229C124.001 3.51267 125.7 8.24232 125.006 13.2485C124.427 17.4215 121.483 18.7134 117.444 18.1742H117.441Z" fill="#251535"/>
<path d="M167.423 0.533691L162.372 0.579203L153.519 21.6963H158.867L160.852 16.9107C163.814 16.9177 166.811 16.8406 169.752 16.9492L171.422 21.4653C171.462 21.5563 171.737 21.6928 171.801 21.6928H176.931L167.681 0.621213L167.419 0.533691H167.423ZM162.286 13.1297L165.18 5.85148L167.988 13.1297H162.286Z" fill="#251535"/>
<path d="M172.02 1.99703L172.975 4.59816C173.057 4.70318 173.697 4.71369 173.758 4.50714L174.738 1.82199V4.64717H175.439V0.663207C175.439 0.498667 174.645 0.46716 174.516 0.617696L173.379 3.70544C173.125 3.35186 172.413 0.638701 172.27 0.547679C172.177 0.488164 171.283 0.495166 171.229 0.663207V4.64717H172.02V1.99353V1.99703Z" fill="#251535"/>
<path d="M178.598 2.80935C180.097 2.57479 180.043 0.719342 178.465 0.540799C177.743 0.456778 176.881 0.600313 176.14 0.540799V4.65079H176.931V3.06491C176.931 3.0439 176.827 2.99839 176.881 2.93538C177.668 2.6203 178.04 3.07541 178.458 3.62855C178.952 4.2832 178.902 4.84684 180 4.64729C179.582 3.99964 179.202 3.30997 178.598 2.80585V2.80935ZM176.931 2.33673V1.05192C177.371 1.10444 177.961 0.981906 178.38 1.05192C179.17 1.18846 178.923 2.33673 178.469 2.33673H176.934H176.931Z" fill="#251535"/>
</svg>
