<svg width="79" height="56" viewBox="0 0 79 56" fill="none" xmlns="http://www.w3.org/2000/svg">
<path d="M61.2736 12.9869H64.9578C65.1434 12.9869 67.5071 10.5208 67.5835 10.3492C67.6206 10.2656 67.0728 9.01821 67.0248 8.59582C66.6494 5.31352 69.5981 2.75939 72.7301 3.83296C77.5777 5.49611 75.9866 12.9363 70.7068 12.3071C70.2551 12.2543 69.3209 11.7923 69.0873 11.8517C68.6137 11.9727 66.0099 15.1296 65.7785 15.1296H61.2779V22.2244H66.0251C66.0688 22.2244 66.0993 21.626 66.2303 21.3598C68.7534 16.2208 76.4035 19.8111 74.127 25.0293C72.5053 28.7494 66.9331 28.327 66.023 24.3693H61.2758V30.8042H65.4489L71.019 33.2747C72.5512 31.9151 74.031 31.0285 76.1241 31.7589C79.5465 32.9535 80.0594 37.8857 76.8771 39.6809C73.9546 41.3286 70.6567 39.3927 70.314 36.1148C70.2834 35.82 70.4668 35.3052 70.4406 35.2678C70.2725 35.0302 65.7283 33.4397 65.1237 32.9491H61.2779V37.4854C61.2779 37.8021 60.6144 39.3487 60.4355 39.7711C56.9127 48.1814 47.6671 53.0675 39.5609 56C32.0832 53.3777 23.6714 49.024 19.6139 41.861C19.28 41.2692 17.7347 38.0903 17.7347 37.6503V32.9469H13.8889C13.2844 33.4375 8.74014 35.028 8.57208 35.2656C8.54589 35.303 8.72923 35.8178 8.69867 36.1126C8.35382 39.3905 5.05807 41.3264 2.13554 39.6787C-2.16858 37.25 0.564056 30.208 5.62336 31.7083C6.66666 32.0185 7.14465 32.7005 7.99369 33.2725L13.5637 30.802H17.7369V24.3671H12.9897C12.0621 28.4458 6.19739 28.7186 4.79834 24.7851C2.91692 19.4921 10.3575 16.4166 12.7824 21.3576C12.9133 21.6238 12.9439 22.2222 12.9875 22.2222H17.7347V15.1274H13.2342C13.0028 15.1274 10.3989 11.9705 9.9253 11.8495C9.69176 11.7901 8.75542 12.2499 8.3058 12.3049C3.01732 12.9363 1.45456 5.48731 6.28252 3.83076C9.41457 2.75719 12.3633 5.30912 11.9879 8.59362C11.9399 9.01601 11.3898 10.2634 11.4291 10.347C11.5055 10.5164 13.8693 12.9847 14.0548 12.9847H17.7391V8.94121C17.7391 7.62345 20.4455 7.82584 21.3993 7.68065C27.4605 6.76107 31.8672 5.17272 36.9439 1.73422C37.5551 1.31624 38.9236 -0.0345237 39.5587 0.000675281C40.0825 0.0292744 41.9356 1.65283 42.5598 2.06641C46.9993 5.00113 51.2139 6.63348 56.4718 7.51345C57.3361 7.65865 60.4485 7.81264 60.8742 8.19103C60.9789 8.28563 61.2736 8.85101 61.2736 8.94341V12.9869ZM59.1215 10.0412C57.2728 9.73098 55.4132 9.51759 53.5777 9.1128C48.3874 7.96884 43.6686 5.64131 39.443 2.4426C33.8555 6.98767 26.9803 9.28 19.8802 10.0434L19.8715 37.1466C22.5692 45.8957 31.4852 50.916 39.5696 53.7341C47.5951 50.8082 56.4413 45.8957 59.1302 37.1466L59.1215 10.0412ZM7.21013 5.7645C4.9664 6.15389 4.83762 9.80358 7.17957 10.171C10.8376 10.743 10.7263 5.15512 7.21013 5.7645ZM70.8902 5.7667C68.4544 6.15389 68.5264 9.92898 71.0102 10.1886C74.5068 10.5538 74.234 5.23432 70.8902 5.7667ZM8.83618 20.966C6.2214 20.9814 5.7696 24.7499 8.26433 25.4121C11.5666 26.2899 12.0708 20.9484 8.83618 20.966ZM68.5308 21.6238C66.6908 23.4608 69.238 26.9301 71.5908 24.9567C74.0113 22.9262 70.6938 19.4635 68.5308 21.6238ZM2.72485 37.514C4.57353 39.3773 7.84964 36.8804 6.10791 34.5176C4.1872 31.9129 0.548778 35.3206 2.72485 37.514ZM76.2769 37.514C78.4551 35.3184 74.8145 31.9107 72.8938 34.5176C71.1259 36.9156 74.4391 39.3663 76.2769 37.514Z" fill="white"/>
<path d="M39.2968 5.58851C39.9865 5.47191 42.1975 7.13946 42.9919 7.57065C47.1127 9.80138 51.4976 11.3215 56.1575 11.9551C56.714 12.2499 56.8079 12.6437 56.8603 13.2267C57.5238 20.5613 56.343 28.899 56.8603 36.3414C54.6777 44.2062 46.5845 48.485 39.5718 51.2657C32.4892 48.5928 24.3327 44.215 22.1436 36.3414C22.6587 28.899 21.4822 20.5657 22.1436 13.2267C22.2003 12.5931 22.3269 12.1751 22.962 11.9067C27.5586 11.3369 31.961 9.76838 36.0119 7.57065C36.7191 7.18786 38.7533 5.6809 39.2989 5.59071L39.2968 5.58851ZM54.717 13.8207C49.3106 12.9759 44.0876 10.9607 39.5543 7.89844C34.9272 10.8551 29.7456 13.0309 24.2869 13.8207V36.4888C25.9348 40.8557 29.595 43.9048 33.4997 46.1795C34.5015 46.7625 38.6594 48.9866 39.5718 48.947C40.1305 48.9228 42.5008 47.77 43.1644 47.4489C47.9116 45.1301 52.7635 41.6168 54.7191 36.491V13.8207H54.717Z" fill="white"/>
<path d="M36.5555 27.0114H46.2943C46.7047 27.0114 46.9906 27.7066 47.0342 28.0806C47.2481 29.8956 47.2438 35.0104 47.0342 36.8319C46.936 37.6855 46.6021 37.8373 45.812 37.9099C42.6668 38.1959 36.3372 38.1959 33.1921 37.9099C32.3998 37.8373 32.068 37.6877 31.9698 36.8319C31.649 34.0556 32.1859 30.6347 32.0069 27.7902C32.2535 26.7144 33.5893 27.0554 34.4274 27.0114V23.298C34.4274 22.9042 35.0211 21.5534 35.2721 21.1794C37.2299 18.2689 41.3813 18.1127 43.5159 20.9C44.2034 21.7976 45.406 24.7279 43.6381 25.0029C42.4638 25.1855 42.5337 23.8215 42.3765 23.2034C41.8985 21.3488 39.6111 20.4534 37.972 21.4236C37.5377 21.681 36.5555 22.8118 36.5555 23.2957V27.0114ZM44.904 29.1564H34.1V35.7562H44.904V29.1564Z" fill="white"/>
<path d="M39.1266 30.5094C39.7006 30.3378 40.3619 30.593 40.4776 31.2222C40.6719 32.2715 40.7439 35.1292 39.0109 34.3483C38.2623 34.0095 38.2077 30.7844 39.1244 30.5094H39.1266Z" fill="white"/>
</svg>
