<svg width="173" height="59" viewBox="0 0 173 59" fill="none" xmlns="http://www.w3.org/2000/svg">
<path d="M0.494644 0.471145H54.8987L54.8096 55.5048C54.5467 55.442 54.2927 55.3434 54.0119 55.3434C47.4704 55.321 40.9245 55.3434 34.3875 55.3882L33.9463 55.6796C33.5185 54.7788 34.2983 54.4606 34.6682 53.7077C35.1672 52.6948 35.7287 51.449 36.1877 50.5078C36.3971 50.0731 36.7625 48.8496 36.5442 48.4149L36.8695 48.4956C36.5308 47.8637 37.0076 48.0609 37.0388 47.8996C37.0655 47.7651 36.923 47.5545 36.9497 47.4335C37.226 46.1652 37.5379 44.9193 37.52 43.5972H24.6911C24.8158 44.5473 24.2722 45.4571 24.5262 46.3758L24.2009 46.2952C24.5351 46.8016 24.1251 46.6402 24.0538 46.824C23.7018 47.7606 23.4166 48.7735 22.8685 49.4457C18.8714 54.353 10.3292 53.9138 6.17166 49.1902C5.98896 48.9796 5.28489 47.7651 5.17794 47.7024C5.13338 47.6755 4.91504 47.8996 4.87939 47.8458C5.0309 46.8912 4.20208 45.9187 3.85896 44.8655C1.39476 37.2738 3.02568 23.856 12.7711 22.8745C14.6293 22.6863 17.3697 22.8252 19.1343 23.4571C19.8206 23.7036 20.8811 24.219 21.2777 24.5685C21.7322 24.9674 22.2803 25.6979 22.8997 25.308C22.5254 26.1774 23.1225 26.1953 23.4523 26.6614C23.782 27.1275 23.9246 28.2972 24.4727 28.6109L24.6866 30.5335L37.0834 30.4842C37.2304 30.4483 37.3685 30.3453 37.4309 30.2108C37.7117 29.6103 37.0254 26.5718 36.7804 25.7965C36.6779 25.4738 35.3767 22.4487 35.2475 22.3053C35.0781 22.1126 34.7929 22.2381 34.7484 22.2023C34.7217 22.1798 34.8865 21.8437 34.735 21.4987C34.4053 20.7771 33.6656 20.6203 33.621 20.562C33.6076 20.5441 33.7903 20.2931 33.7012 20.087C33.5497 19.7374 32.9125 19.4506 32.6897 19.2131C30.7914 17.165 28.9555 15.6233 26.2596 14.3192C18.9472 10.7787 9.02354 10.7384 1.82254 15.2917C1.67104 15.3858 1.63094 15.6009 1.57746 15.6278C1.23435 15.7981 0.837736 15.4082 0.971418 16.1611C0.93577 16.2328 0.54366 15.9684 0.494644 16.0087C0.427803 16.067 0.610499 16.3897 0.325311 16.3224C0.178261 16.0849 0.325311 15.8877 0.325311 15.7533V0.636963C0.325311 0.636963 0.0891212 0.654889 0 0.636963V0.480108C0.303012 0.574221 0.303027 0.143991 0.405517 0.148472L0.485723 0.475627L0.494644 0.471145Z" fill="#251535"/>
<path d="M109.227 54.0482C109.312 54.0482 109.445 53.7748 109.722 54.0257C110.047 54.317 109.936 54.9041 110.158 55.1506C110.198 55.191 111.058 55.6526 111.165 55.6884C114.142 56.6699 115.31 53.9585 114.989 51.4354L114.276 52.0897C114.16 52.2645 114.65 52.5199 113.692 52.4169L113.857 52.7395C112.204 53.0488 111.036 53.4566 109.338 52.9547C107.93 52.5379 107.061 51.8387 106.38 50.5391C105.947 49.71 105.653 48.7868 105.733 47.8367L105.413 48.0025C105.658 46.9001 105.537 45.82 105.782 44.6996C106.041 43.521 106.879 42.0286 107.739 41.195C107.855 41.083 108.175 41.1009 108.358 40.9037C108.487 40.7603 108.318 40.5004 108.336 40.4869C108.425 40.4332 108.808 40.6169 108.986 40.59C109.619 40.4914 110.296 40.1732 111.014 40.1508C111.29 40.1419 113.086 40.2763 113.264 40.3301C113.376 40.3659 114.717 41.7149 114.913 41.9569C115.158 41.939 114.9 40.711 114.833 40.4869H118.161C118.197 40.4869 118.344 40.2449 118.402 40.3256C118.384 40.5721 118.469 40.8186 118.473 41.0606C118.554 44.7579 118.75 50.2433 118.402 53.8017C118.215 55.6974 117.457 55.7915 116.762 57.0687C116.66 57.257 116.798 57.4676 116.78 57.4766C116.682 57.5214 116.432 57.3287 116.241 57.3645C115.911 57.4228 115.167 57.9561 114.708 58.086C112.948 58.588 111.428 58.4894 109.668 58.1757C109.481 58.1443 109.249 58.2877 109.178 58.2608C109.151 58.2519 109.138 58.0233 109.035 57.974C108.166 57.5393 107.257 57.2614 106.714 56.4189C106.295 55.7601 105.961 54.8324 106.063 54.0526C107.115 54.0571 108.175 54.0482 109.231 54.0526L109.227 54.0482ZM112.997 43.158C111.905 42.7546 110.604 43.2834 109.962 44.2066C109.174 45.345 109.2 46.7342 109.485 48.0429C109.512 48.1594 109.717 48.1504 109.753 48.249C109.775 48.3073 109.641 48.6165 109.766 48.9123C109.797 48.984 110.724 50.064 110.796 50.0954C111.058 50.2119 111.308 49.9251 111.575 49.9654L111.41 50.2881C111.852 50.2209 112.547 50.4046 112.934 50.2657C113.139 50.1895 113.166 49.8893 113.233 49.8579C113.91 49.5263 114.031 49.5263 114.472 48.7106C115.131 47.4871 115.024 45.3181 114.276 44.1394C113.928 43.5927 113.567 43.6151 113.166 43.4089C113.024 43.3372 113.019 43.1624 112.988 43.1535L112.997 43.158Z" fill="#251535"/>
<path d="M80.0755 26.9347C79.7591 27.5128 79.6923 27.943 79.9106 28.5704L79.5898 28.4046C79.5764 28.8841 79.4739 29.3816 79.2957 29.8253C77.7984 33.5181 74.4564 34.5623 70.7311 34.2934C61.0437 33.5853 60.705 17.1021 70.3212 15.7397C75.1426 15.0585 79.0996 17.2186 79.9106 22.1976H75.7709C75.5214 22.1976 75.6551 21.6195 75.5749 21.4313C74.5633 19.1547 72.01 18.5362 69.8622 19.6835C66.8722 21.2789 66.6761 27.2887 68.864 29.5967C68.9977 29.7356 69.1982 29.6863 69.2918 29.7625C69.8666 30.2421 70.1964 30.8874 71.1411 30.5244L70.9762 30.8471C73.6365 31.2549 75.713 29.6281 75.8511 26.9302H80.0755V26.9347Z" fill="#251535"/>
<path d="M81.3721 35.5884V35.7497H81.0468V41.6295C81.5102 41.7236 81.3543 41.2934 81.7019 41.0649C84.1616 39.438 87.058 39.9848 88.9207 42.127C89.0677 42.2973 89.3885 42.3914 89.4509 42.49C89.4955 42.5572 89.9233 43.8255 89.9723 44.0092C90.6006 46.3531 90.507 51.005 88.484 52.69C88.4439 52.7214 88.2433 52.6228 88.1141 52.7304C87.2452 53.4474 87.116 53.7208 85.8237 53.8687C84.5315 54.0166 82.5084 53.797 81.4077 53.0172C81.3008 52.941 81.2473 52.5959 81.1315 52.5825C80.6547 52.8379 81.0869 53.2502 81.0423 53.4698C80.9532 53.9045 80.521 53.5595 80.4809 53.5595H77.1522C77.1077 53.4385 77.3126 53.3623 77.3126 53.313V35.5929H81.3721V35.5884ZM85.2177 50.5568C87.7398 48.7552 86.8798 42.2614 83.1144 43.1353C83.0208 43.1577 81.9469 43.7448 81.8979 43.7941C81.7152 43.9824 81.8712 44.2871 81.8133 44.3722C81.7687 44.444 81.5058 44.4888 81.3989 44.668C80.7304 45.7884 80.775 47.9709 81.2251 49.181C81.283 49.3333 81.488 49.3289 81.537 49.423C81.6662 49.665 81.6172 49.8935 81.8177 50.1311C82.6555 51.1304 84.1839 51.2963 85.2177 50.5568Z" fill="#251535"/>
<path d="M146.172 35.5884V53.3085C146.172 53.3578 146.377 53.434 146.333 53.555H143.004C142.964 53.555 142.532 53.9001 142.442 53.4653C142.398 53.2458 142.83 52.8334 142.353 52.578C142.237 52.5914 142.18 52.9365 142.077 53.0127C140.682 54.0031 138.254 54.1241 136.663 53.5595C134.653 52.8469 134.021 51.2246 133.33 49.4275C133.281 49.2975 133.031 49.3109 133.036 49.2347C133.209 47.0164 132.688 44.6725 134.078 42.62C134.203 42.4362 135.678 40.7287 135.79 40.6615C135.848 40.6301 136.048 40.8094 136.159 40.8049C136.262 40.8049 137.247 40.2402 137.986 40.1775C138.423 40.1417 141.208 40.3433 141.284 40.4957C141.328 40.5808 141.235 40.8318 141.328 40.9349C141.404 41.0245 141.712 41.0066 141.877 41.1276C142.131 41.3158 141.97 41.7461 142.434 41.6295V35.7497H142.108V35.5884H146.168H146.172ZM141.698 44.0092C141.346 43.6193 141.048 43.3012 140.5 43.1712C136.97 42.3421 136.106 46.6265 137.091 49.181C137.149 49.3378 137.349 49.3289 137.403 49.423C137.532 49.6605 137.483 49.8891 137.683 50.1311C138.855 51.5293 140.812 51.1753 141.894 49.9025C142.964 48.6477 142.777 45.2013 141.698 44.0048V44.0092Z" fill="#251535"/>
<path d="M120.269 44.7354C120.224 44.7399 120.086 44.9819 120.028 44.8968C120.015 44.713 120.024 44.5293 120.046 44.3455C120.581 40.1105 124.877 39.8595 128.37 40.348C128.629 40.3838 130.148 40.6214 130.228 40.6751C130.264 40.6975 130.496 41.1502 130.763 41.3743C131.253 41.7821 131.538 41.5939 131.561 41.6342C131.61 41.7328 131.409 41.9838 131.449 42.1765C131.538 42.6291 131.832 42.9697 131.895 43.6688C132.176 46.8776 131.325 50.4853 132.376 53.5552H128.722C128.678 53.5552 128.624 53.7031 128.562 53.6986C128.13 53.47 128.624 52.9277 128.241 52.5737C127.662 52.865 127.675 52.9322 127.831 53.5507C127.55 53.5865 127.622 53.0756 127.425 53.0622C127.368 53.0622 126.704 53.5283 126.365 53.6269C123.927 54.3125 120.1 53.9361 119.73 50.8348C119.632 50.0371 119.663 48.6434 120.06 47.9353C121.499 45.3584 125.108 46.295 127.381 45.3629C127.492 45.318 127.506 45.1343 127.55 45.1074C127.604 45.0716 127.764 45.2105 127.8 45.1836C128.375 44.722 128.089 43.5299 127.59 43.0817C127.488 42.9876 127.332 43.0728 127.225 43.028C127.194 43.0145 127.18 42.7994 127.069 42.777C125.995 42.5753 123.678 42.898 124.257 44.4038C124.057 44.5024 124.061 43.7002 123.771 44.0811C123.714 44.1573 123.812 44.7041 123.771 44.8968C123.714 44.9774 123.562 44.7354 123.531 44.7354C122.564 44.7354 121.182 44.61 120.282 44.7354H120.269ZM128.147 47.514L127.657 48.0025C127.341 48.0204 127.671 47.6619 127.274 47.6753C126.445 47.7022 123.968 48.3072 123.566 49.0333C122.577 50.8169 124.885 51.7446 126.365 51.2696L126.2 50.9469C127.947 51.2247 128.339 48.8719 128.147 47.514Z" fill="#251535"/>
<path d="M76.016 53.5551H71.9565C72.1214 53.3983 72.0189 52.6947 71.8763 52.7395C71.5376 52.7798 70.789 53.5103 70.6955 53.5462C69.7018 53.9002 67.603 53.9899 66.5558 53.842C64.9962 53.6179 63.6014 52.4348 63.3652 50.8438C63.0221 48.5582 63.7886 46.9224 66.0745 46.2547C67.4203 45.8648 69.0244 46.0037 70.2989 45.6048C73.8236 44.5069 70.3657 41.5938 68.0976 43.149C67.9238 43.8212 67.1128 43.9512 67.5673 44.7354H63.6682C63.7485 40.2359 68.8373 39.6713 72.2818 40.3973C74.0999 40.7827 75.2807 41.549 75.4991 43.5299C75.86 46.7745 74.9287 50.436 76.0071 53.5551H76.016ZM71.7917 47.6753C70.9183 47.8098 69.831 47.8143 68.9843 48.0114C68.9487 48.0204 68.5387 48.1862 68.3828 48.24C66.2349 49.0064 66.8543 51.2651 68.8284 51.3905C70.9495 51.525 72.0991 49.6562 71.7917 47.6753Z" fill="#251535"/>
<path d="M102.81 28.4046H93.7156C93.8403 28.9334 93.8091 29.6236 94.0587 30.0987C94.0988 30.1793 94.8964 30.9636 94.9722 31.0129C95.7965 31.4924 96.7145 31.591 97.6057 31.2594C97.775 31.1966 98.7955 30.6723 98.9069 30.5871C99.348 30.251 99.0762 29.8791 99.7981 29.8791H102.396C102.427 29.8791 102.73 29.4712 102.641 29.9597C102.583 30.2914 102.343 30.5513 102.227 30.8605C102.164 31.0219 102.307 31.237 102.271 31.3176C102.231 31.4118 101.117 32.6576 100.939 32.8234C100.186 33.5271 99.7892 33.6436 98.8623 33.9752C98.742 34.02 98.7598 34.2441 98.6618 34.2576C95.6584 34.5757 93.9517 34.3382 91.7014 32.3798C91.5989 32.2901 91.3494 32.3574 91.2915 32.3125C91.2513 32.2857 91.5276 31.3938 90.9484 31.842C90.9083 31.3401 90.73 30.856 90.5072 30.4079C90.4092 30.2062 90.1641 30.2017 90.1552 30.1793C90.0972 30.0314 90.3111 29.8611 90.2576 29.7401C90.2443 29.7043 89.9858 29.7401 89.9858 29.646C89.9947 26.621 89.7809 24.1247 92.2985 21.9332C94.1121 20.3557 98.488 20.0868 100.351 21.6419C101.273 22.4128 102.797 24.8283 102.797 26.0384V28.4046H102.81ZM97.4052 23.5556C95.8678 22.9864 93.9517 24.1785 93.7156 25.7874C93.8671 25.998 98.635 26.0384 98.9202 25.877C99.1609 25.7426 99.0005 25.6574 98.9603 25.5051C98.9292 25.384 98.4835 24.3085 98.4301 24.2368C98.1048 23.8155 97.8998 23.932 97.5077 23.7662C97.4542 23.7438 97.4453 23.569 97.4052 23.5556Z" fill="#251535"/>
<path d="M116.21 29.8748C116.25 29.8748 116.424 29.5656 116.455 29.7941C116.535 30.2826 116.031 30.5022 115.916 30.7263C115.818 30.919 115.871 31.2282 115.791 31.3761C114.414 33.85 111.749 34.5984 108.92 34.2667C108.198 34.1816 107.578 33.6841 106.87 33.9575L107.026 33.6438C106.683 33.5631 106.286 33.3659 106.019 33.1464C104.134 31.6137 103.39 28.7679 103.546 26.3613C103.746 23.269 106.812 20.6966 109.869 20.5621C111.005 20.5128 113.897 21.1851 114.614 22.0724C114.65 22.1127 114.548 22.3189 114.654 22.4444C115.43 23.3676 116.45 24.7345 116.45 26.0386V28.4049H107.355C107.422 31.2641 110.35 32.371 112.538 30.5919C112.703 30.4574 113.001 29.8748 113.122 29.8748C114.146 29.8748 115.18 29.9062 116.205 29.8748H116.21ZM111.696 23.8785C111.25 23.5155 109.793 23.381 109.258 23.5065C109.147 23.5334 109.142 23.744 109.089 23.7664C108.897 23.8471 108.621 23.8426 108.51 23.9188C107.961 24.3042 106.74 25.828 107.917 25.9579C109.338 26.1193 111.001 25.8055 112.444 25.9355C113.108 25.7428 111.941 24.0801 111.696 23.8785Z" fill="#251535"/>
<path d="M104.018 43.5298C104.873 45.1028 104.864 47.2047 104.557 49.0242C104.365 50.158 103.719 51.5518 102.806 52.3271C101.077 53.7926 99.1117 54.1018 96.8881 53.8822C93.7778 53.5775 91.3359 51.0185 91.4428 47.8366L91.1176 47.9172C91.3894 46.277 91.3716 44.7712 92.1781 43.2654C92.2806 43.0772 93.6486 41.2666 93.7511 41.1859C93.7956 41.1501 94.014 41.2442 94.1521 41.177C97.7036 39.3799 101.986 39.7787 104.022 43.5298H104.018ZM100.007 43.7987C99.4459 43.234 97.9977 42.9203 97.2357 43.104C97.0708 43.1444 97.2624 43.6015 96.6386 43.2654L96.7188 43.5925C96.1083 43.3774 95.4176 44.7084 95.2572 45.2238C94.6378 47.2226 95.1414 50.4807 97.4496 51.0364C98.6305 51.3232 100.221 50.297 100.649 49.1766C100.867 48.594 100.694 48.4147 100.729 48.0786C100.738 47.98 100.992 48.0203 101.023 47.8948C101.242 46.9134 100.729 44.5247 100.007 43.7987Z" fill="#251535"/>
<path d="M159.763 50.8928C158.19 53.9895 153.569 54.6259 150.615 53.259C148.895 52.4613 148.391 51.5067 147.634 49.9203C147.585 49.8217 147.362 49.8082 147.344 49.7679C147.273 49.6245 147.135 46.9624 147.143 46.6084C147.175 45.6852 147.473 44.4079 147.852 43.5654C147.932 43.3817 149.037 41.7324 149.131 41.6652C149.167 41.6383 149.345 41.7997 149.394 41.7638C149.465 41.7145 149.501 41.4501 149.688 41.3291C153.609 38.7925 159.638 40.3118 160.454 45.3267C160.73 47.0117 160.547 49.3601 159.768 50.8928H159.763ZM155.868 43.8074C154.937 42.938 153.293 42.8483 152.223 43.5385C150.797 44.4617 150.566 47.7467 151.248 49.1942C151.359 49.4273 152.277 50.6508 152.464 50.7538C152.834 50.9645 153.115 50.7852 153.244 50.8211C153.355 50.8524 153.266 51.1168 153.56 51.1303C154.656 51.1841 156.024 50.3012 156.474 49.2973C157.098 47.908 157.031 44.8919 155.873 43.8119L155.868 43.8074Z" fill="#251535"/>
<path d="M164.687 49.1451C164.513 49.5126 164.852 50.3507 165.097 50.624C165.217 50.754 165.409 50.633 165.458 50.6688C165.574 50.7585 165.592 51.0274 165.855 51.1484C165.962 51.1977 167.125 51.4397 167.192 51.4352C167.294 51.4262 167.272 51.0991 167.374 51.0946C167.771 51.0767 168.301 51.4711 168.863 50.8929C169.197 50.5523 169.687 48.9883 168.907 49.4678C169.014 48.921 168.591 48.8314 168.163 48.6611C166.608 48.0382 163.328 47.832 162.138 46.6354C161.844 46.3397 161.782 45.8153 161.274 45.6092L161.443 43.6597C161.372 43.1757 161.145 42.1942 161.76 42.6065C161.425 41.9388 161.867 42.1808 162.245 41.7057L161.92 41.4637C163.44 40.8946 164.509 40.2716 166.225 40.1551C168.573 39.9938 171.599 40.5181 172.485 43.0009C172.65 43.4625 172.597 43.951 172.802 44.3991H169.068C169.513 42.4138 164.857 42.1852 165.004 43.8165C165.088 44.7621 166.822 45.3672 167.606 45.0534L167.441 45.3761C169.121 45.4747 172.735 46.3934 172.967 48.3967C173.016 48.8224 173.007 49.6022 172.967 50.0414C172.949 50.2745 172.646 51.8072 172.588 51.8834C172.512 51.9864 170.783 53.3175 170.614 53.3981C169.651 53.8463 167.125 53.9673 166.051 53.8821C163.341 53.6715 160.806 52.1612 161.105 49.1406H164.678L164.687 49.1451Z" fill="#251535"/>
<path d="M118.242 16.152H121.325C121.347 16.152 121.249 15.807 121.405 15.8249L121.744 16.2238L121.637 33.2268L121.971 33.9528H118.317C118.259 33.9528 118.144 34.2576 117.912 33.8677L118.237 16.1476L118.242 16.152Z" fill="#251535"/>
<path d="M81.8624 33.9571L82.0272 20.5662C82.2946 20.4945 82.0986 20.8485 82.2902 20.8978C83.2393 21.1264 84.8702 20.6648 85.9218 20.8978C85.9753 21.216 85.5252 20.9785 85.4406 21.0636C85.3737 21.1309 85.5787 22.4126 85.4361 22.6905C85.6456 22.9638 86.1803 21.8972 86.3051 21.7717C87.174 20.9023 89.1035 20.2973 90.2888 20.7499L90.3066 24.1604C88.542 23.766 85.6723 24.5055 86.0822 26.7776L85.757 26.697C85.9174 27.0196 85.5966 27.5216 85.5966 27.6784V33.7241C85.5966 33.7734 85.8015 33.8496 85.757 33.9706H81.8579L81.8624 33.9571Z" fill="#251535"/>
</svg>
