<svg width="178" height="47" viewBox="0 0 178 47" fill="none" xmlns="http://www.w3.org/2000/svg">
<path d="M27.6814 0.419139C35.1425 1.42553 43.1934 9.27536 45.3177 16.3801C51.915 38.4607 25.329 55.4174 8.10707 40.8407C-5.40714 29.4031 -1.41854 6.86003 15.5611 1.97639L27.4146 45.0039L28.1063 34.2056L19.174 0.419139C21.8565 0.673385 25.0762 0.0660203 27.6779 0.419139H27.6814Z" fill="#251535"/>
<mask id="mask0_356_1451" style="mask-type:luminance" maskUnits="userSpaceOnUse" x="0" y="0" width="47" height="47">
<path d="M27.6814 0.419139C35.1425 1.42553 43.1934 9.27536 45.3177 16.3801C51.915 38.4607 25.329 55.4174 8.10707 40.8407C-5.40714 29.4031 -1.41854 6.86003 15.5611 1.97639L27.4146 45.0039L28.1063 34.2056L19.174 0.419139C21.8565 0.673385 25.0762 0.0660203 27.6779 0.419139H27.6814Z" fill="white"/>
</mask>
<g mask="url(#mask0_356_1451)">
<path d="M41.2378 0.0698242L42.0313 2.64759L-5.4071 17.415V0.0698242H41.2378Z" fill="#251535"/>
<path d="M42.0314 2.64746L42.1332 2.97939L-5.40698 17.7786V17.4149L42.0314 2.64746Z" fill="#251535"/>
<path d="M42.1332 2.97949L42.2351 3.31142L-5.40698 18.1424V17.7787L42.1332 2.97949Z" fill="#251535"/>
<path d="M42.2351 3.31152L42.3404 3.64699L-5.40698 18.5098V18.1425L42.2351 3.31152Z" fill="#251535"/>
<path d="M42.3404 3.64697L42.4422 3.9789L-5.40698 18.8735V18.5098L42.3404 3.64697Z" fill="#251535"/>
<path d="M42.4422 3.979L42.544 4.31094L-5.40698 19.2408V18.8736L42.4422 3.979Z" fill="#251535"/>
<path d="M42.544 4.31055L42.6459 4.64601L-5.40698 19.6041V19.2404L42.544 4.31055Z" fill="#251535"/>
<path d="M42.6459 4.646L42.7477 4.97793L-5.40698 19.9678V19.6041L42.6459 4.646Z" fill="#251535"/>
<path d="M42.7477 4.97803L42.853 5.30996L-5.40698 20.3352V19.9679L42.7477 4.97803Z" fill="#251535"/>
<path d="M42.853 5.31006L42.9548 5.64552L-5.40698 20.699V20.3353L42.853 5.31006Z" fill="#251535"/>
<path d="M42.9548 5.64551L43.0567 5.97744L-5.40698 21.0627V20.699L42.9548 5.64551Z" fill="#251535"/>
<path d="M43.0567 5.97754L43.1585 6.30947L-5.40698 21.43V21.0628L43.0567 5.97754Z" fill="#251535"/>
<path d="M43.1585 6.30957L43.2603 6.6415L-5.40698 21.7938V21.4301L43.1585 6.30957Z" fill="#251535"/>
<path d="M43.2603 6.6416L43.3656 6.97706L-5.40698 22.1577V21.7939L43.2603 6.6416Z" fill="#251535"/>
<path d="M43.3656 6.97705L43.4675 7.30898L-5.40698 22.5249V22.1576L43.3656 6.97705Z" fill="#251535"/>
<path d="M43.4675 7.30859L43.5693 7.64053L-5.40698 22.8882V22.5245L43.4675 7.30859Z" fill="#251535"/>
<path d="M43.5693 7.64062L43.6711 7.97609L-5.40698 23.2555V22.8883L43.5693 7.64062Z" fill="#251535"/>
<path d="M43.6711 7.97607L43.7729 8.30801L-5.40698 23.6192V23.2555L43.6711 7.97607Z" fill="#251535"/>
<path d="M43.7729 8.30811L43.8783 8.64004L-5.40698 23.9831V23.6193L43.7729 8.30811Z" fill="#251535"/>
<path d="M43.8783 8.64014L43.9801 8.9756L-5.40698 24.3504V23.9832L43.8783 8.64014Z" fill="#251535"/>
<path d="M43.9801 8.97559L44.0819 9.30752L-5.40698 24.7141V24.3504L43.9801 8.97559Z" fill="#251535"/>
<path d="M44.0819 9.30713L44.1837 9.63906L-5.40698 25.0774V24.7137L44.0819 9.30713Z" fill="#251535"/>
<path d="M44.1837 9.63916L44.2855 9.97462L-5.40698 25.4448V25.0775L44.1837 9.63916Z" fill="#251535"/>
<path d="M44.2855 9.97461L44.3909 10.3065L-5.40698 25.8085V25.4448L44.2855 9.97461Z" fill="#251535"/>
<path d="M44.3909 10.3066L44.4927 10.6386L-5.40698 26.1758V25.8086L44.3909 10.3066Z" fill="#251535"/>
<path d="M44.4927 10.6387L44.5945 10.9741L-5.40698 26.5396V26.1759L44.4927 10.6387Z" fill="#251535"/>
<path d="M44.5945 10.9741L44.6963 11.3061L-5.40698 26.9033V26.5396L44.5945 10.9741Z" fill="#251535"/>
<path d="M44.6963 11.3062L44.7982 11.6381L-5.40698 27.2707V26.9034L44.6963 11.3062Z" fill="#251535"/>
<path d="M44.7982 11.6382L44.9035 11.9736L-5.40698 27.6345V27.2708L44.7982 11.6382Z" fill="#251535"/>
<path d="M44.9035 11.9736L45.0053 12.3056L-5.40698 27.9982V27.6345L44.9035 11.9736Z" fill="#251535"/>
<path d="M45.0053 12.3052L45.1071 12.6371L-5.40698 28.365V27.9978L45.0053 12.3052Z" fill="#251535"/>
<path d="M45.1071 12.6372L45.209 12.9727L-5.40698 28.7288V28.3651L45.1071 12.6372Z" fill="#251535"/>
<path d="M45.209 12.9727L45.3108 13.3046L-5.40698 29.0925V28.7288L45.209 12.9727Z" fill="#251535"/>
<path d="M45.3108 13.3047L45.4161 13.6366L-5.40698 29.4599V29.0926L45.3108 13.3047Z" fill="#251535"/>
<path d="M45.4161 13.6367L45.5179 13.9722L-5.40698 29.8237V29.46L45.4161 13.6367Z" fill="#251535"/>
<path d="M45.5179 13.9722L45.6198 14.3041L-5.40698 30.1909V29.8237L45.5179 13.9722Z" fill="#251535"/>
<path d="M45.6198 14.3042L45.7216 14.6361L-5.40698 30.5547V30.191L45.6198 14.3042Z" fill="#251535"/>
<path d="M45.7216 14.6357L45.8234 14.9712L-5.40698 30.9181V30.5543L45.7216 14.6357Z" fill="#251535"/>
<path d="M45.8234 14.9712L45.9287 15.3031L-5.40698 31.2853V30.918L45.8234 14.9712Z" fill="#251535"/>
<path d="M45.9287 15.3032L46.0306 15.6352L-5.40698 31.6491V31.2854L45.9287 15.3032Z" fill="#251535"/>
<path d="M46.0306 15.6353L46.1324 15.9707L-5.40698 32.0129V31.6492L46.0306 15.6353Z" fill="#251535"/>
<path d="M46.1324 15.9707L46.2342 16.3026L-5.37538 32.3696L-5.40698 32.2601V32.0129L46.1324 15.9707Z" fill="#251535"/>
<path d="M46.2366 16.3015L-5.37256 32.3687L-5.26977 32.7026L46.3394 16.6355L46.2366 16.3015Z" fill="#251535"/>
<path d="M46.3367 16.634L-5.27246 32.7012L-5.16967 33.0351L46.4394 16.968L46.3367 16.634Z" fill="#251535"/>
<path d="M46.4402 16.9671L-5.16895 33.0342L-5.06616 33.3681L46.543 17.301L46.4402 16.9671Z" fill="#251535"/>
<path d="M46.5413 17.303L-5.06787 33.3701L-4.96508 33.7041L46.644 17.6369L46.5413 17.303Z" fill="#251535"/>
<path d="M46.6446 17.6345L-4.96448 33.7017L-4.86169 34.0356L46.7474 17.9685L46.6446 17.6345Z" fill="#251535"/>
<path d="M46.7483 17.9675L-4.86084 34.0347L-4.75805 34.3686L46.8511 18.3015L46.7483 17.9675Z" fill="#251535"/>
<path d="M46.8494 18.3001L-4.75977 34.3672L-4.65698 34.7011L46.9521 18.634L46.8494 18.3001Z" fill="#251535"/>
<path d="M46.953 18.6326L-4.65613 34.6997L-4.55334 35.0337L47.0558 18.9665L46.953 18.6326Z" fill="#251535"/>
<path d="M47.0531 18.9656L-4.55603 35.0327L-4.45324 35.3667L47.1559 19.2995L47.0531 18.9656Z" fill="#251535"/>
<path d="M47.1609 19.3005L-4.44824 35.3677L-4.34545 35.7016L47.2637 19.6345L47.1609 19.3005Z" fill="#251535"/>
<path d="M47.261 19.6331L-4.34814 35.7002L-4.24536 36.0342L47.3638 19.967L47.261 19.6331Z" fill="#251535"/>
<path d="M47.3611 19.9656L-4.24805 36.0327L-4.14526 36.3667L47.4639 20.2995L47.3611 19.9656Z" fill="#251535"/>
<path d="M47.4657 20.2986L-4.14343 36.3657L-4.04064 36.6997L47.5685 20.6326L47.4657 20.2986Z" fill="#251535"/>
<path d="M47.5658 20.6311L-4.04333 36.6982L-3.94055 37.0322L47.6686 20.9651L47.5658 20.6311Z" fill="#251535"/>
<path d="M47.6727 20.9627L-3.9364 37.0298L-3.83361 37.3637L47.7755 21.2966L47.6727 20.9627Z" fill="#251535"/>
<path d="M47.7738 21.2986L-3.83533 37.3657L-3.73254 37.6997L47.8766 21.6325L47.7738 21.2986Z" fill="#251535"/>
<path d="M47.8739 21.6316L-3.73523 37.6987L-3.63244 38.0327L47.9767 21.9656L47.8739 21.6316Z" fill="#251535"/>
<path d="M47.9774 21.9646L-3.63171 38.0317L-3.52893 38.3657L48.0802 22.2986L47.9774 21.9646Z" fill="#251535"/>
<path d="M48.0786 22.3005L-3.53052 38.3677L-3.42773 38.7016L48.1814 22.6345L48.0786 22.3005Z" fill="#251535"/>
<path d="M48.1855 22.6287L-3.42358 38.6958L-3.3208 39.0298L48.2883 22.9626L48.1855 22.6287Z" fill="#251535"/>
<path d="M48.2856 22.9612L-3.32349 39.0283L-3.2207 39.3623L48.3884 23.2951L48.2856 22.9612Z" fill="#251535"/>
<path d="M48.3866 23.2971L-3.22253 39.3643L-3.11975 39.6982L48.4894 23.6311L48.3866 23.2971Z" fill="#251535"/>
<path d="M48.4902 23.6301L-3.1189 39.6973L-3.01611 40.0312L48.593 23.9641L48.4902 23.6301Z" fill="#251535"/>
<path d="M48.5903 23.9627L-3.0188 40.0298L-2.91601 40.3637L48.6931 24.2966L48.5903 23.9627Z" fill="#251535"/>
<path d="M48.6982 24.2976L-2.91089 40.3647L-2.8081 40.6987L48.801 24.6316L48.6982 24.2976Z" fill="#251535"/>
<path d="M48.7983 24.6306L-2.81079 40.6978L-2.708 41.0317L48.9011 24.9646L48.7983 24.6306Z" fill="#251535"/>
<path d="M48.902 24.9597L-2.70715 41.0269L-2.60437 41.3608L49.0048 25.2937L48.902 24.9597Z" fill="#251535"/>
<path d="M49.003 25.2957L-2.60608 41.3628L-2.50329 41.6967L49.1058 25.6296L49.003 25.2957Z" fill="#251535"/>
<path d="M49.103 25.6287L-2.5061 41.6958L-2.40332 42.0298L49.2058 25.9626L49.103 25.6287Z" fill="#251535"/>
<path d="M49.2067 25.9612L-2.40247 42.0283L-2.29968 42.3623L49.3094 26.2951L49.2067 25.9612Z" fill="#251535"/>
<path d="M49.3111 26.2962L-2.29797 42.3633L-2.19519 42.6972L49.4139 26.6301L49.3111 26.2962Z" fill="#251535"/>
<path d="M49.4147 26.6292L-2.19446 42.6963L-2.09167 43.0302L49.5175 26.9631L49.4147 26.6292Z" fill="#251535"/>
<path d="M49.5148 26.9617L-2.09436 43.0288L-1.99157 43.3628L49.6176 27.2956L49.5148 26.9617Z" fill="#251535"/>
<path d="M49.616 27.2942L-1.99316 43.3613L-1.89038 43.6953L49.7187 27.6282L49.616 27.2942Z" fill="#251535"/>
<path d="M49.7195 27.6272L-1.88965 43.6943L-1.78686 44.0283L49.8223 27.9612L49.7195 27.6272Z" fill="#251535"/>
<path d="M49.8229 27.9588L-1.78625 44.0259L-1.68347 44.3598L49.9257 28.2927L49.8229 27.9588Z" fill="#251535"/>
<path d="M49.9275 28.2947L-1.68164 44.3618L-1.57885 44.6958L50.0303 28.6286L49.9275 28.2947Z" fill="#251535"/>
<path d="M50.0276 28.6272L-1.58154 44.6943L-1.47876 45.0283L50.1304 28.9612L50.0276 28.6272Z" fill="#251535"/>
<path d="M50.1276 28.9602L-1.48157 45.0273L-1.37878 45.3613L50.2303 29.2942L50.1276 28.9602Z" fill="#251535"/>
<path d="M50.2322 29.2927L-1.37695 45.3599L-1.27416 45.6938L50.335 29.6267L50.2322 29.2927Z" fill="#251535"/>
<path d="M50.3356 29.6243L-1.27356 45.6914L-1.17077 46.0254L50.4384 29.9582L50.3356 29.6243Z" fill="#251535"/>
<path d="M50.4392 29.9568L-1.16992 46.0239L-1.06713 46.3579L50.542 30.2908L50.4392 29.9568Z" fill="#251535"/>
<path d="M50.5403 30.2932L-1.06885 46.3604L-0.96606 46.6943L50.6431 30.6272L50.5403 30.2932Z" fill="#251535"/>
<path d="M50.6439 30.6257L-0.96521 46.6929L-0.862423 47.0268L50.7467 30.9597L50.6439 30.6257Z" fill="#251535"/>
<path d="M50.7439 30.9583L-0.865234 47.0254L-0.762446 47.3593L50.8467 31.2922L50.7439 30.9583Z" fill="#251535"/>
<path d="M50.8485 31.2932L-0.76062 47.3604L-0.657833 47.6943L50.9513 31.6272L50.8485 31.2932Z" fill="#251535"/>
<path d="M50.952 31.6228L-0.657104 47.6899L-0.554316 48.0239L51.0548 31.9568L50.952 31.6228Z" fill="#251535"/>
<path d="M51.0521 31.9553L-0.557007 48.0225L-0.454219 48.3564L51.1549 32.2893L51.0521 31.9553Z" fill="#251535"/>
<path d="M51.1566 32.2913L-0.452515 48.3584L-0.349727 48.6924L51.2594 32.6252L51.1566 32.2913Z" fill="#251535"/>
<path d="M51.2567 32.6243L-0.352417 48.6914L-0.24963 49.0254L51.3595 32.9582L51.2567 32.6243Z" fill="#251535"/>
<path d="M51.3601 32.9558L-0.249023 49.0229L-0.146236 49.3569L51.4629 33.2898L51.3601 32.9558Z" fill="#251535"/>
<path d="M51.4648 33.2918L-0.144287 49.3589L-0.0414989 49.6928L51.5676 33.6257L51.4648 33.2918Z" fill="#251535"/>
<path d="M51.5664 33.6253L-0.0427246 49.6924L0.0309917 49.9319L51.6401 33.8648L51.5664 33.6253Z" fill="#251535"/>
<path d="M51.6398 33.8611L0.0306396 49.9282L0.104356 50.1677L51.7135 34.1006L51.6398 33.8611Z" fill="#251535"/>
<path d="M51.7141 34.1004L0.10498 50.1675L0.178697 50.407L51.7878 34.3399L51.7141 34.1004Z" fill="#251535"/>
<path d="M51.7884 34.343L0.179321 50.4102L0.253038 50.6497L51.8622 34.5825L51.7884 34.343Z" fill="#251535"/>
<path d="M51.859 34.5835L51.9117 34.7495V34.8307L0.326663 50.887L0.25293 50.6504L51.859 34.5835Z" fill="#251535"/>
<path d="M51.9116 35.0924L0.400271 51.1275L0.326538 50.8874L51.9116 34.8311V35.0924Z" fill="#251535"/>
<path d="M51.9117 35.3536L0.474124 51.3675L0.400391 51.1274L51.9117 35.0923V35.3536Z" fill="#251535"/>
<path d="M51.9117 35.6184L0.547854 51.6076L0.474121 51.3675L51.9117 35.3535V35.6184Z" fill="#251535"/>
<path d="M51.9115 35.8795L0.621463 51.8475L0.547729 51.6074L51.9115 35.6182V35.8795Z" fill="#251535"/>
<path d="M51.9117 36.1412L0.695315 52.088L0.621582 51.8479L51.9117 35.8799V36.1412Z" fill="#251535"/>
<path d="M51.9117 36.406L0.769046 52.3281L0.695312 52.088L51.9117 36.1411V36.406Z" fill="#251535"/>
<path d="M51.9115 36.6671L0.842654 52.568L0.768921 52.3279L51.9115 36.4058V36.6671Z" fill="#251535"/>
<path d="M51.9117 36.9318L0.916506 52.8045L0.842773 52.5679L51.9117 36.667V36.9318Z" fill="#251535"/>
<path d="M51.9117 37.1929L0.990237 53.0445L0.916504 52.8043L51.9117 36.9316V37.1929Z" fill="#251535"/>
<path d="M51.9115 37.4547L1.06385 53.285L0.990112 53.0449L51.9115 37.1934V37.4547Z" fill="#251535"/>
<path d="M51.9115 37.7194L1.13758 53.525L1.06384 53.2849L51.9115 37.4546V37.7194Z" fill="#251535"/>
<path d="M51.9116 37.9805L1.21143 53.765L1.1377 53.5248L51.9116 37.7192V37.9805Z" fill="#251535"/>
<path d="M51.9116 38.2453L1.28516 54.005L1.21143 53.7649L51.9116 37.9805V38.2453Z" fill="#251535"/>
<path d="M51.9115 38.5069L1.35877 54.2454L1.28503 54.0053L51.9115 38.2456V38.5069Z" fill="#251535"/>
<path d="M51.9116 38.7681L1.43262 54.4855L1.35889 54.2454L51.9116 38.5068V38.7681Z" fill="#251535"/>
<path d="M51.9116 39.0329L1.50635 54.722L1.43262 54.4854L51.9116 38.7681V39.0329Z" fill="#251535"/>
<path d="M51.9115 39.294L1.57996 54.9619L1.50623 54.7218L51.9115 39.0327V39.294Z" fill="#251535"/>
<path d="M51.9116 39.5553L1.65381 55.202L1.58008 54.9618L51.9116 39.2939V39.5553Z" fill="#251535"/>
<path d="M51.9116 39.8205L1.80127 55.4213H1.72052L1.65381 55.2024L51.9116 39.5557V39.8205Z" fill="#251535"/>
<path d="M51.9116 40.0816L2.64393 55.4211H1.80127L51.9116 39.8203V40.0816Z" fill="#251535"/>
<path d="M51.9116 40.3464L3.48658 55.421H2.64392L51.9116 40.0815V40.3464Z" fill="#251535"/>
<path d="M51.9116 40.608L4.33275 55.4213H3.48657L51.9116 40.3467V40.608Z" fill="#251535"/>
<path d="M51.9116 40.8692L5.17543 55.4212H4.33276L51.9116 40.6079V40.8692Z" fill="#251535"/>
<path d="M51.9116 41.134L6.01808 55.4212H5.17542L51.9116 40.8691V41.134Z" fill="#251535"/>
<path d="M6.01807 55.4215L51.9116 41.1343V55.4215H6.01807Z" fill="#251535"/>
</g>
<path d="M123.822 29.9683L129.454 12.0511C130.293 11.6697 131.754 11.5391 132.337 12.3336L137.48 29.9754L142.357 12.0652C142.779 11.7827 144.295 11.6909 144.436 11.8286C145.261 12.6231 138.727 31.1372 138.723 34.0716L135.918 33.6161L130.778 15.4516L125.395 33.888L123.545 34.1563L117.12 11.8286C118.127 11.7862 119.195 11.6026 119.612 12.6867L123.826 29.9683H123.822Z" fill="#251535"/>
<path d="M71.7526 11.8249C71.8229 11.8991 71.8545 13.8977 71.7526 13.8977H59.6394C58.3192 13.8977 59.0355 20.4092 58.8669 21.6734H71.24C71.3418 21.6734 71.3418 23.7462 71.24 23.7462H58.8669V31.2641C58.8669 31.3206 59.5867 32.041 59.6394 32.041H72.2688C72.4759 32.6448 72.0406 34.1138 71.4963 34.1138H56.8059V11.8214C58.723 12.231 71.2365 11.2811 71.7562 11.8214L71.7526 11.8249Z" fill="#251535"/>
<path d="M144.436 26.8609C145.128 31.8151 149.734 35.0108 153.442 30.4662C154.457 29.2232 153.628 27.8637 156.289 28.4181C156.254 35.251 146.244 36.5963 143.302 30.8511C140.03 24.4596 144.461 14.8972 152.375 18.1C156.012 19.5725 157.817 26.8609 156.033 26.8609H144.436ZM154.232 24.7881C153.782 17.7963 145.145 17.8881 144.952 24.7881H154.232Z" fill="#251535"/>
<path d="M87.7352 32.0515C88.2303 32.6024 87.5807 33.9937 86.4431 34.142C84.2487 34.4245 83.6237 32.0656 83.3533 32.055C83.2269 32.0515 82.128 33.3686 81.4012 33.7112C73.6768 37.3554 69.2774 27.8353 75.7553 25.4447C77.718 24.7208 83.3709 25.0315 83.6413 22.9658C84.1047 19.431 78.5853 18.5482 76.6191 20.6069C75.1023 22.1924 77.1422 23.8909 73.3011 23.2306C72.6129 16.5849 84.6595 15.6103 85.6601 20.9106C86.0674 23.0682 84.9614 30.8827 86.1938 31.8008C86.6222 32.1186 87.6579 31.9668 87.7352 32.0515ZM83.6061 25.826C81.4152 26.564 73.6381 26.4652 75.2181 30.3354C77.2581 35.332 85.2318 30.9498 83.6061 25.826Z" fill="#251535"/>
<path d="M167.658 23.2133C167.356 22.9908 167.082 20.0352 164.776 19.608C162.69 19.2231 159.986 19.8975 160.39 22.44C160.934 25.8723 170.355 23.3334 170.267 29.7178C170.172 36.48 156.51 35.975 157.325 28.4183C160.429 27.7191 159.555 30.3004 160.545 31.3986C162.307 33.3514 168.357 32.7016 168.118 29.7001C167.795 25.611 157.539 28.1499 157.803 21.9456C158.069 15.6813 170.155 16.5959 169.723 21.9315C169.631 23.0615 168.304 23.683 167.658 23.2133Z" fill="#251535"/>
<path d="M97.5522 23.2133C97.2502 22.9908 96.9763 20.0352 94.6696 19.6079C91.2989 18.9829 88.009 21.875 91.4815 23.8701C94.2412 25.4556 99.4446 24.4492 100.077 28.7149C101.204 36.3211 86.3202 36.5188 87.2155 28.4218C90.1227 27.6379 89.2519 30.1521 90.4492 31.388C93.8339 34.8768 101.446 30.0744 96.1161 27.5001C93.23 26.1053 87.4823 26.9246 87.693 21.9491C87.8791 17.5634 94.1745 16.5711 97.3801 18.4532C100.825 20.4766 99.4236 24.5869 97.5486 23.2168L97.5522 23.2133Z" fill="#251535"/>
<path d="M102.169 20.1197C102.015 19.9678 100.157 20.2327 99.5886 20.1197V18.0504C103.553 18.792 101.885 16.4155 102.166 13.3786L104.448 13.3716C105.456 16.8039 103.001 18.7425 107.84 18.0504C109.139 21.2461 104.743 19.8619 104.743 20.1232V31.2712C104.743 32.32 107.717 31.9386 107.836 32.0551C107.91 32.1257 107.906 34.0432 107.836 34.1173C106.836 35.159 102.166 33.7925 102.166 30.7521C102.166 29.2408 102.545 20.494 102.166 20.1232L102.169 20.1197Z" fill="#251535"/>
<path d="M174.853 31.2678C175.225 32.4543 177.781 31.8893 177.946 32.0517C178.02 32.1224 178.016 34.0398 177.946 34.114C177.602 34.4741 173.638 34.0998 173.041 33.0864C172.086 31.462 173.294 20.586 172.792 20.1198C172.504 19.8515 169.14 20.8437 169.695 18.3083C169.782 17.641 172.535 18.3083 172.792 18.0506C172.988 17.8528 172.641 14.2051 172.792 13.3788C176.527 12.1111 174.108 17.3125 174.849 18.0506C175.112 18.3119 177.855 17.6445 177.949 18.3083C178.42 21.6771 174.853 19.5831 174.853 20.1198C174.853 22.3692 174.396 29.8059 174.853 31.2678Z" fill="#251535"/>
<path d="M59.1196 37.0201V41.6177C59.1196 41.9567 59.1266 42.3416 59.1512 42.5994H58.5332L58.5016 41.9391H58.4876C58.2769 42.3628 57.8169 42.6842 57.199 42.6842C56.2861 42.6842 55.5804 41.9073 55.5804 40.7491C55.5733 39.4849 56.3528 38.7045 57.2762 38.7045C57.8556 38.7045 58.2453 38.9799 58.4173 39.2872H58.4314V37.0166H59.1196V37.0201ZM58.4314 40.3465C58.4314 40.2618 58.4244 40.1417 58.3998 40.057C58.298 39.6156 57.9223 39.2554 57.4061 39.2554C56.6934 39.2554 56.2721 39.8839 56.2721 40.7244C56.2721 41.4942 56.6477 42.1333 57.3886 42.1333C57.8485 42.1333 58.2734 41.8261 58.3963 41.307C58.4208 41.2117 58.4279 41.1198 58.4279 41.0068V40.3465H58.4314Z" fill="#251535"/>
<path d="M60.6434 40.8271C60.6574 41.7629 61.2543 42.1478 61.9425 42.1478C62.434 42.1478 62.7325 42.0595 62.9888 41.95L63.1047 42.4444C62.8624 42.5538 62.4481 42.681 61.8477 42.681C60.682 42.681 59.9868 41.9112 59.9868 40.7635C59.9868 39.6159 60.6574 38.7119 61.7599 38.7119C62.9958 38.7119 63.3224 39.8031 63.3224 40.5058C63.3224 40.647 63.3083 40.7565 63.2978 40.8271H60.6399H60.6434ZM62.6588 40.3327C62.6658 39.8913 62.4797 39.2098 61.7037 39.2098C61.0085 39.2098 60.7031 39.856 60.6469 40.3327H62.6552H62.6588Z" fill="#251535"/>
<path d="M64.0808 41.8969C64.2844 42.0311 64.6425 42.1724 64.9866 42.1724C65.4852 42.1724 65.7204 41.9217 65.7204 41.6074C65.7204 41.279 65.5238 41.0954 65.0182 40.9082C64.3371 40.6645 64.0176 40.2867 64.0176 39.8312C64.0176 39.2168 64.5091 38.7153 65.3237 38.7153C65.7064 38.7153 66.0435 38.8248 66.2541 38.9519L66.0821 39.4533C65.9346 39.358 65.6608 39.2344 65.3096 39.2344C64.9024 39.2344 64.6777 39.471 64.6777 39.7535C64.6777 40.0678 64.9059 40.209 65.3974 40.3997C66.054 40.6504 66.3911 40.9824 66.3911 41.5473C66.3911 42.2147 65.8749 42.6879 64.9761 42.6879C64.5618 42.6879 64.1791 42.5855 63.9122 42.4301L64.0843 41.904L64.0808 41.8969Z" fill="#251535"/>
<path d="M68.0342 37.7301C68.0413 37.9667 67.8692 38.1539 67.5953 38.1539C67.3531 38.1539 67.181 37.9667 67.181 37.7301C67.181 37.4935 67.3601 37.2993 67.6094 37.2993C67.8587 37.2993 68.0307 37.4865 68.0307 37.7301H68.0342ZM67.2688 42.6032V38.7965H67.957V42.6032H67.2688Z" fill="#251535"/>
<path d="M69.0981 39.8274C69.0981 39.4354 69.0911 39.1106 69.0665 38.7963H69.6775L69.7161 39.4248H69.7301C69.9162 39.0647 70.3551 38.708 70.9801 38.708C71.5032 38.708 72.3178 39.0223 72.3178 40.3288V42.5994H71.6296V40.4065C71.6296 39.7921 71.4014 39.2836 70.7554 39.2836C70.3024 39.2836 69.9513 39.6049 69.8319 39.9898C69.8003 40.0746 69.7863 40.1946 69.7863 40.3112V42.5994H69.0981V39.8239V39.8274Z" fill="#251535"/>
<path d="M76.6961 38.7965C76.682 39.072 76.6645 39.3792 76.6645 39.8418V42.0523C76.6645 42.9245 76.4924 43.4612 76.1238 43.7897C75.7551 44.1357 75.2249 44.2452 74.7474 44.2452C74.2699 44.2452 73.7924 44.1357 73.4904 43.9309L73.6625 43.4048C73.9118 43.5601 74.305 43.7049 74.772 43.7049C75.4742 43.7049 75.9903 43.3341 75.9903 42.3772V41.9534H75.9763C75.7656 42.3066 75.3584 42.589 74.772 42.589C73.8345 42.589 73.1604 41.7875 73.1604 40.7352C73.1604 39.4463 73.996 38.7153 74.8633 38.7153C75.5199 38.7153 75.878 39.0614 76.043 39.3757H76.0571L76.0887 38.8001H76.6891L76.6961 38.7965ZM75.9833 40.3008C75.9833 40.1843 75.9763 40.0819 75.9447 39.9866C75.8183 39.584 75.4847 39.2556 74.9827 39.2556C74.3261 39.2556 73.8556 39.8135 73.8556 40.6928C73.8556 41.4379 74.2313 42.0594 74.9721 42.0594C75.3935 42.0594 75.7762 41.791 75.9271 41.3531C75.9658 41.2366 75.9833 41.1024 75.9833 40.9824V40.2973V40.3008Z" fill="#251535"/>
<path d="M84.431 39.8278C84.431 39.4358 84.424 39.1109 84.3994 38.7967H84.9998L85.0314 39.4111H85.056C85.2667 39.0509 85.6178 38.7119 86.2427 38.7119C86.7589 38.7119 87.1486 39.0262 87.3136 39.4746H87.3277C87.4435 39.2628 87.5945 39.0968 87.749 38.9803C87.9772 38.8073 88.2265 38.7119 88.5846 38.7119C89.0832 38.7119 89.8276 39.0403 89.8276 40.361V42.5998H89.1569V40.4457C89.1569 39.7148 88.8901 39.2734 88.3353 39.2734C87.9456 39.2734 87.6402 39.5629 87.5208 39.9019C87.4892 39.9973 87.4646 40.1209 87.4646 40.248V42.5998H86.794V40.3186C86.794 39.7148 86.5271 39.2734 86.004 39.2734C85.5756 39.2734 85.2631 39.6194 85.1508 39.9655C85.1122 40.0679 85.0946 40.1844 85.0946 40.3045V42.5998H84.424V39.8242L84.431 39.8278Z" fill="#251535"/>
<path d="M93.0437 42.6033L92.9876 42.123H92.963C92.7523 42.4232 92.345 42.688 91.8078 42.688C91.0424 42.688 90.6492 42.1442 90.6492 41.5969C90.6492 40.6788 91.4637 40.1738 92.9244 40.1809V40.1032C92.9244 39.7889 92.8366 39.2239 92.0641 39.2239C91.713 39.2239 91.3444 39.3334 91.0775 39.5064L90.923 39.0509C91.2355 38.8461 91.6885 38.7119 92.166 38.7119C93.3211 38.7119 93.6055 39.5064 93.6055 40.2692V41.6922C93.6055 42.0242 93.6196 42.3455 93.6687 42.6033H93.0437ZM92.9419 40.6611C92.1905 40.647 91.3409 40.7777 91.3409 41.5192C91.3409 41.9677 91.6393 42.1795 91.9904 42.1795C92.482 42.1795 92.7945 41.8653 92.9033 41.5439C92.9279 41.4733 92.9419 41.3956 92.9419 41.325V40.6647V40.6611Z" fill="#251535"/>
<path d="M94.7151 39.8274C94.7151 39.4354 94.708 39.1106 94.6835 38.7963H95.2944L95.333 39.4248H95.3471C95.5332 39.0647 95.972 38.708 96.597 38.708C97.1202 38.708 97.9347 39.0223 97.9347 40.3288V42.5994H97.2466V40.4065C97.2466 39.7921 97.0183 39.2836 96.3723 39.2836C95.9194 39.2836 95.5683 39.6049 95.4489 39.9898C95.4173 40.0746 95.4032 40.1946 95.4032 40.3112V42.5994H94.7151V39.8239V39.8274Z" fill="#251535"/>
<path d="M102.218 41.5648C102.218 41.9568 102.225 42.3029 102.25 42.603H101.639L101.6 41.9815H101.586C101.407 42.2887 101.007 42.6878 100.336 42.6878C99.7429 42.6878 99.0302 42.3594 99.0302 41.021V38.7964H99.7183V40.9045C99.7183 41.6284 99.936 42.1157 100.561 42.1157C101.021 42.1157 101.344 41.7944 101.467 41.4872C101.505 41.3848 101.53 41.2576 101.53 41.134V38.7999H102.218V41.5684V41.5648Z" fill="#251535"/>
<path d="M103.43 42.603V39.3261H102.9V38.7999H103.43V38.6198C103.43 38.0866 103.546 37.5993 103.869 37.2921C104.125 37.0414 104.469 36.939 104.792 36.939C105.034 36.939 105.245 36.9955 105.378 37.0484L105.284 37.5816C105.182 37.5357 105.041 37.4969 104.845 37.4969C104.258 37.4969 104.111 38.016 104.111 38.5986V38.8034H105.024V39.3296H104.111V42.6065H103.43V42.603Z" fill="#251535"/>
<path d="M107.738 42.6033L107.682 42.123H107.657C107.446 42.4232 107.039 42.688 106.502 42.688C105.736 42.688 105.343 42.1442 105.343 41.5969C105.343 40.6788 106.158 40.1738 107.618 40.1809V40.1032C107.618 39.7889 107.531 39.2239 106.758 39.2239C106.407 39.2239 106.038 39.3334 105.771 39.5064L105.617 39.0509C105.929 38.8461 106.382 38.7119 106.86 38.7119C108.015 38.7119 108.299 39.5064 108.299 40.2692V41.6922C108.299 42.0242 108.314 42.3455 108.363 42.6033H107.738ZM107.636 40.6611C106.885 40.647 106.035 40.7777 106.035 41.5192C106.035 41.9677 106.333 42.1795 106.684 42.1795C107.176 42.1795 107.488 41.8653 107.597 41.5439C107.622 41.4733 107.636 41.3956 107.636 41.325V40.6647V40.6611Z" fill="#251535"/>
<path d="M112.106 42.4618C111.926 42.5572 111.526 42.6807 111.021 42.6807C109.879 42.6807 109.135 41.9039 109.135 40.7386C109.135 39.5733 109.932 38.7188 111.168 38.7188C111.575 38.7188 111.933 38.8212 112.123 38.9165L111.969 39.4497C111.804 39.3544 111.547 39.2696 111.172 39.2696C110.304 39.2696 109.834 39.9158 109.834 40.7068C109.834 41.5861 110.396 42.1299 111.147 42.1299C111.537 42.1299 111.797 42.0275 111.99 41.9427L112.106 42.4618Z" fill="#251535"/>
<path d="M113.84 37.7051V38.7962H114.827V39.3224H113.84V41.374C113.84 41.8472 113.973 42.112 114.356 42.112C114.535 42.112 114.669 42.0873 114.756 42.0661L114.788 42.5852C114.655 42.6417 114.444 42.6805 114.177 42.6805C113.858 42.6805 113.598 42.5781 113.436 42.391C113.24 42.1862 113.169 41.8472 113.169 41.3987V39.3224H112.583V38.7962H113.169V37.8852L113.84 37.7051Z" fill="#251535"/>
<path d="M118.763 41.5648C118.763 41.9568 118.77 42.3029 118.794 42.603H118.183L118.145 41.9815H118.131C117.951 42.2887 117.551 42.6878 116.881 42.6878C116.287 42.6878 115.574 42.3594 115.574 41.021V38.7964H116.263V40.9045C116.263 41.6284 116.48 42.1157 117.105 42.1157C117.565 42.1157 117.888 41.7944 118.011 41.4872C118.05 41.3848 118.074 41.2576 118.074 41.134V38.7999H118.763V41.5684V41.5648Z" fill="#251535"/>
<path d="M119.904 39.9867C119.904 39.5382 119.897 39.1533 119.872 38.8002H120.472L120.497 39.5453H120.529C120.701 39.0333 121.115 38.7119 121.575 38.7119C121.652 38.7119 121.708 38.719 121.772 38.7366V39.3899C121.701 39.3758 121.631 39.3652 121.536 39.3652C121.052 39.3652 120.708 39.736 120.613 40.255C120.599 40.3504 120.581 40.4599 120.581 40.5764V42.6033H119.9V39.9867H119.904Z" fill="#251535"/>
<path d="M123.257 37.7301C123.264 37.9667 123.092 38.1539 122.818 38.1539C122.576 38.1539 122.404 37.9667 122.404 37.7301C122.404 37.4935 122.583 37.2993 122.832 37.2993C123.081 37.2993 123.253 37.4865 123.253 37.7301H123.257ZM122.491 42.6032V38.7965H123.18V42.6032H122.491Z" fill="#251535"/>
<path d="M124.321 39.8274C124.321 39.4354 124.314 39.1106 124.289 38.7963H124.9L124.939 39.4248H124.953C125.139 39.0647 125.578 38.708 126.203 38.708C126.726 38.708 127.54 39.0223 127.54 40.3288V42.5994H126.852V40.4065C126.852 39.7921 126.624 39.2836 125.978 39.2836C125.525 39.2836 125.174 39.6049 125.054 39.9898C125.023 40.0746 125.009 40.1946 125.009 40.3112V42.5994H124.321V39.8239V39.8274Z" fill="#251535"/>
<path d="M131.915 38.7965C131.901 39.072 131.884 39.3792 131.884 39.8418V42.0523C131.884 42.9245 131.712 43.4612 131.343 43.7897C130.974 44.1357 130.444 44.2452 129.967 44.2452C129.489 44.2452 129.012 44.1357 128.71 43.9309L128.882 43.4048C129.131 43.5601 129.524 43.7049 129.991 43.7049C130.693 43.7049 131.209 43.3341 131.209 42.3772V41.9534H131.195C130.985 42.3066 130.577 42.589 129.991 42.589C129.054 42.589 128.38 41.7875 128.38 40.7352C128.38 39.4463 129.215 38.7153 130.082 38.7153C130.739 38.7153 131.097 39.0614 131.262 39.3757H131.276L131.308 38.8001H131.908L131.915 38.7965ZM131.206 40.3008C131.206 40.1843 131.199 40.0819 131.167 39.9866C131.041 39.584 130.707 39.2556 130.205 39.2556C129.549 39.2556 129.078 39.8135 129.078 40.6928C129.078 41.4379 129.454 42.0594 130.195 42.0594C130.616 42.0594 130.999 41.791 131.15 41.3531C131.188 41.2366 131.206 41.1024 131.206 40.9824V40.2973V40.3008Z" fill="#251535"/>
<path d="M141.262 37.0201V41.6177C141.262 41.9567 141.269 42.3416 141.293 42.5994H140.675L140.644 41.9391H140.63C140.419 42.3628 139.959 42.6842 139.341 42.6842C138.428 42.6842 137.722 41.9073 137.722 40.7491C137.715 39.4849 138.495 38.7045 139.418 38.7045C139.998 38.7045 140.387 38.9799 140.559 39.2872H140.573V37.0166H141.262V37.0201ZM140.573 40.3465C140.573 40.2618 140.566 40.1417 140.542 40.057C140.44 39.6156 140.064 39.2554 139.548 39.2554C138.835 39.2554 138.414 39.8839 138.414 40.7244C138.414 41.4942 138.79 42.1333 139.531 42.1333C139.991 42.1333 140.415 41.8261 140.538 41.307C140.563 41.2117 140.57 41.1198 140.57 41.0068V40.3465H140.573Z" fill="#251535"/>
<path d="M143.168 37.7301C143.175 37.9667 143.003 38.1539 142.729 38.1539C142.487 38.1539 142.315 37.9667 142.315 37.7301C142.315 37.4935 142.494 37.2993 142.743 37.2993C142.993 37.2993 143.165 37.4865 143.165 37.7301H143.168ZM142.403 42.6032V38.7965H143.091V42.6032H142.403Z" fill="#251535"/>
<path d="M144.137 41.8969C144.341 42.0311 144.699 42.1724 145.043 42.1724C145.542 42.1724 145.777 41.9217 145.777 41.6074C145.777 41.279 145.58 41.0954 145.075 40.9082C144.394 40.6645 144.074 40.2867 144.074 39.8312C144.074 39.2168 144.566 38.7153 145.38 38.7153C145.763 38.7153 146.1 38.8248 146.311 38.9519L146.139 39.4533C145.991 39.358 145.717 39.2344 145.366 39.2344C144.959 39.2344 144.734 39.471 144.734 39.7535C144.734 40.0678 144.962 40.209 145.454 40.3997C146.111 40.6504 146.448 40.9824 146.448 41.5473C146.448 42.2147 145.931 42.6879 145.033 42.6879C144.618 42.6879 144.236 42.5855 143.969 42.4301L144.141 41.904L144.137 41.8969Z" fill="#251535"/>
<path d="M148.154 37.7051V38.7962H149.141V39.3224H148.154V41.374C148.154 41.8472 148.287 42.112 148.67 42.112C148.849 42.112 148.983 42.0873 149.07 42.0661L149.102 42.5852C148.969 42.6417 148.758 42.6805 148.491 42.6805C148.172 42.6805 147.912 42.5781 147.75 42.391C147.554 42.1862 147.483 41.8472 147.483 41.3987V39.3224H146.897V38.7962H147.483V37.8852L148.154 37.7051Z" fill="#251535"/>
<path d="M149.913 39.9867C149.913 39.5382 149.906 39.1533 149.881 38.8002H150.482L150.506 39.5453H150.538C150.71 39.0333 151.124 38.7119 151.584 38.7119C151.661 38.7119 151.718 38.719 151.781 38.7366V39.3899C151.711 39.3758 151.64 39.3652 151.546 39.3652C151.061 39.3652 150.717 39.736 150.622 40.255C150.608 40.3504 150.591 40.4599 150.591 40.5764V42.6033H149.909V39.9867H149.913Z" fill="#251535"/>
<path d="M155.633 41.5648C155.633 41.9568 155.64 42.3029 155.664 42.603H155.053L155.015 41.9815H155.001C154.821 42.2887 154.421 42.6878 153.751 42.6878C153.157 42.6878 152.444 42.3594 152.444 41.021V38.7964H153.133V40.9045C153.133 41.6284 153.35 42.1157 153.975 42.1157C154.435 42.1157 154.758 41.7944 154.881 41.4872C154.92 41.3848 154.944 41.2576 154.944 41.134V38.7999H155.633V41.5684V41.5648Z" fill="#251535"/>
<path d="M156.742 42.6032C156.756 42.3454 156.774 41.957 156.774 41.6215V37.0239H157.455V39.4145H157.469C157.711 38.9908 158.15 38.7154 158.757 38.7154C159.695 38.7154 160.358 39.5028 160.351 40.6575C160.351 42.017 159.498 42.695 158.656 42.695C158.108 42.695 157.672 42.4831 157.388 41.9782H157.363L157.332 42.6067H156.739L156.742 42.6032ZM157.455 41.0777C157.455 41.1625 157.469 41.2508 157.486 41.3284C157.62 41.8087 158.017 42.1371 158.519 42.1371C159.238 42.1371 159.667 41.5474 159.667 40.6752C159.667 39.9124 159.277 39.2592 158.54 39.2592C158.069 39.2592 157.634 39.5805 157.493 40.1067C157.479 40.1843 157.455 40.2797 157.455 40.3891V41.0742V41.0777Z" fill="#251535"/>
<path d="M164.386 41.5648C164.386 41.9568 164.393 42.3029 164.417 42.603H163.806L163.768 41.9815H163.754C163.575 42.2887 163.174 42.6878 162.504 42.6878C161.91 42.6878 161.198 42.3594 161.198 41.021V38.7964H161.886V40.9045C161.886 41.6284 162.104 42.1157 162.728 42.1157C163.188 42.1157 163.511 41.7944 163.634 41.4872C163.673 41.3848 163.698 41.2576 163.698 41.134V38.7999H164.386V41.5684V41.5648Z" fill="#251535"/>
<path d="M166.355 37.7051V38.7962H167.342V39.3224H166.355V41.374C166.355 41.8472 166.489 42.112 166.872 42.112C167.051 42.112 167.184 42.0873 167.272 42.0661L167.303 42.5852C167.17 42.6417 166.959 42.6805 166.693 42.6805C166.373 42.6805 166.113 42.5781 165.952 42.391C165.755 42.1862 165.685 41.8472 165.685 41.3987V39.3224H165.099V38.7962H165.685V37.8852L166.355 37.7051Z" fill="#251535"/>
<path d="M168.88 37.7301C168.887 37.9667 168.715 38.1539 168.441 38.1539C168.199 38.1539 168.027 37.9667 168.027 37.7301C168.027 37.4935 168.206 37.2993 168.455 37.2993C168.704 37.2993 168.876 37.4865 168.876 37.7301H168.88ZM168.115 42.6032V38.7965H168.803V42.6032H168.115Z" fill="#251535"/>
<path d="M173.367 40.6682C173.367 42.0771 172.398 42.688 171.482 42.688C170.456 42.688 169.67 41.9324 169.67 40.7318C169.67 39.457 170.499 38.7119 171.545 38.7119C172.591 38.7119 173.367 39.5064 173.367 40.6682ZM170.365 40.707C170.365 41.5404 170.843 42.1689 171.513 42.1689C172.184 42.1689 172.661 41.5475 172.661 40.6894C172.661 40.0432 172.342 39.2275 171.527 39.2275C170.713 39.2275 170.362 39.9831 170.362 40.707H170.365Z" fill="#251535"/>
<path d="M174.234 39.8274C174.234 39.4354 174.227 39.1106 174.203 38.7963H174.814L174.852 39.4248H174.866C175.052 39.0647 175.491 38.708 176.116 38.708C176.639 38.708 177.454 39.0223 177.454 40.3288V42.5994H176.766V40.4065C176.766 39.7921 176.538 39.2836 175.892 39.2836C175.439 39.2836 175.088 39.6049 174.968 39.9898C174.937 40.0746 174.923 40.1946 174.923 40.3112V42.5994H174.234V39.8239V39.8274Z" fill="#251535"/>
<path d="M80.8289 42.0418C81.3331 42.0418 81.7418 41.6307 81.7418 41.1237C81.7418 40.6166 81.3331 40.2056 80.8289 40.2056C80.3247 40.2056 79.916 40.6166 79.916 41.1237C79.916 41.6307 80.3247 42.0418 80.8289 42.0418Z" fill="#251535"/>
<path d="M135.061 41.7449C135.565 41.7449 135.974 41.3339 135.974 40.8268C135.974 40.3197 135.565 39.9087 135.061 39.9087C134.557 39.9087 134.148 40.3197 134.148 40.8268C134.148 41.3339 134.557 41.7449 135.061 41.7449Z" fill="#251535"/>
</svg>
