<svg width="172" height="44" viewBox="0 0 172 44" fill="none" xmlns="http://www.w3.org/2000/svg">
<path d="M23.2129 15.772H31.6935L34.3467 12.7301L25.5719 12.3613L23.2129 15.772Z" fill="#251535"/>
<path d="M26.2375 11.2453H35.9L36.9564 10.047C39.5807 13.4334 41.1486 17.6834 41.1486 22.2973C41.1486 27.3042 39.3009 31.8792 36.2666 35.387L29.484 18.6634H22.1854L25.1328 36.464L34.1826 37.4683C30.7141 40.452 26.2134 42.2617 21.2977 42.2617C15.6536 42.2617 10.5546 39.8747 6.93662 36.0565L8.02202 36.1632L16.2808 36.9783L21.1481 18.6586H10.6029L5.55702 34.4409C2.981 31.0739 1.44696 26.8627 1.44696 22.2924C1.44696 13.5207 7.10068 6.05894 14.9349 3.3857L11.4905 14.5056H21.0758L23.7628 2.48815C26.3726 2.81806 28.828 3.65254 31.023 4.8994L31.8864 3.72046C28.7652 1.9108 25.1521 0.872559 21.2977 0.872559C9.55607 0.872559 -0.000244141 10.4836 -0.000244141 22.2924C-0.000244141 34.1013 9.55607 43.7123 21.2977 43.7123C33.0393 43.7123 42.5958 34.1013 42.5958 22.2924C42.5958 17.2468 40.8446 12.6038 37.9309 8.93594L37.9936 8.86802C37.9936 8.86802 37.984 8.85347 37.9792 8.84862L38.4133 8.34405L37.352 8.23731L28.7846 7.38343L26.2423 11.2405L26.2375 11.2453Z" fill="#251535"/>
<path d="M40.3234 6.50022L43.4205 2.86636L33.1695 1.97852L31.8862 3.7251L29.8457 6.50022H33.4107C34.0234 6.97568 34.6022 7.4851 35.1569 8.02848L37.3471 8.2468C36.8164 7.6355 36.2568 7.04845 35.6587 6.50022H40.3186H40.3234Z" fill="#251535"/>
<path d="M10.9695 17.3294H20.7814L21.1481 15.2529H11.4857L10.9695 17.3294Z" fill="#251535"/>
<path d="M100.933 18.6058C99.6913 18.9673 98.7149 20.8467 97.7514 20.8427C97.5459 20.8427 96.8436 18.7625 94.7239 18.4492C92.5099 18.1239 90.63 18.8829 89.1826 20.4331C89.2683 17.8187 87.3456 19.0757 85.1145 18.8267V35.2921C86.2193 35.1435 88.9299 35.7941 89.3367 34.6335C90.1846 32.2119 88.5275 25.3767 89.6109 23.2443C90.4202 21.6499 94.1072 21.6258 94.1072 23.4451V35.2921C95.2121 35.1435 97.9227 35.7941 98.3295 34.6335C99.1902 32.1677 96.501 21.7865 101.169 21.7744C101.82 21.7744 103.1 22.9832 103.1 23.4451V35.2921H107.382V22.2403C107.382 19.3769 103.772 17.7785 100.933 18.6058Z" fill="#251535"/>
<path d="M67.129 12.4056C65.5874 12.5984 62.9752 11.9478 61.7462 12.7751L54.7105 22.0399V12.4016H50V35.2925C51.0577 35.1439 53.9567 35.678 54.522 34.915C55.6782 33.3568 53.246 26.6863 56.2136 24.847C57.1043 24.6663 56.7917 25.2085 57.0614 25.6422C57.9736 27.12 61.5878 34.3809 62.2001 34.8949C63.2193 35.7463 65.7416 35.1038 67.129 35.2885C68.0711 34.4331 60.3802 24.0117 60.2731 22.2045C60.1832 20.6263 67.6343 12.755 67.129 12.4056Z" fill="#251535"/>
<path d="M116.82 18.6467C115.929 18.9318 115.343 20.1125 114.234 20.0322V12.4019H109.952V34.6904C109.952 35.4213 112.966 35.4132 113.626 35.3249C114.456 35.2165 114.212 34.4695 114.465 34.4655C115.124 34.4574 116.538 35.4815 117.561 35.614C127.303 36.8991 127.059 15.3616 116.824 18.6426L116.82 18.6467ZM118.764 31.7105C113.459 35.3169 112.294 22.4136 117.111 21.7068C121 21.1365 121.051 30.1564 118.764 31.7105Z" fill="#251535"/>
<path d="M152.153 18.8111C144.227 16.3131 140.99 22.1483 141.623 28.6863C142.471 37.3888 154.736 38.2924 156.196 30.0758C155.057 30.5175 153.759 29.8027 152.629 30.0557C152.085 30.1762 151.978 33.5697 147.931 32.405C146.625 32.0316 145.653 29.2606 145.923 28.0678H155.986C157.553 28.0678 156.444 20.1644 152.153 18.8111ZM145.923 25.2526C145.871 19.6624 152.397 19.6624 152.346 25.2526H145.923Z" fill="#251535"/>
<path d="M73.4411 18.5259C65.7374 19.7628 65.7159 34.7343 74.3146 35.6017C79.3506 36.1077 82.3311 33.0596 82.8492 28.5577C83.5601 22.3973 80.8023 17.3412 73.4369 18.5259H73.4411ZM77.2952 31.5737C76.5415 32.2404 74.9827 32.1881 74.0792 31.7865C71.1373 30.4854 71.3043 20.5539 76.1261 21.8029C79.3121 22.6262 79.2136 29.879 77.2952 31.5737Z" fill="#251535"/>
<path d="M167.45 18.5179C159.279 16.9477 156.919 23.4696 157.939 29.8469C159.155 37.429 171.535 37.8065 171.616 29.6742C170.854 29.8148 168.126 29.4493 167.805 29.7144C167.351 30.0879 168.195 32.1521 165.407 32.0958C160.564 31.9995 161.12 20.4375 166.058 21.803C167.801 22.2849 167.54 23.7427 167.839 23.9836C168.045 24.1483 171.809 24.8029 171.976 23.8672C172.289 22.064 169.501 18.9155 167.458 18.5219L167.45 18.5179Z" fill="#251535"/>
<path d="M138.643 31.7425C138.369 27.9756 138.497 27.2366 138.643 22.3051C139.118 22.2247 140.655 22.4255 140.788 22.3051C140.912 22.1926 140.912 19.2007 140.788 19.0883C140.613 18.9317 138.908 19.2851 138.664 19.0682C138.244 18.6987 138.382 14.8274 138.219 14.6707C138.073 14.5302 135.033 14.7751 134.361 14.6707C134.361 16.6667 134.51 18.8915 134.51 18.8915L132.284 18.8272C131.855 18.8152 132.082 22.3251 132.082 22.3251L134.348 22.3693C134.348 22.3693 133.427 31.5136 135.311 34.9553C136.193 36.5657 141.272 36.5215 141.242 33.7344C141.221 31.6903 138.72 32.7345 138.647 31.7385L138.643 31.7425Z" fill="#251535"/>
<path d="M130.935 18.8271H126.652V35.2925H130.935V18.8271Z" fill="#251535"/>
<path d="M130.935 12H126.648V16.02H130.935V12Z" fill="#251535"/>
</svg>
