<svg width="203" height="38" viewBox="0 0 203 38" fill="none" xmlns="http://www.w3.org/2000/svg">
<g clip-path="url(#clip0_234_625)">
<path d="M3.90769 0.174316V17.1252H6.44751V0.174316H10.2309V37.824H6.44751V20.8234H3.90769V37.824H0.177002V0.174316H3.90769Z" fill="white"/>
<path d="M10.4059 38H6.27051V20.9994H4.08479V38H0V0H4.08479V16.9508H6.27051V0H10.4059V38ZM6.62461 37.6497H10.056V0.350336H6.62461V17.3012H3.7328V0.350336H0.351991V37.6497H3.73069V20.6491H6.6225V37.6497H6.62461Z" fill="white"/>
<path d="M28.8845 0.174316H32.6152L33.9115 13.2715L35.155 0.174316H38.8857L35.7768 18.9743V37.824H31.9934V18.9743L28.8845 0.174316Z" fill="white"/>
<path d="M35.9538 38H31.8184V18.9741L28.6758 0H32.7753L33.9072 11.445L34.9948 0H39.0943L35.9517 19.0031V38H35.9538ZM32.1704 37.6497H35.6018V18.9741L38.6791 0.350336H35.3151L34.0863 13.2899H33.7343L32.4549 0.350336H29.091L32.1662 18.9471V37.6517L32.1704 37.6497Z" fill="white"/>
<path d="M57.541 0.174316H62.568C65.3143 0.174316 67.5949 2.43388 67.5949 5.15779V15.8917C67.5949 18.6136 65.3143 20.8234 62.568 20.8234H61.2717V37.824H57.541V0.174316ZM61.2717 17.1252H62.568C63.2424 17.1252 63.8115 16.6111 63.8115 15.8917V5.15779C63.8115 4.49028 63.2424 3.87461 62.568 3.87461H61.2717V17.1272V17.1252Z" fill="white"/>
<path d="M61.4488 38H57.364V0H62.568C65.3882 0 67.772 2.36114 67.772 5.1576V15.8916C67.772 18.7067 65.4387 20.9973 62.568 20.9973H61.4488V37.9979V38ZM57.716 37.6497H61.0947V20.6491H62.5659C65.2406 20.6491 67.4158 18.516 67.4158 15.8936V5.1576C67.4158 2.55185 65.1942 0.350336 62.5659 0.350336H57.716V37.6497ZM62.568 17.2991H61.0968V3.69822H62.568C63.3247 3.69822 63.9886 4.38023 63.9886 5.1576V15.8916C63.9886 16.6814 63.3647 17.2991 62.568 17.2991ZM61.4488 16.9508H62.568C63.1666 16.9508 63.6345 16.4865 63.6345 15.8936V5.1576C63.6345 4.57716 63.1266 4.04855 62.568 4.04855H61.4488V16.9508Z" fill="white"/>
<path d="M96.3024 0.174316V3.87253H89.9792V17.1252H93.6593V20.8234H89.9792V34.1258H96.3024V37.824H86.2485V0.174316H96.3024Z" fill="white"/>
<path d="M96.4794 38H86.0735V0H96.4794V4.04855H90.1562V16.9508H93.8363V20.9994H90.1562V33.9535H96.4794V38.0021V38ZM86.4255 37.6497H96.1274V34.3018H89.8042V20.6491H93.4843V17.3012H89.8042V3.69822H96.1274V0.350336H86.4255V37.6497Z" fill="white"/>
<path d="M119.983 0.174316C122.782 0.174316 124.957 2.43388 124.957 5.15779V15.8917C124.957 17.0733 124.594 18.1513 123.92 18.9743C124.594 19.847 124.957 20.927 124.957 22.1066V37.824H121.226V22.1066C121.226 21.3872 120.708 20.8234 119.983 20.8234H118.686V37.824H114.956V0.174316H119.983ZM119.983 17.1252C120.708 17.1252 121.226 16.6111 121.226 15.8917V5.15779C121.226 4.49028 120.708 3.87461 119.983 3.87461H118.686V17.1272H119.983V17.1252Z" fill="white"/>
<path d="M125.136 38H121.051V22.1084C121.051 21.4658 120.602 20.9994 119.985 20.9994H118.866V38H114.781V0H119.985C122.826 0 125.136 2.31346 125.136 5.1576V15.8916C125.136 17.0711 124.795 18.1345 124.145 18.9762C124.795 19.8655 125.136 20.9455 125.136 22.1064V37.9979V38ZM121.403 37.6497H124.782V22.1064C124.782 20.9745 124.436 19.9277 123.781 19.0798L123.696 18.9699L123.785 18.8621C124.436 18.0661 124.782 17.04 124.782 15.8916V5.1576C124.782 2.50625 122.63 0.350336 119.983 0.350336H115.133V37.6497H118.511V20.6491H119.983C120.792 20.6491 121.403 21.2772 121.403 22.1084V37.6517V37.6497ZM119.985 17.2991H118.514V3.69822H119.985C120.769 3.69822 121.405 4.35328 121.405 5.1576V15.8916C121.405 16.7062 120.809 17.2991 119.985 17.2991ZM118.863 16.9508H119.983C120.611 16.9508 121.049 16.5155 121.049 15.8936V5.1576C121.049 4.62484 120.64 4.04855 119.983 4.04855H118.863V16.9508Z" fill="white"/>
<path d="M153.666 17.125V20.8232H143.613V17.125H153.666Z" fill="white"/>
<path d="M153.843 20.9973H143.438V16.9487H153.843V20.9973ZM143.789 20.649H153.491V17.3011H143.789V20.649Z" fill="white"/>
<path d="M182.376 5.15779V32.8426C182.376 35.5644 180.148 37.824 177.349 37.824C174.55 37.824 172.322 35.5644 172.322 32.8426V5.15779C172.322 2.43595 174.603 0.174316 177.349 0.174316C180.095 0.174316 182.376 2.43388 182.376 5.15779ZM178.593 5.15779C178.593 4.49028 178.074 3.87461 177.349 3.87461C176.674 3.87461 176.053 4.49028 176.053 5.15779V32.8426C176.053 33.5101 176.674 34.1258 177.349 34.1258C178.074 34.1258 178.593 33.5101 178.593 32.8426V5.15779Z" fill="white"/>
<path d="M177.347 38C174.527 38 172.143 35.6389 172.143 32.8424V5.1576C172.143 2.36114 174.527 0 177.347 0C180.167 0 182.551 2.31346 182.551 5.1576V32.8424C182.551 35.6865 180.218 38 177.347 38ZM177.347 0.350336C174.718 0.350336 172.497 2.55185 172.497 5.1576V32.8424C172.497 35.4481 174.718 37.6497 177.347 37.6497C179.975 37.6497 182.197 35.4938 182.197 32.8424V5.1576C182.197 2.50625 180.022 0.350336 177.347 0.350336ZM177.347 34.3018C176.575 34.3018 175.876 33.6073 175.876 32.8424V5.1576C175.876 4.39474 176.577 3.69822 177.347 3.69822C178.116 3.69822 178.767 4.35328 178.767 5.1576V32.8424C178.767 33.6467 178.131 34.3018 177.347 34.3018ZM177.347 4.04855C176.771 4.04855 176.228 4.58753 176.228 5.1576V32.8424C176.228 33.4125 176.771 33.9515 177.347 33.9515C178.007 33.9515 178.415 33.3752 178.415 32.8424V5.1576C178.415 4.62484 178.007 4.04855 177.347 4.04855Z" fill="white"/>
<path d="M195.899 18.9743L192.738 0.174316H196.468L197.765 13.2715L199.008 0.174316H202.791L199.63 18.9743L202.791 37.824H199.008L197.765 24.7268L196.468 37.824H192.738L195.899 18.9743Z" fill="white"/>
<path d="M203 38H198.848L197.76 26.555L196.628 38H192.529L195.72 18.9741L192.529 0H196.628L197.76 11.445L198.848 0H203L199.809 18.9741L203 38ZM199.17 37.6497H202.585L199.453 18.9741L202.585 0.350336H199.17L197.941 13.2899H197.589L196.31 0.350336H192.946L196.078 18.9741L192.946 37.6497H196.31L197.589 24.7101H197.941L199.17 37.6497Z" fill="white"/>
</g>
<defs>
<clipPath id="clip0_234_625">
<rect width="203" height="38" fill="white"/>
</clipPath>
</defs>
</svg>
