<svg width="51" height="56" viewBox="0 0 51 56" fill="none" xmlns="http://www.w3.org/2000/svg">
<path d="M5.46484 22.6947C3.77017 22.5056 1.87046 21.2751 0.976383 19.8464C-1.27765 16.2464 0.573825 11.9965 4.45166 10.6564C4.56775 8.57797 4.99896 6.67364 6.15236 4.92086C9.51154 -0.181387 16.7214 -1.19283 21.3109 2.87846C21.528 2.91598 22.3708 1.99907 22.606 1.8265C27.0854 -1.48846 32.9881 -0.122861 35.7879 4.5622C40.7649 2.77041 45.8202 6.93475 44.9895 12.112C50.6344 13.4041 50.651 21.059 45.0965 22.5311C45.3513 23.307 45.4629 24.1218 45.4509 24.9352C49.5202 26.1222 49.9815 31.5696 45.9303 33.2594C45.7539 33.3329 45.0438 33.6135 44.9292 33.6135H42.8365C42.8832 34.5919 42.6058 35.7444 43.3566 36.5293C44.0472 37.2511 44.5673 36.9945 45.3664 37.1176C47.1455 37.3892 48.3924 38.4997 48.6065 40.308L48.5974 49.6361C51.4591 50.4209 51.9204 54.5297 49.1327 55.6972C45.0106 57.423 42.654 51.2748 46.8003 49.7546L46.7671 40.338C46.069 38.2791 44.0411 39.367 42.5033 38.2791C41.9288 37.8724 41.0257 36.6208 41.0257 35.923V33.615H36.5026V38.8493C36.5026 39.2095 37.4359 40.0363 37.8279 40.1189C38.9089 40.3455 39.4291 40.1129 40.4498 40.8857C42.0042 42.0622 41.9665 43.74 41.9484 45.5288C44.7814 46.2821 45.0905 50.3654 42.4128 51.4864C38.2937 53.2122 35.8694 47.1555 40.014 45.5903C39.9115 44.5969 40.299 43.3618 39.5542 42.565C38.8953 41.8611 38.0224 42.0802 37.2007 41.8687C35.9794 41.5535 34.5803 40.0048 34.5803 38.7368V33.6165H30.0571V42.9581C33.4495 43.884 32.8675 48.9893 29.3274 49.1529C25.7873 49.3164 24.5962 44.6179 27.8317 43.0452C27.9735 42.9761 28.2479 42.9791 28.2479 42.9581V33.6165L23.7247 33.7291V39.0744C23.7247 39.8653 22.4794 41.2774 21.7662 41.627C20.6973 42.1508 19.2408 41.7246 18.5397 42.9176C18.2849 43.3513 18.1658 45.0395 18.3151 45.4717C18.3663 45.6218 19.2785 46.048 19.5288 46.2896C21.3184 48.0214 20.4017 51.3934 17.8914 51.7265C13.7407 52.2772 12.5963 46.6828 16.4741 45.5333C16.3581 43.3648 16.4651 41.2219 18.8307 40.3935C19.7595 40.0679 20.8737 40.3245 21.5129 39.4616C21.5898 39.3565 21.9155 38.6903 21.9155 38.6242V33.7291H17.6185V35.6979C17.6185 36.7364 16.5556 38.1125 15.6253 38.5537C14.3603 39.154 12.533 38.5297 11.9028 40.1384L11.847 49.7471C15.7278 51.4219 13.5763 57.2294 9.55828 55.7618C6.60919 54.6843 6.99366 50.4614 9.9337 49.6346C10.089 46.7458 9.70905 43.6169 9.92465 40.7567C10.0573 38.9859 11.1293 37.4462 12.9763 37.1536C13.9457 37.0005 14.6543 37.3021 15.3569 36.3717C15.4203 36.2877 15.6962 35.842 15.6962 35.809V33.7261C14.1055 33.7951 13.0516 34.0532 11.5907 33.2534C8.02946 31.3055 8.1169 26.2213 11.6223 24.2134C11.8274 24.0963 12.3762 23.9538 12.4033 23.9222C12.4425 23.8757 12.4561 22.8973 12.5285 22.6962H5.46032L5.46484 22.6947ZM36.391 6.26395C36.6187 7.0473 37.175 8.39789 36.0548 8.68752C34.731 9.02967 34.7913 7.08632 34.4717 6.20393C32.477 0.701002 24.5027 0.387364 21.8235 5.55114C21.4481 6.27446 21.323 7.83215 20.2872 7.7256C18.6769 7.56053 19.8786 5.15497 20.3068 4.40313C16.049 0.321335 8.88433 1.93154 6.96049 7.52601C6.40867 9.13022 6.71473 9.89105 6.54135 11.3857C6.42525 12.3852 5.51459 12.2366 4.81803 12.4842C0.329575 14.0809 1.20706 20.5352 5.79955 20.8969C8.11389 21.08 10.6815 20.7678 13.023 20.8744C13.7738 19.6213 14.6121 18.5244 15.8907 17.7635C18.214 16.3814 20.8857 16.4189 23.2739 17.6285C24.5871 14.0539 28.4831 11.944 32.2358 12.5922C35.3793 13.1355 37.8987 15.5831 38.6556 18.6414C40.011 18.3308 41.5308 18.6669 42.6932 19.4037C43.129 19.6799 43.9899 20.6358 44.1995 20.7273C44.5387 20.8774 45.5036 20.4272 45.8368 20.2186C48.127 18.7915 47.8149 15.2169 45.4026 14.1184C44.6488 13.7748 44.1572 13.9218 43.4833 13.7778C42.5304 13.5722 43.1275 12.2126 43.1742 11.6048C43.4803 7.7331 40.0744 5.06192 36.391 6.26245V6.26395ZM30.4929 14.393C28.3308 14.4621 26.3436 15.7016 25.2912 17.5534C25.1631 17.777 24.8103 18.4268 24.7922 18.6354C24.7741 18.844 25.1284 19.0121 25.2249 19.2342C25.5702 20.0265 24.9746 20.9629 24.0956 20.5833C22.5412 19.0706 20.8706 18.2377 18.6332 18.5799C16.2706 18.9415 14.3754 21.3006 14.3377 23.6566C14.3257 24.4475 14.8187 25.1288 13.6276 25.5385C13.3607 25.63 13.1738 25.5385 12.928 25.6105C9.63366 26.5754 10.1372 31.6536 13.715 31.9268C14.3347 31.9748 14.8473 31.8112 15.4097 31.8052C25.0214 31.6957 34.6421 31.8953 44.2537 31.8142C46.1293 31.6551 47.3928 30.0704 46.7354 28.2111C46.5138 27.5854 45.5881 26.6925 44.9186 26.6339C44.3789 26.5859 44.0276 27.0406 43.533 26.3353C43.0385 25.63 43.4381 25.4469 43.5089 24.8827C43.8255 22.3721 41.9484 20.2891 39.3899 20.4452C38.4506 20.5022 37.1539 21.5047 36.5704 20.5472C36.1091 19.7894 36.7559 19.5718 36.7996 19.2657C36.8177 19.1411 36.6669 18.7495 36.6187 18.5844C35.8543 15.9852 33.1615 14.309 30.4913 14.3945L30.4929 14.393ZM30.1355 45.017C28.8826 43.7115 26.8653 45.7209 28.177 46.9664C29.4887 48.2119 31.3462 46.2776 30.1355 45.017ZM18.2623 47.6057C16.9792 46.3871 15.0825 48.284 16.3038 49.555C17.525 50.8261 19.574 48.8512 18.2623 47.6057ZM40.7739 47.253C39.3205 47.5307 39.3914 49.7606 40.8719 49.9227C42.9842 50.1553 42.8259 46.8599 40.7739 47.253ZM10.5835 51.4144C8.85568 51.6079 8.95368 54.4037 10.9981 54.087C12.6747 53.8274 12.2314 51.2298 10.5835 51.4144ZM47.6732 51.4144C45.9605 51.6064 46.0524 54.3857 48.0878 54.0885C49.7735 53.8424 49.3498 51.2268 47.6732 51.4144Z" fill="white"/>
</svg>
