<svg width="221" height="29" viewBox="0 0 221 29" fill="none" xmlns="http://www.w3.org/2000/svg">
<path d="M146.894 1.18955C145.775 1.47859 144.481 2.5926 143.679 2.66486C142.607 2.76121 141.428 1.43041 140.206 1.05707C137.823 0.334468 125.86 0.424792 125.178 2.49625V27.9861H132.854V7.47619C144.445 4.646 136.925 23.6143 139.608 27.4381C140.422 28.6003 145.415 27.7271 147.026 27.9861V8.35535C147.026 7.09682 151.397 7.30758 152.54 8.01814C154.654 9.33087 152.917 23.2711 153.522 26.5228C153.947 28.799 161.366 28.799 161.791 26.5228C162.384 23.3253 161.97 9.32485 160.923 6.28389C158.923 0.466945 152.079 -0.153288 146.894 1.18955Z" fill="#251535"/>
<path d="M165.611 20.9576C169.149 28.9243 180.118 28.8882 187.153 26.1905C186.734 24.9621 186.8 19.8858 185.705 19.7955C182.094 21.608 172.82 22.3547 172.413 16.8509H188.357C192.417 -8.94003 155.791 -1.16001 165.611 20.9637V20.9576ZM172.419 11.5698C172.454 5.44578 180.867 5.19889 181.274 11.5698H172.419Z" fill="#251535"/>
<path d="M106.12 1.15867C92.9595 3.81423 93.8515 28.2201 109.467 27.919C127.357 27.5698 125.902 -2.82769 106.12 1.15867ZM110.688 20.9459C102.605 22.4333 103.108 9.00493 107.886 7.58381C115.724 5.25944 115.897 19.9825 110.688 20.9459Z" fill="#251535"/>
<path d="M89.4809 10.4265C85.6429 10.5289 81.775 10.294 77.9431 10.3964V0.436523H70.2673V27.1006C70.2673 28.4133 77.9431 28.4133 77.9431 27.1006V16.8456H85.6192V27.1006C85.6192 28.4193 93.8875 28.4193 93.8875 27.1006V10.6915C93.8875 9.21614 90.4149 10.4024 89.4809 10.4265Z" fill="#251535"/>
<path d="M55.514 13.0398C58.8251 9.53515 62.8965 5.9944 65.8423 2.20074C66.2974 1.61062 66.986 1.45405 66.7226 0.442407C64.5851 0.695318 61.6153 -0.075458 59.6514 0.743491C57.8252 1.50825 53.0113 8.91492 50.784 10.4023V1.32157C50.784 0.0329318 44.2876 0.0329318 44.2876 1.32157V27.3955H50.784V16.8455C53.7478 17.5018 58.795 26.715 59.759 27.269C60.8966 27.9254 65.6327 27.0522 67.3152 27.3834C64.3035 21.8796 60.0884 17.2851 55.514 13.0338V13.0398Z" fill="#251535"/>
<path d="M199.541 8.34939C199.529 4.11012 207.349 8.28917 208.618 7.97604C209.672 7.71711 211.75 3.97764 211.355 3.41762C211.223 3.23095 207.756 1.47864 207.253 1.31605C200.069 -0.996273 190.554 1.71348 191.943 10.6557C192.991 17.4 202.667 17.135 203.607 18.7007C205.086 21.1696 202.529 22.2775 200.475 22.1571C197.488 21.9885 194.141 17.7071 191.764 22.8556C190.638 25.2884 192.806 26.0592 195.117 26.842C203.056 29.5337 213.205 26.4626 211.361 16.575C210.355 11.1856 199.554 11.1555 199.548 8.34336L199.541 8.34939Z" fill="#251535"/>
<path d="M15.5481 13.4315C12.9675 11.5948 6.70457 10.794 6.44711 7.75902C6.14774 4.20021 13.7219 6.01273 15.9372 6.8919C19.1405 1.05086 14.1829 0.183741 9.14145 0.418587C0.37587 0.816018 -3.6595 10.1797 4.20797 14.7321C6.32752 15.9606 12.71 16.9842 12.4345 20.0433C12.0693 24.0356 3.50158 21.7835 1.19643 20.9465C-2.98878 28.0039 6.63871 28.0039 11.5364 27.4078C18.877 26.5166 21.5774 17.7189 15.5601 13.4254L15.5481 13.4315Z" fill="#251535"/>
<path d="M41.0365 0.442383H19.4818V6.30751H27.1579V27.4015H33.6543V6.30751C33.6543 5.92212 40.2464 6.83139 41.366 6.05459C42.4437 5.30791 42.0964 0.448406 41.0307 0.448406L41.0365 0.442383Z" fill="#251535"/>
<path d="M93.8875 0.442383H85.6191V8.05982H93.8875V0.442383Z" fill="#251535"/>
<path d="M220.103 21.6751C215.786 17.3877 210.589 27.9196 218.181 27.4439C221.306 27.2512 221.653 23.2167 220.103 21.6751Z" fill="#251535"/>
</svg>
